<?xml version="1.0" encoding="UTF-8"?>
<!DOCTYPE svg PUBLIC "-//W3C//DTD SVG 1.1//EN" "http://www.w3.org/Graphics/SVG/1.1/DTD/svg11.dtd">
<!-- Creator: CorelDRAW 2020 (64-Bit) -->
<svg xmlns="http://www.w3.org/2000/svg" xml:space="preserve" width="15.22mm" height="15.22mm" version="1.1" style="shape-rendering:geometricPrecision; text-rendering:geometricPrecision; image-rendering:optimizeQuality; fill-rule:evenodd; clip-rule:evenodd"
viewBox="0 0 1522 1522"
 xmlns:xlink="http://www.w3.org/1999/xlink"
 xmlns:xodm="http://www.corel.com/coreldraw/odm/2003">
 <defs>
  <style type="text/css">
   <![CDATA[
    .fil1 {fill:#231F20;fill-rule:nonzero}
    .fil0 {fill:white;fill-rule:nonzero}
   ]]>
  </style>
 </defs>
 <g id="Capa_x0020_1">
  <metadata id="CorelCorpID_0Corel-Layer"/>
  <g id="_1587648491568">
   <polygon class="fil0" points="448.43,1514.17 7.82,1073.56 7.82,450.44 448.43,9.81 1071.57,9.81 1512.19,450.44 1512.19,1073.56 1071.57,1514.17 "/>
   <path class="fil1" d="M1075.22 0.99l-630.45 0 -445.78 445.79 0 630.44 445.78 445.79 630.45 0 445.79 -445.79 0 -630.44 -445.79 -445.79zm-7.31 17.64l435.46 435.47 0 615.8 -435.46 435.46 -615.83 0 -435.44 -435.46 0 -615.8 435.44 -435.47 615.83 0z"/>
   <polygon class="fil1" points="1042.04,81.09 477.97,81.09 79.1,479.95 79.1,1044.03 477.97,1442.89 1042.04,1442.89 1440.91,1044.03 1440.91,479.95 "/>
   <path class="fil0" d="M182.82 607.57l0 -153.49 116.37 0 0 35.47 -71.98 0 0 82.55 73.01 0 0 35.47 -117.4 0zm26.24 -60.57l0 -35.47 79.24 0 0 35.47 -79.24 0zm199.02 60.57l-31.73 -48.43 -26.03 -31.95 -49.68 -73.11 49.57 0 26.65 40.34 26.04 32.26 54.44 80.89 -49.26 0zm-112.21 0l54.45 -80.38 26.54 -32.77 26.55 -40.34 48.23 0 -48.74 72.6 -26.55 32.46 -31.74 48.43 -48.74 0zm238.01 2.07c-14.1,0 -26.58,-1.59 -37.44,-4.73 -10.85,-3.15 -19.94,-7.95 -27.31,-14.42 -7.36,-6.46 -12.93,-14.62 -16.69,-24.47 -3.77,-9.86 -5.67,-21.44 -5.67,-34.78 0,-17.01 3.42,-31.42 10.26,-43.21 6.85,-11.79 16.87,-20.75 30.08,-26.86 13.2,-6.12 29.35,-9.16 48.43,-9.16 5.81,0 11.48,0.24 16.98,0.76 5.49,0.51 10.78,1.34 15.9,2.45l0 36.51c-4.5,-0.9 -9.13,-1.63 -13.93,-2.15 -4.81,-0.52 -9.82,-0.76 -15.01,-0.76 -10.58,0 -19.22,1.45 -25.92,4.39 -6.71,2.94 -11.65,7.5 -14.87,13.69 -3.21,6.19 -4.84,14.18 -4.84,23.92 0,9.89 1.56,17.91 4.67,24.1 3.11,6.19 7.95,10.72 14.52,13.59 6.56,2.87 15.03,4.32 25.41,4.32 4.97,0 10.02,-0.42 15.1,-1.21 5.08,-0.8 10.03,-1.8 14.87,-3.04l0 36.5c-4.77,1.38 -10.2,2.49 -16.32,3.32 -6.12,0.83 -12.2,1.24 -18.22,1.24zm48.22 -2.07l0 -153.49 116.37 0 0 35.47 -71.98 0 0 82.55 73.01 0 0 35.47 -117.4 0zm26.24 -60.57l0 -35.47 79.24 0 0 35.47 -79.24 0zm150.59 62.64c-8.3,0 -16.42,-0.62 -24.41,-1.86 -7.98,-1.25 -15.24,-2.91 -21.74,-4.98l0 -35.99c4.35,1.38 9.16,2.59 14.41,3.67 5.26,1.07 10.62,1.9 16.08,2.49 5.46,0.58 10.58,0.89 15.35,0.89 8.64,0 14.52,-1.03 17.6,-3.07 3.07,-2.04 4.59,-4.67 4.59,-7.92 0,-2.76 -1.07,-5.01 -3.21,-6.74 -2.15,-1.73 -6.71,-3.49 -13.69,-5.29l-13.69 -3.53c-13.76,-3.38 -24.2,-8.81 -31.32,-16.28 -7.12,-7.47 -10.68,-17.28 -10.68,-29.45 0,-15.63 5.8,-27.8 17.42,-36.51 11.61,-8.71 29.14,-13.06 52.58,-13.06 7.67,0 14.8,0.41 21.33,1.24 6.53,0.83 12.24,1.9 17.15,3.21l0 35.99c-4.64,-1.45 -10.13,-2.59 -16.49,-3.42 -6.36,-0.83 -12.73,-1.25 -19.09,-1.25 -7.53,0 -13.34,0.52 -17.42,1.56 -4.08,1.04 -6.91,2.42 -8.5,4.15 -1.59,1.73 -2.39,3.63 -2.39,5.7 0,2.42 0.9,4.39 2.7,5.95 1.8,1.55 5.56,3.14 11.3,4.74l13.69 3.52c10.23,2.49 18.67,5.77 25.31,9.89 6.63,4.11 11.58,9.19 14.79,15.21 3.22,6.01 4.81,13.1 4.81,21.26 0,10.16 -2.63,18.98 -7.92,26.45 -5.29,7.46 -12.89,13.24 -22.81,17.32 -9.93,4.07 -21.85,6.11 -35.75,6.11zm152.97 0c-15.76,0 -29.49,-2.97 -41.17,-8.88 -11.69,-5.91 -20.75,-14.69 -27.21,-26.38 -6.46,-11.68 -9.71,-26.2 -9.71,-43.56 0,-17.42 3.21,-31.97 9.64,-43.66 6.43,-11.68 15.49,-20.46 27.17,-26.34 11.69,-5.88 25.45,-8.81 41.28,-8.81 15.83,0 29.59,2.93 41.28,8.84 11.68,5.92 20.74,14.73 27.17,26.42 6.43,11.68 9.64,26.2 9.64,43.55 0,17.29 -3.21,31.77 -9.64,43.46 -6.43,11.68 -15.49,20.5 -27.17,26.45 -11.69,5.94 -25.45,8.91 -41.28,8.91zm0 -35.88c6.91,0 12.76,-1.49 17.53,-4.46 4.77,-2.97 8.4,-7.57 10.85,-13.76 2.46,-6.19 3.67,-14.14 3.67,-23.89 0,-10.3 -1.25,-18.66 -3.74,-25.09 -2.49,-6.43 -6.12,-11.17 -10.89,-14.18 -4.77,-3 -10.58,-4.49 -17.42,-4.49 -6.78,0 -12.55,1.45 -17.32,4.35 -4.77,2.91 -8.4,7.44 -10.92,13.63 -2.53,6.18 -3.81,14.24 -3.81,24.12 0,10.38 1.25,18.78 3.74,25.21 2.49,6.43 6.12,11.13 10.85,14.1 4.74,2.97 10.55,4.46 17.46,4.46zm149.65 33.81l0 -153.49 116.37 0 0 35.47 -71.98 0 0 82.55 73.01 0 0 35.47 -117.4 0zm26.24 -60.57l0 -35.47 79.24 0 0 35.47 -79.24 0zm106.82 60.57l0 -153.49 44.91 0 62.23 96.66 -6.85 0 0 -96.66 42.21 0 0 153.49 -44.9 0 -62.23 -96.66 6.84 0 0 96.66 -42.21 0z"/>
   <path class="fil0" d="M443.1 840.72c-20.95,0 -38.37,-2.9 -52.27,-8.71 -13.9,-5.81 -24.27,-14.52 -31.15,-26.1 -6.88,-11.58 -10.33,-26.1 -10.33,-43.59 0,-17.01 3.56,-31.42 10.64,-43.21 7.09,-11.79 17.67,-20.75 31.74,-26.86 14.07,-6.12 31.6,-9.16 52.61,-9.16 6.09,0 12.07,0.27 17.91,0.82 5.84,0.56 11.44,1.46 16.84,2.7l0 36.51c-4.84,-1.04 -9.79,-1.84 -14.83,-2.39 -5.05,-0.55 -10.27,-0.83 -15.66,-0.83 -12.66,0 -22.79,1.49 -30.43,4.46 -7.64,2.97 -13.2,7.64 -16.69,14 -3.49,6.36 -5.26,14.59 -5.26,24.69 0,9.33 1.59,17.04 4.74,23.12 3.14,6.09 7.92,10.62 14.31,13.59 6.4,2.97 14.42,4.46 24.1,4.46 3.73,0 7.6,-0.17 11.61,-0.49 4.01,-0.31 7.64,-0.65 10.89,-1.07l-19.5 16.39 0 -55.07 41.7 0 0 73.11c-6.71,1.04 -13.52,1.91 -20.47,2.6 -6.95,0.69 -13.79,1.03 -20.5,1.03zm60.67 -2.07l0 -149.45c5.12,-1.17 10.65,-2.24 16.56,-3.18 5.91,-0.93 11.93,-1.66 18.08,-2.17 6.16,-0.52 12.17,-0.76 18.05,-0.76 23.3,0 40.93,4.21 52.89,12.65 11.96,8.43 17.94,21.53 17.94,39.3 0,11.41 -2.76,20.95 -8.29,28.66 -5.54,7.71 -13.28,13.55 -23.23,17.49 -9.96,3.95 -21.61,5.92 -34.96,5.92 -2.21,0 -4.35,-0.07 -6.43,-0.18 -2.07,-0.1 -4.21,-0.17 -6.43,-0.24l0 51.96 -44.18 0zm88.16 0l-46.15 -70.11 47.6 0 47.19 70.11 -48.64 0zm-30.08 -84.42c7.61,0 13.42,-1.45 17.43,-4.36 4.01,-2.9 6.01,-7.84 6.01,-14.83 0,-4.49 -0.9,-8.19 -2.7,-11.06 -1.79,-2.87 -4.46,-4.98 -7.98,-6.36 -3.53,-1.38 -7.85,-2.07 -12.97,-2.07 -2.48,0 -4.87,0.1 -7.19,0.31 -2.31,0.2 -4.49,0.52 -6.5,0.93l0 36.61c1.53,0.14 3.05,0.28 4.57,0.42 1.52,0.13 3.07,0.24 4.63,0.31 1.56,0.07 3.11,0.1 4.7,0.1zm64.3 84.42l45.84 -153.49 66.17 0 45.84 153.49 -43.97 0 -37.23 -134.3 3.94 0 -37.03 134.3 -43.56 0zm38.27 -35.16l9.44 -35.26 62.23 0 9.33 35.26 -81 0zm168.22 37.23c-8.3,0 -16.42,-0.62 -24.41,-1.86 -7.98,-1.25 -15.24,-2.91 -21.74,-4.98l0 -35.99c4.35,1.38 9.16,2.59 14.41,3.67 5.26,1.07 10.62,1.9 16.08,2.49 5.46,0.58 10.58,0.89 15.35,0.89 8.64,0 14.52,-1.03 17.6,-3.07 3.07,-2.04 4.59,-4.67 4.59,-7.92 0,-2.76 -1.07,-5.01 -3.21,-6.74 -2.15,-1.73 -6.71,-3.49 -13.69,-5.29l-13.69 -3.53c-13.76,-3.38 -24.2,-8.81 -31.32,-16.28 -7.12,-7.47 -10.68,-17.28 -10.68,-29.45 0,-15.63 5.8,-27.8 17.42,-36.51 11.61,-8.71 29.14,-13.06 52.58,-13.06 7.67,0 14.8,0.41 21.33,1.24 6.53,0.83 12.24,1.9 17.15,3.21l0 35.99c-4.64,-1.45 -10.13,-2.59 -16.49,-3.42 -6.36,-0.83 -12.73,-1.25 -19.09,-1.25 -7.53,0 -13.34,0.52 -17.42,1.56 -4.08,1.04 -6.91,2.42 -8.5,4.15 -1.59,1.73 -2.39,3.63 -2.39,5.7 0,2.42 0.9,4.39 2.7,5.95 1.8,1.55 5.56,3.14 11.3,4.74l13.69 3.52c10.23,2.49 18.67,5.77 25.31,9.89 6.63,4.11 11.58,9.19 14.79,15.21 3.22,6.01 4.81,13.1 4.81,21.26 0,10.16 -2.63,18.98 -7.92,26.45 -5.29,7.46 -12.89,13.24 -22.81,17.32 -9.93,4.07 -21.85,6.11 -35.75,6.11zm65.02 -2.07l45.84 -153.49 66.17 0 45.84 153.49 -43.97 0 -37.23 -134.3 3.94 0 -37.03 134.3 -43.56 0zm38.27 -35.16l9.44 -35.26 62.23 0 9.33 35.26 -81 0zm168.22 37.23c-8.3,0 -16.42,-0.62 -24.41,-1.86 -7.98,-1.25 -15.24,-2.91 -21.74,-4.98l0 -35.99c4.35,1.38 9.16,2.59 14.41,3.67 5.26,1.07 10.62,1.9 16.08,2.49 5.46,0.58 10.58,0.89 15.35,0.89 8.64,0 14.52,-1.03 17.6,-3.07 3.07,-2.04 4.59,-4.67 4.59,-7.92 0,-2.76 -1.07,-5.01 -3.21,-6.74 -2.15,-1.73 -6.71,-3.49 -13.69,-5.29l-13.69 -3.53c-13.76,-3.38 -24.2,-8.81 -31.32,-16.28 -7.12,-7.47 -10.68,-17.28 -10.68,-29.45 0,-15.63 5.8,-27.8 17.42,-36.51 11.61,-8.71 29.14,-13.06 52.58,-13.06 7.67,0 14.8,0.41 21.33,1.24 6.53,0.83 12.24,1.9 17.15,3.21l0 35.99c-4.64,-1.45 -10.13,-2.59 -16.49,-3.42 -6.36,-0.83 -12.73,-1.25 -19.09,-1.25 -7.53,0 -13.34,0.52 -17.42,1.56 -4.08,1.04 -6.91,2.42 -8.5,4.15 -1.59,1.73 -2.39,3.63 -2.39,5.7 0,2.42 0.9,4.39 2.7,5.95 1.8,1.55 5.56,3.14 11.3,4.74l13.69 3.52c10.23,2.49 18.67,5.77 25.31,9.89 6.63,4.11 11.58,9.19 14.79,15.21 3.22,6.01 4.81,13.1 4.81,21.26 0,10.16 -2.63,18.98 -7.92,26.45 -5.29,7.46 -12.89,13.24 -22.81,17.32 -9.93,4.07 -21.85,6.11 -35.75,6.11z"/>
   <path class="fil0" d="M178.26 1071.8c-8.3,0 -16.42,-0.62 -24.41,-1.86 -7.98,-1.25 -15.24,-2.91 -21.74,-4.98l0 -35.99c4.35,1.38 9.16,2.59 14.41,3.67 5.26,1.07 10.62,1.9 16.08,2.49 5.46,0.58 10.58,0.89 15.35,0.89 8.64,0 14.52,-1.03 17.6,-3.07 3.07,-2.04 4.59,-4.67 4.59,-7.92 0,-2.76 -1.07,-5.01 -3.21,-6.74 -2.15,-1.73 -6.71,-3.49 -13.69,-5.29l-13.69 -3.53c-13.76,-3.38 -24.2,-8.81 -31.32,-16.28 -7.12,-7.47 -10.68,-17.28 -10.68,-29.45 0,-15.63 5.8,-27.8 17.42,-36.51 11.61,-8.71 29.14,-13.06 52.58,-13.06 7.67,0 14.8,0.41 21.33,1.24 6.53,0.83 12.24,1.9 17.15,3.21l0 35.99c-4.64,-1.45 -10.13,-2.59 -16.49,-3.42 -6.36,-0.83 -12.73,-1.25 -19.09,-1.25 -7.53,0 -13.34,0.52 -17.42,1.56 -4.08,1.04 -6.91,2.42 -8.5,4.15 -1.59,1.73 -2.39,3.63 -2.39,5.7 0,2.42 0.9,4.39 2.7,5.95 1.8,1.55 5.56,3.14 11.3,4.74l13.69 3.52c10.23,2.49 18.67,5.77 25.31,9.89 6.63,4.11 11.58,9.19 14.79,15.21 3.22,6.01 4.81,13.1 4.81,21.26 0,10.16 -2.63,18.98 -7.92,26.45 -5.29,7.46 -12.89,13.24 -22.81,17.32 -9.93,4.07 -21.85,6.11 -35.75,6.11zm65.02 -2.07l45.84 -153.49 66.17 0 45.84 153.49 -43.97 0 -37.23 -134.3 3.94 0 -37.03 134.3 -43.56 0zm38.27 -35.16l9.44 -35.26 62.23 0 9.33 35.26 -81 0zm145.82 35.16l0 -116.47 -46.56 0 0 -37.02 138.24 0 0 37.02 -46.56 0 0 116.47 -45.12 0zm170.61 2.07c-16.18,0 -29.42,-2.55 -39.72,-7.67 -10.31,-5.12 -17.91,-12.83 -22.86,-23.13 -4.94,-10.3 -7.43,-23.16 -7.43,-38.58l0 -86.18 45.01 0 0 90.43c0,10.24 2.15,17.57 6.43,21.99 4.29,4.43 10.48,6.64 18.57,6.64 8.09,0 14.27,-2.21 18.53,-6.64 4.25,-4.42 6.36,-11.75 6.36,-21.99l0 -90.43 44.18 0 0 86.18c0,15.42 -2.42,28.28 -7.26,38.58 -4.84,10.3 -12.34,18.01 -22.54,23.13 -10.2,5.12 -23.3,7.67 -39.27,7.67zm87.94 -2.07l0 -149.45c5.12,-1.17 10.65,-2.24 16.56,-3.18 5.91,-0.93 11.93,-1.66 18.08,-2.17 6.16,-0.52 12.17,-0.76 18.05,-0.76 23.3,0 40.93,4.21 52.89,12.65 11.96,8.43 17.94,21.53 17.94,39.3 0,11.41 -2.76,20.95 -8.29,28.66 -5.54,7.71 -13.28,13.55 -23.23,17.49 -9.96,3.95 -21.61,5.92 -34.96,5.92 -2.21,0 -4.35,-0.07 -6.43,-0.18 -2.07,-0.1 -4.21,-0.17 -6.43,-0.24l0 51.96 -44.18 0zm88.16 0l-46.15 -70.11 47.6 0 47.19 70.11 -48.64 0zm-30.08 -84.42c7.61,0 13.42,-1.45 17.43,-4.36 4.01,-2.9 6.01,-7.84 6.01,-14.83 0,-4.49 -0.9,-8.19 -2.7,-11.06 -1.79,-2.87 -4.46,-4.98 -7.98,-6.36 -3.53,-1.38 -7.85,-2.07 -12.97,-2.07 -2.48,0 -4.87,0.1 -7.19,0.31 -2.31,0.2 -4.49,0.52 -6.5,0.93l0 36.61c1.53,0.14 3.05,0.28 4.57,0.42 1.52,0.13 3.07,0.24 4.63,0.31 1.56,0.07 3.11,0.1 4.7,0.1zm64.3 84.42l45.84 -153.49 66.17 0 45.84 153.49 -43.97 0 -37.23 -134.3 3.94 0 -37.03 134.3 -43.56 0zm38.27 -35.16l9.44 -35.26 62.23 0 9.33 35.26 -81 0zm174.14 36.92c-4.5,0 -9.37,-0.1 -14.66,-0.31 -5.29,-0.21 -10.61,-0.52 -15.97,-0.9 -5.36,-0.38 -10.48,-0.83 -15.32,-1.38l0 -148.62c5.19,-1.17 10.82,-2.21 16.87,-3.11 6.05,-0.9 12.28,-1.59 18.67,-2.04 6.4,-0.45 12.65,-0.65 18.81,-0.65 29.66,0 52.03,6.32 67.06,18.98 15.04,12.65 22.54,32.49 22.54,59.52 0,18.46 -3.56,33.47 -10.71,45.01 -7.16,11.55 -18.01,20.02 -32.53,25.41 -14.52,5.4 -32.78,8.09 -54.76,8.09zm12.34 -36.09c8.92,0 16.32,-1.38 22.19,-4.11 5.88,-2.73 10.27,-7.19 13.14,-13.41 2.87,-6.23 4.29,-14.59 4.29,-25.1 0,-10.44 -1.52,-18.77 -4.57,-25 -3.04,-6.22 -7.5,-10.68 -13.41,-13.38 -5.91,-2.69 -13.24,-4.04 -21.95,-4.04 -1.87,0 -4.05,0.1 -6.54,0.31 -2.48,0.21 -4.63,0.52 -6.43,0.93l0 83.49c2.42,0.14 4.74,0.21 6.95,0.24 2.22,0.04 4.32,0.07 6.33,0.07zm86.39 34.33l45.84 -153.49 66.17 0 45.84 153.49 -43.97 0 -37.23 -134.3 3.94 0 -37.03 134.3 -43.56 0zm38.27 -35.16l9.44 -35.26 62.23 0 9.33 35.26 -81 0zm168.22 37.23c-8.3,0 -16.42,-0.62 -24.41,-1.86 -7.98,-1.25 -15.24,-2.91 -21.74,-4.98l0 -35.99c4.35,1.38 9.16,2.59 14.41,3.67 5.26,1.07 10.62,1.9 16.08,2.49 5.46,0.58 10.58,0.89 15.35,0.89 8.64,0 14.52,-1.03 17.6,-3.07 3.07,-2.04 4.59,-4.67 4.59,-7.92 0,-2.76 -1.07,-5.01 -3.21,-6.74 -2.15,-1.73 -6.71,-3.49 -13.69,-5.29l-13.69 -3.53c-13.76,-3.38 -24.2,-8.81 -31.32,-16.28 -7.12,-7.47 -10.68,-17.28 -10.68,-29.45 0,-15.63 5.8,-27.8 17.42,-36.51 11.61,-8.71 29.14,-13.06 52.58,-13.06 7.67,0 14.8,0.41 21.33,1.24 6.53,0.83 12.24,1.9 17.15,3.21l0 35.99c-4.64,-1.45 -10.13,-2.59 -16.49,-3.42 -6.36,-0.83 -12.73,-1.25 -19.09,-1.25 -7.53,0 -13.34,0.52 -17.42,1.56 -4.08,1.04 -6.91,2.42 -8.5,4.15 -1.59,1.73 -2.39,3.63 -2.39,5.7 0,2.42 0.9,4.39 2.7,5.95 1.8,1.55 5.56,3.14 11.3,4.74l13.69 3.52c10.23,2.49 18.67,5.77 25.31,9.89 6.63,4.11 11.58,9.19 14.79,15.21 3.22,6.01 4.81,13.1 4.81,21.26 0,10.16 -2.63,18.98 -7.92,26.45 -5.29,7.46 -12.89,13.24 -22.81,17.32 -9.93,4.07 -21.85,6.11 -35.75,6.11z"/>
   <path class="fil0" d="M529.74 1169.33l25.35 79.21 25.32 -79.21 15.72 0 0 97.07 -12.19 0 0 -37.79 1.14 -37.89 -25.4 75.68 -9.33 0 -25.28 -75.4 1.14 37.61 0 37.79 -12.19 0 0 -97.07 15.72 0zm95.04 97.07l-11.78 0 0 -72.08 11.78 0 0 72.08zm0.94 -91.26c0,2 -0.55,3.68 -1.66,5.02 -1.12,1.35 -2.8,2.01 -5.08,2.01 -2.2,0 -3.87,-0.66 -4.98,-2.01 -1.12,-1.34 -1.68,-3.02 -1.68,-5.02 0,-2.01 0.56,-3.71 1.68,-5.1 1.11,-1.39 2.78,-2.07 4.98,-2.07 2.23,0 3.92,0.7 5.05,2.12 1.12,1.41 1.69,3.09 1.69,5.05zm25.32 19.18l0.34 7.76c4.58,-6.08 10.42,-9.13 17.55,-9.13 12.74,0 19.2,8.51 19.38,25.53l0 47.92 -11.74 0 0 -47.35c0,-5.64 -0.93,-9.65 -2.82,-12.01 -1.89,-2.39 -4.73,-3.58 -8.51,-3.58 -2.91,0 -5.55,0.98 -7.9,2.94 -2.32,1.96 -4.2,4.5 -5.62,7.64l0 52.36 -11.8 0 0 -72.08 11.12 0zm64.23 72.08l-11.78 0 0 -72.08 11.78 0 0 72.08zm0.94 -91.26c0,2 -0.55,3.68 -1.66,5.02 -1.12,1.35 -2.8,2.01 -5.08,2.01 -2.2,0 -3.87,-0.66 -4.98,-2.01 -1.12,-1.34 -1.68,-3.02 -1.68,-5.02 0,-2.01 0.56,-3.71 1.68,-5.1 1.11,-1.39 2.78,-2.07 4.98,-2.07 2.23,0 3.92,0.7 5.05,2.12 1.12,1.41 1.69,3.09 1.69,5.05zm49.28 72.81c0,-2.53 -0.95,-4.71 -2.87,-6.53 -1.91,-1.82 -5.59,-3.96 -11.05,-6.4 -6.37,-2.61 -10.83,-4.87 -13.45,-6.73 -2.59,-1.87 -4.53,-3.98 -5.83,-6.37 -1.29,-2.37 -1.93,-5.21 -1.93,-8.49 0,-5.87 2.14,-10.76 6.44,-14.65 4.28,-3.89 9.76,-5.83 16.43,-5.83 7.03,0 12.67,2.05 16.93,6.15 4.27,4.07 6.39,9.32 6.39,15.72l-11.72 0c0,-3.26 -1.09,-6.03 -3.28,-8.33 -2.16,-2.3 -4.96,-3.44 -8.32,-3.44 -3.46,0 -6.19,0.89 -8.17,2.69 -1.98,1.8 -2.96,4.21 -2.96,7.21 0,2.39 0.71,4.33 2.16,5.78 1.44,1.46 4.92,3.39 10.42,5.78 8.76,3.44 14.72,6.78 17.89,10.06 3.14,3.27 4.73,7.44 4.73,12.47 0,6.28 -2.16,11.31 -6.48,15.08 -4.3,3.76 -10.08,5.65 -17.32,5.65 -7.51,0 -13.61,-2.17 -18.27,-6.47 -4.67,-4.32 -7.01,-9.78 -7.01,-16.4l11.88 0c0.13,3.98 1.34,7.12 3.66,9.37 2.32,2.26 5.55,3.39 9.74,3.39 3.91,0 6.87,-0.88 8.92,-2.64 2.05,-1.75 3.07,-4.12 3.07,-7.07zm39.11 -71.11l0 17.48 10.88 0 0 9.55 -10.88 0 0 44.71c0,2.85 0.48,5.01 1.41,6.47 0.94,1.48 2.53,2.2 4.8,2.2 1.55,0 3.12,-0.27 4.74,-0.79l-0.14 9.99c-2.66,0.86 -5.39,1.32 -8.21,1.32 -4.67,0 -8.22,-1.67 -10.65,-5.01 -2.46,-3.32 -3.67,-8.03 -3.67,-14.11l0 -44.78 -11.01 0 0 -9.55 11.01 0 0 -17.48 11.72 0zm47.27 90.93c-8.99,0 -15.89,-2.69 -20.69,-8.04 -4.78,-5.37 -7.23,-13.22 -7.32,-23.57l0 -8.74c0,-10.76 2.34,-19.18 7.03,-25.3 4.68,-6.12 11.24,-9.17 19.63,-9.17 8.44,0 14.75,2.69 18.93,8.08 4.19,5.37 6.31,13.77 6.4,25.14l0 7.74 -40.25 0 0 1.66c0,7.71 1.45,13.33 4.37,16.84 2.91,3.5 7.09,5.25 12.55,5.25 3.46,0 6.54,-0.66 9.17,-1.95 2.64,-1.32 5.12,-3.37 7.44,-6.22l6.13 7.47c-5.12,7.21 -12.91,10.81 -23.39,10.81zm-1.35 -64.72c-4.89,0 -8.51,1.69 -10.85,5.06 -2.37,3.36 -3.71,8.6 -4.01,15.7l28.4 0 0 -1.62c-0.32,-6.87 -1.55,-11.76 -3.71,-14.72 -2.14,-2.94 -5.44,-4.42 -9.83,-4.42zm65.88 2.26c-1.64,-0.32 -3.44,-0.48 -5.35,-0.48 -6.03,0 -10.26,3.32 -12.65,9.94l0 51.63 -11.81 0 0 -72.08 11.47 0 0.21 7.3c3.16,-5.78 7.62,-8.67 13.4,-8.67 1.86,0 3.41,0.32 4.66,0.94l0.07 11.42zm21.04 61.09l-11.78 0 0 -72.08 11.78 0 0 72.08zm0.94 -91.26c0,2 -0.55,3.68 -1.66,5.02 -1.12,1.35 -2.8,2.01 -5.08,2.01 -2.2,0 -3.87,-0.66 -4.98,-2.01 -1.12,-1.34 -1.68,-3.02 -1.68,-5.02 0,-2.01 0.56,-3.71 1.68,-5.1 1.11,-1.39 2.78,-2.07 4.98,-2.07 2.23,0 3.92,0.7 5.05,2.12 1.12,1.41 1.69,3.09 1.69,5.05zm11.72 51.87c0,-10.49 2.54,-18.77 7.64,-24.89 5.1,-6.12 11.81,-9.17 20.16,-9.17 8.35,0 15.09,2.98 20.16,8.94 5.1,5.94 7.71,14.07 7.85,24.33l0 7.6c0,10.44 -2.55,18.72 -7.6,24.82 -5.07,6.08 -11.83,9.13 -20.27,9.13 -8.35,0 -15.07,-2.96 -20.09,-8.88 -5.06,-5.91 -7.67,-13.9 -7.85,-24l0 -7.88zm11.8 6.78c0,7.42 1.46,13.27 4.37,17.5 2.92,4.26 6.83,6.37 11.77,6.37 10.39,0 15.74,-7.51 16.06,-22.52l0 -8.15c0,-7.37 -1.46,-13.22 -4.39,-17.5 -2.94,-4.3 -6.87,-6.44 -11.81,-6.44 -4.85,0 -8.71,2.14 -11.63,6.44 -2.91,4.28 -4.37,10.11 -4.37,17.43l0 6.87z"/>
   <path class="fil0" d="M544.33 1346.42c0,-11.1 2.07,-19.57 6.23,-25.39 4.16,-5.83 10.13,-8.74 17.91,-8.74 6.87,0 12.26,2.8 16.13,8.4l0 -37.34 11.79 0 0 102.39 -10.79 0 -0.61 -7.71c-3.87,6.05 -9.4,9.08 -16.59,9.08 -7.46,0 -13.33,-2.89 -17.57,-8.7 -4.25,-5.8 -6.41,-13.99 -6.5,-24.57l0 -7.42zm11.8 6.69c0,8.08 1.19,14.02 3.6,17.79 2.39,3.8 6.3,5.69 11.72,5.69 5.87,0 10.26,-2.95 13.15,-8.85l0 -36.29c-3.03,-5.76 -7.4,-8.65 -13.08,-8.65 -5.42,0 -9.33,1.89 -11.72,5.69 -2.41,3.78 -3.62,9.6 -3.67,17.45l0 7.17zm80.79 34c-8.99,0 -15.89,-2.69 -20.69,-8.04 -4.78,-5.37 -7.23,-13.22 -7.32,-23.57l0 -8.74c0,-10.76 2.34,-19.18 7.03,-25.3 4.68,-6.12 11.24,-9.17 19.63,-9.17 8.44,0 14.75,2.69 18.93,8.08 4.19,5.37 6.31,13.77 6.4,25.14l0 7.74 -40.25 0 0 1.66c0,7.71 1.45,13.33 4.37,16.84 2.91,3.5 7.09,5.25 12.55,5.25 3.46,0 6.54,-0.66 9.17,-1.95 2.64,-1.32 5.12,-3.37 7.44,-6.22l6.13 7.47c-5.12,7.21 -12.91,10.81 -23.39,10.81zm-1.35 -64.72c-4.89,0 -8.51,1.69 -10.85,5.06 -2.37,3.36 -3.71,8.6 -4.01,15.7l28.4 0 0 -1.62c-0.32,-6.87 -1.55,-11.76 -3.71,-14.72 -2.14,-2.94 -5.44,-4.42 -9.83,-4.42zm114.82 38.8c0,-4.82 -1.32,-8.53 -3.94,-11.13 -2.62,-2.57 -7.35,-5.07 -14.2,-7.53 -6.85,-2.43 -12.08,-5 -15.7,-7.69 -3.62,-2.68 -6.32,-5.76 -8.12,-9.21 -1.8,-3.44 -2.71,-7.4 -2.71,-11.84 0,-7.69 2.57,-14.03 7.71,-19.02 5.12,-4.98 11.86,-7.46 20.16,-7.46 5.69,0 10.74,1.27 15.2,3.82 4.44,2.55 7.85,6.1 10.27,10.63 2.38,4.53 3.59,9.51 3.59,14.92l-12.26 0c0,-6 -1.44,-10.64 -4.33,-13.92 -2.89,-3.3 -7.05,-4.94 -12.47,-4.94 -4.93,0 -8.76,1.39 -11.46,4.14 -2.71,2.76 -4.08,6.62 -4.08,11.61 0,4.09 1.48,7.53 4.42,10.28 2.91,2.78 7.46,5.23 13.58,7.42 9.56,3.16 16.38,7.05 20.5,11.67 4.12,4.62 6.17,10.67 6.17,18.16 0,7.87 -2.55,14.17 -7.67,18.91 -5.1,4.73 -12.06,7.1 -20.86,7.1 -5.65,0 -10.86,-1.23 -15.64,-3.71 -4.77,-2.48 -8.53,-5.96 -11.26,-10.42 -2.73,-4.49 -4.09,-9.61 -4.09,-15.39l12.26 0c0,6.01 1.68,10.68 5.03,14 3.37,3.34 7.92,5 13.7,5 5.39,0 9.42,-1.38 12.12,-4.14 2.71,-2.75 4.08,-6.51 4.08,-11.26zm60.39 24.55c-0.73,-1.55 -1.23,-4.16 -1.55,-7.83 -4.16,6.12 -9.51,9.2 -15.99,9.2 -6.53,0 -11.63,-1.85 -15.29,-5.51 -3.67,-3.66 -5.51,-8.83 -5.51,-15.5 0,-7.32 2.48,-13.15 7.46,-17.45 4.99,-4.3 11.81,-6.51 20.48,-6.6l8.65 0 0 -7.69c0,-4.32 -0.96,-7.39 -2.87,-9.23 -1.91,-1.83 -4.82,-2.74 -8.71,-2.74 -3.58,0 -6.47,1.07 -8.67,3.19 -2.23,2.12 -3.35,4.8 -3.35,8.05l-11.78 0c0,-3.68 1.09,-7.21 3.25,-10.55 2.18,-3.37 5.12,-6.01 8.8,-7.92 3.69,-1.91 7.81,-2.87 12.34,-2.87 7.37,0 12.99,1.85 16.83,5.51 3.85,3.66 5.81,9.01 5.9,16.02l0 36.38c0.04,5.57 0.79,10.37 2.27,14.47l0 1.07 -12.26 0zm-15.75 -9.42c2.89,0 5.65,-0.8 8.26,-2.39 2.64,-1.59 4.55,-3.59 5.74,-5.98l0 -17.16 -6.67 0c-5.6,0.09 -10.01,1.34 -13.26,3.76 -3.24,2.41 -4.87,5.8 -4.87,10.14 0,4.08 0.84,7.03 2.48,8.88 1.63,1.84 4.41,2.75 8.32,2.75zm53.31 9.42l-11.78 0 0 -102.39 11.78 0 0 102.39zm51.9 -6.3c-3.91,5.12 -9.62,7.67 -17.13,7.67 -6.53,0 -11.47,-2.26 -14.81,-6.76 -3.32,-4.53 -5.01,-11.08 -5.05,-19.71l0 -46.98 11.72 0 0 46.07c0,11.24 3.39,16.86 10.14,16.86 7.15,0 12.09,-3.21 14.79,-9.6l0 -53.33 11.81 0 0 72.08 -11.19 0 -0.28 -6.3zm23.33 -33.02c0,-11.1 2.07,-19.57 6.23,-25.39 4.16,-5.83 10.13,-8.74 17.91,-8.74 6.87,0 12.26,2.8 16.13,8.4l0 -37.34 11.79 0 0 102.39 -10.79 0 -0.61 -7.71c-3.87,6.05 -9.4,9.08 -16.59,9.08 -7.46,0 -13.33,-2.89 -17.57,-8.7 -4.25,-5.8 -6.41,-13.99 -6.5,-24.57l0 -7.42zm11.8 6.69c0,8.08 1.19,14.02 3.6,17.79 2.39,3.8 6.3,5.69 11.72,5.69 5.87,0 10.26,-2.95 13.15,-8.85l0 -36.29c-3.03,-5.76 -7.4,-8.65 -13.08,-8.65 -5.42,0 -9.33,1.89 -11.72,5.69 -2.41,3.78 -3.62,9.6 -3.67,17.45l0 7.17z"/>
  </g>
 </g>
</svg>
