<?xml version="1.0" encoding="UTF-8"?>
<!DOCTYPE svg PUBLIC "-//W3C//DTD SVG 1.1//EN" "http://www.w3.org/Graphics/SVG/1.1/DTD/svg11.dtd">
<!-- Creator: CorelDRAW 2020 (64-Bit) -->
<svg xmlns="http://www.w3.org/2000/svg" xml:space="preserve" width="320.544mm" height="174.173mm" version="1.1" style="shape-rendering:geometricPrecision; text-rendering:geometricPrecision; image-rendering:optimizeQuality; fill-rule:evenodd; clip-rule:evenodd"
viewBox="0 0 32054.4 17417.3"
 xmlns:xlink="http://www.w3.org/1999/xlink"
 xmlns:xodm="http://www.corel.com/coreldraw/odm/2003">
 <defs>
  <style type="text/css">
   <![CDATA[
    .fil0 {fill:#CC9933}
   ]]>
  </style>
 </defs>
 <g id="Capa_x0020_1">
  <metadata id="CorelCorpID_0Corel-Layer"/>
  <path class="fil0" d="M271.05 14318.87l-2.91 704.38 -24.16 -161.07 -27.66 -542.73 54.73 -0.58zm-8.23 -527.27l7.33 469.85 -54.73 0.49 -7.3 -469.67 54.7 -0.67zm-3.77 -240.46l3.55 227.75 -54.69 0.6 -3.55 -228.2 54.69 -0.15zm-4.96 -320.4l4.9 315.81 -54.72 0.37 -4.91 -315.59 54.73 -0.59zm-4.36 -278.7l3.59 232.12 -54.69 0.46 -3.62 -232.27 54.72 -0.31zm-4.11 -264.59l3.59 231.15 -54.74 0.1 -3.59 -230.91 54.74 -0.34zm-126.39 -8102.25l3.84 246.36 -54.72 0.45 -3.84 -246.61 54.72 -0.2zm-3.78 -241.21l3.4 216.93 -54.7 0.56 -3.42 -217.18 54.72 -0.31zm200.82 -4129.67c-21.02,135.26 -126.41,244.01 -261,269.24l59.53 3816.88 -54.72 0.47 -4.71 -302.97 39.06 -0.48 -39.08 0.19 -55.57 -3563.3c148.36,-2.32 267.88,-125.6 265.6,-273.98 6936.8,-108.17 25333.56,-122.68 27991.3,-156.84l0.47 29.75c-2638.18,48.32 -20997.06,72.73 -27940.88,181.04zm31460.1 2466.13l-3.79 -241.28 54.71 -0.34 3.79 241.35 -54.71 0.27zm5.51 355.45l-4.93 -317.82 54.68 -0.63 4.96 317.29 -54.71 1.16zm3.67 234.99l-3.64 -232.79 54.72 -0.18 3.64 232.33 -54.72 0.64zm7.59 485.61l-7.44 -477.53 54.68 -0.65 7.46 477.72 -54.7 0.46zm137.18 8796.13l-0.52 -32.94c11.41,-8.23 30.8,-14.64 54.44,-18.01l1.06 67.24 -7.26 -1.04c-21.2,-3.08 -37.62,-8.5 -47.72,-15.25zm-31507.06 4551.76c97.48,15.16 181.21,74.16 229.82,156.26l-66.43 -0.56c-50.39,-64.78 -129.49,-106.12 -217.32,-104.76l-1.83 -116.22 54.72 -0.69 1.04 65.97zm-296.02 -12004.53l-54.71 0.35 -3.9 -252.15 54.69 -0.41 3.92 252.21zm4.42 282.26l-54.69 0.54 -3.97 -254.29 54.71 -0.25 3.95 254zm8.16 522.18l-54.74 0.61 -7.55 -484.38 54.72 -0.58 7.57 484.35zm3.87 249.64l-54.71 0.5 -3.46 -221.56 54.71 -0.25 3.46 221.31zm7.5 479.88l-55.06 -20.95 -6.61 -423.35 54.74 -0.53 6.93 444.83zm-53.52 77.97c17.94,-10.88 36.03,-21.71 54.22,-32.52l6.85 439.43 -54.7 0.7 -6.37 -407.61zm68.14 859.58l-54.72 0.24 -7.05 -450.24 54.77 -0.22 7 450.22zm19.58 1255.79l-54.73 0.24 -18.95 -1215.48 54.73 -0.58 18.95 1215.82zm8.09 519.96l-54.69 0.42 -8.1 -519.48 54.7 -0.67 8.09 519.73zm-54.57 7.46l54.71 -0.27 51.62 3310.73 -54.72 0.35 -51.61 -3310.81zm2689.51 8032.2l-2185.11 34.1c-0.86,-56.3 -19.19,-108.46 -49.71,-151.34l63.92 -1.12c16.54,29.79 28.52,62.41 35,96.98l2135.08 -33.29 0.82 54.67zm28978.05 -331.13l76.15 -0.23c-58.5,50.51 -95.25,125.53 -93.96,208.38l-1196.1 18.66c-1043.57,-0.1 -7035.17,-88.35 -8071.38,-53.3l-17523.3 124.91 -89.33 -53.31 26829.17 -90.88c8.94,-57.7 33.33,-110.59 68.75,-154.23zm190.29 -241.87l54.7 0.21 2.76 175.85c-25.35,0.39 -49.87,4.36 -73.12,11.33l-117.36 -0.81c39.14,-29.47 85.04,-50.36 135,-59.75l-1.98 -126.83zm-5.62 -361.42l54.69 -0.23 4.73 301.25 -54.72 -0.15 -4.7 -300.87zm-4.01 -256.95l54.71 -0.12 3.85 245.79 -54.71 0.35 -3.85 -246.02zm-4.29 -274.8l54.7 0.02 3.74 237.54 -54.73 -0.02 -3.71 -237.54zm-3.92 -250.57l54.74 -0.24 3.68 237.09 -54.72 0.39 -3.7 -237.24zm-8.54 -549.45l54.68 -0.5 8.08 518.14 -54.7 0.22 -8.06 -517.86zm-9.67 -619.08c19.55,24.71 38.17,49.79 55.88,75.2l8.23 528.28 -54.69 0.09 -9.42 -603.57zm48.2 -417.23c-19.46,14.16 -37.51,27.45 -54.08,40.08l-18.77 -1203.35 54.75 1.84 18.1 1161.43zm-76.2 -1378.11l54.75 2.18 3.14 201.89 -54.73 -1.58 -3.16 -202.49zm-46.5 -2981.87l54.7 -0.57 39.27 2517.76 -54.71 0.23 -39.26 -2517.42zm-8.22 -527.17l54.7 -0.69 8.15 523.68 -54.69 0.22 -8.16 -523.21zm-13.1 -839.87l54.71 -0.28 3.63 232.1 -50.02 0.41c12,15.25 23.61,30.73 34.9,46.31l15.82 -0.19 8.61 551.19 -54.71 0.16 -12.94 -829.7zm54.17 -33.69l-54.7 0.09 -70.45 -4517.48 54.71 -0.58 70.44 4517.97zm-2304.38 -8134.55c1.09,-18.29 2.74,-35.96 4.7,-52.9l1795.12 -27.99c2.22,143.27 121.32,258.68 264.58,256.42l28.55 1830.91 -52.84 0.26 -27.8 -1781.99c-130.65,-20.3 -235.67,-122.1 -260.03,-252.04l-1752.28 27.33zm2044.55 2291.9l-0.3 -18.93 52.84 -0.3 0.32 18.94 -52.86 0.29zm-0.56 -36.32l-3.72 -238.07 52.85 -0.33 3.72 238.39 -52.85 0.01zm-31542.93 5423.44l54.69 -0.83 14.96 959.95 -54.73 0.24 -14.92 -959.36zm81.15 1695.81l-54.71 0.85 -3.27 -210.12 54.71 -0.27 3.27 209.54zm-3.41 -216.73l-54.69 0.42 -8.1 -519.48 54.7 -0.67 8.09 519.73z"/>
 </g>
</svg>
