<?xml version="1.0" encoding="UTF-8"?>
<!DOCTYPE svg PUBLIC "-//W3C//DTD SVG 1.1//EN" "http://www.w3.org/Graphics/SVG/1.1/DTD/svg11.dtd">
<!-- Creator: CorelDRAW 2020 (64-Bit) -->
<svg xmlns="http://www.w3.org/2000/svg" xml:space="preserve" width="164.374mm" height="87.111mm" version="1.1" style="shape-rendering:geometricPrecision; text-rendering:geometricPrecision; image-rendering:optimizeQuality; fill-rule:evenodd; clip-rule:evenodd"
viewBox="0 0 16437.4 8711.1"
 xmlns:xlink="http://www.w3.org/1999/xlink"
 xmlns:xodm="http://www.corel.com/coreldraw/odm/2003">
 <defs>
  <style type="text/css">
   <![CDATA[
    .fil0 {fill:#CC9933;fill-rule:nonzero}
    .fil1 {fill:white;fill-rule:nonzero}
   ]]>
  </style>
 </defs>
 <g id="Capa_x0020_1">
  <metadata id="CorelCorpID_0Corel-Layer"/>
  <g id="_2154569276800">
   <g>
    <path class="fil0" d="M5606.14 7807.31l251.92 69.29c58.35,16.06 107.11,41.21 146.27,75.44 39.16,34.25 65.64,74.82 79.48,121.74 13.84,46.93 13.36,97.28 -1.44,151.06 -14.79,53.77 -40.14,97.3 -76.01,130.54 -35.89,33.25 -79.41,54.56 -130.58,63.96 -51.16,9.41 -105.92,6.07 -164.27,-9.99l-251.91 -69.29 146.54 -532.75zm132.36 480.13c45.68,12.55 85.9,9.69 120.65,-8.57 34.78,-18.26 58.45,-50.24 71.01,-95.88 12.57,-45.68 8.58,-85.25 -11.98,-118.75 -20.51,-33.47 -53.61,-56.5 -99.29,-69.07l-95.13 -26.16 -80.38 292.25 95.12 26.18zm896.03 199.5l-23.68 118.44 -434.99 -87.04 108.4 -541.81 424.93 85.03 -23.7 118.41 -273.21 -54.66 -18.28 91.34 240.72 48.16 -22.93 114.54 -240.72 -48.16 -19.81 99.07 283.27 56.68zm340.43 170.95c-44.41,-5.39 -86.83,-16.09 -127.3,-32.14 -40.46,-16.04 -72.63,-34.78 -96.54,-56.23l64.8 -108.22c22.6,19.17 49.49,35.68 80.67,49.53 31.17,13.86 62.45,22.67 93.79,26.47 59.55,7.23 91.14,-4.04 94.75,-33.83 1.89,-15.67 -5.18,-28.32 -21.24,-37.94 -16.06,-9.65 -42.39,-20.93 -78.98,-33.84 -40.19,-13.89 -73.51,-27.6 -99.99,-41.15 -26.43,-13.53 -48.22,-32.75 -65.35,-57.61 -17.12,-24.88 -23.39,-56.38 -18.76,-94.51 4.06,-33.44 16.85,-62.51 38.42,-87.17 21.55,-24.7 51.41,-42.69 89.62,-53.94 38.21,-11.28 83.68,-13.72 136.45,-7.32 36.06,4.37 71.09,12.74 105.1,25.08 34.02,12.34 63.4,27.97 88.14,46.87l-61.78 109.38c-48.81,-34.55 -97.77,-54.79 -146.88,-60.74 -30.81,-3.74 -53.84,-1.9 -69.05,5.52 -15.2,7.44 -23.7,18.47 -25.48,33.1 -1.77,14.63 5.25,26.61 21.09,35.95 15.83,9.35 41.82,20.19 77.95,32.52 40.71,13.96 74.16,27.67 100.36,41.18 26.2,13.52 47.99,32.6 65.4,57.25 17.42,24.63 23.83,56.02 19.21,94.15 -3.99,32.92 -16.74,61.58 -38.26,86.02 -21.51,24.42 -51.51,42.38 -90.03,53.87 -38.5,11.5 -83.87,14.08 -136.11,7.75zm432.56 -522.87l260.89 14.33c60.42,3.33 113.39,17.58 158.92,42.74 45.52,25.16 80.03,59.21 103.49,102.12 23.46,42.94 33.67,92.25 30.6,147.95 -3.06,55.68 -18.6,103.59 -46.62,143.68 -28.02,40.09 -66.06,70.14 -114.06,90.17 -48.01,20.04 -102.22,28.38 -162.65,25.06l-260.88 -14.34 30.31 -551.71zm231.1 441.18c47.3,2.6 86.01,-8.72 116.11,-33.94 30.12,-25.21 46.47,-61.48 49.07,-108.76 2.6,-47.3 -9.69,-85.13 -36.87,-113.51 -27.16,-28.36 -64.39,-43.85 -111.67,-46.45l-98.52 -5.41 -16.62 302.65 98.5 5.42zm918.74 14.8l1.12 120.78 -443.6 4.08 -5.09 -552.51 433.33 -4 1.12 120.76 -278.64 2.58 0.86 93.13 245.49 -2.25 1.07 116.81 -245.47 2.26 0.93 101.03 288.88 -2.67zm554.35 -476.88l56.33 549.67 -155.49 15.94 -44.01 -429.52 -102.08 10.47 -12.32 -120.15 257.57 -26.41zm346.33 -52.94c78.67,-11.08 143.96,3.37 195.81,43.36 51.88,39.98 83.95,103.49 96.2,190.51 8.81,62.53 4.27,118.04 -13.61,166.54 -17.89,48.47 -47.18,87.54 -87.92,117.19 -40.71,29.66 -90,48.56 -147.85,56.7 -30.74,4.34 -60.67,4.97 -89.81,1.89 -29.12,-3.06 -54.46,-9.45 -76.02,-19.17l40.63 -118.92c29.21,15.03 64.15,19.66 104.79,13.93 39.09,-5.51 69.21,-20.78 90.39,-45.8 21.19,-25.05 30.97,-58.45 29.33,-100.21 -27.52,31 -66.54,50.04 -117.09,57.16 -34.4,4.84 -66.92,2.12 -97.6,-8.17 -30.68,-10.3 -56.34,-27.41 -76.99,-51.33 -20.64,-23.92 -33.34,-52.84 -38.11,-86.69 -5.21,-37.01 -0.31,-71.04 14.7,-102.14 15.03,-31.06 37.73,-56.59 68.14,-76.54 30.4,-19.96 65.39,-32.73 105.01,-38.31zm45.95 247.02c22.4,-3.17 39.76,-12.12 52.02,-26.87 12.27,-14.75 16.93,-32.54 13.99,-53.39 -2.86,-20.31 -12.1,-35.88 -27.69,-46.71 -15.61,-10.83 -35.13,-14.58 -58.59,-11.27 -21.88,3.08 -38.85,11.86 -50.91,26.3 -12.03,14.45 -16.56,32.37 -13.55,53.71 2.94,20.85 12.19,36.56 27.76,47.11 15.58,10.57 34.56,14.27 56.97,11.12zm505.89 -342.1c77.74,-16.43 143.85,-6.47 198.34,29.88 54.48,36.35 90.81,97.51 108.99,183.48 13.06,61.79 12.32,117.48 -2.21,167.09 -14.52,49.58 -41.08,90.55 -79.69,122.92 -38.6,32.38 -86.48,54.6 -143.63,66.68 -30.38,6.42 -60.19,9.11 -89.46,8.04 -29.28,-1.09 -54.99,-5.73 -77.18,-13.94l32.43 -121.43c30.17,12.99 65.33,15.23 105.49,6.75 38.62,-8.16 67.62,-25.48 87.05,-51.9 19.43,-26.42 26.9,-60.41 22.41,-101.96 -25.33,32.81 -62.97,54.46 -112.92,65.03 -33.98,7.17 -66.61,6.69 -97.94,-1.48 -31.29,-8.18 -58.07,-23.48 -80.31,-45.94 -22.22,-22.48 -36.86,-50.45 -43.94,-83.91 -7.73,-36.55 -5.16,-70.84 7.7,-102.87 12.85,-32.03 33.77,-59.04 62.73,-81.03 28.97,-22 63.01,-37.13 102.14,-45.41zm62.73 243.31c22.14,-4.69 38.83,-14.81 50.05,-30.37 11.26,-15.55 14.69,-33.63 10.33,-54.21 -4.25,-20.07 -14.53,-34.99 -30.83,-44.72 -16.31,-9.72 -36.04,-12.13 -59.22,-7.23 -21.62,4.56 -37.93,14.48 -48.98,29.71 -11.04,15.25 -14.31,33.43 -9.85,54.53 4.36,20.58 14.66,35.63 30.91,45.09 16.27,9.47 35.46,11.88 57.59,7.2zm911.63 -25.61l-78.83 22.96 29.57 101.54 -146.25 42.6 -29.58 -101.55 -280.41 81.69 -28.47 -97.76 141.5 -400.52 155.35 -45.24 -125.7 372.87 107.61 -31.35 -26.27 -90.17 141.72 -41.29 26.27 90.19 78.83 -22.96 34.66 118.99z"/>
   </g>
   <g>
    <g>
     <path class="fil0" d="M3565.14 91.49l770.86 0c181.94,0 326.89,74.81 434.21,224.42 107.97,149.6 155.68,355.63 143.84,616.81 -18.79,414.58 -129.88,781.63 -332.62,1100.5 -203.36,318.87 -444.5,477.98 -722.8,477.98l-742.96 0 11.67 -61.49 171.16 0 427.27 -2293.56 -171.16 0 10.53 -64.66zm624.67 64.66l-427.11 2289.75 105.87 0c169.9,0 276.64,-117.27 320.9,-352.46l306.7 -1647.58c10.02,-53.25 15.46,-89.39 16.38,-109.67 5.44,-119.81 -54.6,-180.04 -179.48,-180.04l-143.26 0zm1142.34 2377.23c-91.92,0 -168.52,-30.42 -229.75,-91.91 -61.88,-61.5 -90.44,-144.54 -85.68,-249.77 1.53,-33.6 7.92,-76.7 19.21,-129.96l208.19 -1110.64 -159.74 0 14.28 -63.39 244.7 0c141.36,0 261.63,-10.14 362.11,-31.06l-245.43 1316.67c-9.27,36.77 -14.86,76.07 -16.69,116.64 -1.18,25.99 4.15,48.17 15.42,65.29 11.91,17.12 26.08,26 43.83,26 34.24,0 69.38,-20.29 103.52,-60.23 34.81,-40.57 63.97,-96.36 86.86,-167.99l64.67 0c-84.4,253.57 -226.45,380.35 -425.5,380.35zm-29.14 -2181.98c3.16,-69.73 29.89,-128.05 80.22,-175.6 50.34,-47.54 109.75,-71.63 177.58,-71.63 68.46,0 125.7,24.09 171.68,72.27 45.98,48.81 67.45,106.5 64.35,174.96 -3.07,67.83 -29.81,126.15 -80.18,174.33 -50.36,48.19 -109.77,72.27 -178.24,72.27 -67.83,0 -125.05,-24.08 -171.05,-72.27 -45.99,-48.18 -67.44,-106.5 -64.36,-174.33zm903.15 2185.79c-127.41,0 -231.24,-31.06 -311.44,-93.82 -80.2,-62.76 -118.19,-133.76 -114.54,-214.27 3.1,-68.46 24.05,-124.89 62.19,-169.26 38.78,-44.37 83.53,-66.56 134.24,-66.56 46.91,0 84.26,15.21 111.44,45 27.15,30.44 39.42,67.2 37.44,110.95 -2.9,64.02 -23.67,116.64 -61.62,156.58 -38.6,40.56 -58.04,64.02 -58.39,71.63 -0.83,18.38 18.5,39.3 58.67,62.13 39.54,22.81 94.17,34.23 163.9,34.23 61.49,0 119,-24.09 171.94,-72.91 52.92,-48.8 80.84,-105.23 83.72,-168.62 3.3,-72.9 -10.29,-136.93 -41.38,-192.08 -30.47,-55.15 -101.5,-124.25 -211.24,-206.66 -105.51,-77.98 -178.74,-154.68 -220.35,-229.48 -40.99,-74.81 -59.18,-162.92 -54.55,-264.99 6.32,-139.46 63.01,-257.37 170.08,-353.73 107.03,-95.72 228.4,-143.9 362.79,-143.9 132.49,0 238.91,29.79 319.31,88.12 80.37,58.95 119.05,128.68 115.4,209.19 -3.07,67.84 -24.01,124.25 -62.82,169.26 -38.15,44.38 -82.89,66.56 -133.61,66.56 -47.54,0 -84.26,-15.21 -111.41,-45.64 -27.15,-30.42 -39.43,-67.19 -37.47,-110.3 2.99,-65.93 23.7,-117.28 62.19,-155.32 39.1,-37.4 58.6,-62.12 59.09,-72.89 0.92,-20.29 -15.99,-38.68 -50.11,-55.16 -34.75,-16.48 -86.36,-24.72 -156.09,-24.72 -66.57,0 -122.67,20.92 -167.1,64.03 -44.4,42.47 -68.39,96.35 -71.29,160.38 -2.53,55.79 9.86,103.96 37.22,143.9 27.32,40.58 88.82,96.36 184.46,167.99 124.46,93.19 211.1,181.94 259.2,267.52 48.1,85.58 69.35,190.18 63.74,313.8 -6.58,145.17 -70.39,266.25 -190.16,363.24 -120.4,96.99 -254.47,145.8 -403.45,145.8zm1517.26 -1586.09l-232.73 1246.31c-42.47,223.77 -105.96,421.56 -190.39,592.09 -84.47,171.16 -178.47,301.11 -281.42,390.5 -102.91,88.75 -208.28,133.76 -316.05,133.76 -96.99,0 -175.03,-26.63 -234.1,-79.88 -59.71,-53.25 -87.79,-119.18 -84.25,-197.15 3.47,-76.71 27.27,-140.1 71.98,-189.54 44.08,-49.45 94.01,-74.18 149.81,-74.18 50.71,0 91.13,17.12 121.25,51.98 30.12,34.87 44.1,76.08 41.91,124.25 -1.92,42.47 -14.54,83.05 -37.27,122.99 -22.7,39.3 -44.25,67.2 -64.01,83.68 -20.37,15.85 -30.6,31.69 -31.34,48.17 -1.13,24.72 26.22,36.77 82,36.77 72.91,0 135.43,-36.77 186.94,-110.3 51.52,-73.54 80.12,-159.12 84.57,-257.38l2.73 -311.89c3.24,-71.63 31.11,-252.94 84.24,-543.91l196.68 -1066.27 -170.53 0 13.65 -63.39 167.36 0c47.71,-269.43 145.74,-474.18 293.42,-613.64 147.07,-139.47 294.1,-208.57 439.9,-208.57 97,0 174.34,27.89 232.06,83.04 58.32,55.79 85.68,123.62 82.09,202.86 -3.48,76.71 -27.25,139.47 -70.67,188.28 -44.04,48.81 -93.34,73.53 -149.13,73.53 -51.98,0 -93.04,-17.11 -121.92,-51.34 -29.55,-33.6 -43.52,-74.8 -41.31,-123.62 1.95,-43.1 14.6,-84.31 36.64,-122.98 22.07,-39.31 43.59,-66.56 63.99,-83.04 20.37,-15.85 31.26,-32.33 31.98,-48.18 0.54,-12.05 -7.81,-23.46 -24.53,-32.34 -17.32,-9.5 -34.87,-13.94 -53.25,-13.94 -70.37,0 -129.67,21.55 -177.87,64.02 -47.56,42.48 -72.6,91.29 -75.07,145.81 -1.73,38.03 1.01,89.39 8.23,154.04 6.87,58.32 9.87,103.97 8.35,137.56 -2.9,64.04 -14.28,147.08 -33.46,248.51l170.53 0 -13.65 63.39 -167.36 0zm883.15 180.03c99.59,-183.2 222.9,-274.48 368.7,-274.48 77.35,0 136.59,21.55 178.38,64.65 41.76,43.75 61.33,101.43 58,174.97 -3.48,76.71 -30.53,142 -80.54,196.51 -50.02,54.52 -110.84,81.78 -182.48,81.78 -51.35,0 -91.8,-16.48 -123.28,-49.44 -31.49,-32.34 -46.19,-71.63 -44.09,-117.91 3.59,-79.24 46.72,-149.61 128.77,-211.73 17.71,-13.31 27.03,-22.83 27.26,-27.9 0.83,-18.38 -13.32,-27.89 -41.85,-27.89 -57.69,0 -126.86,57.68 -207.54,173.06 -80.02,115.38 -135.27,257.38 -167.07,427.27l-179.05 971.18 -440.58 0 290.06 -1560.1 -159.74 0 14.28 -63.39 244.7 0c138.82,0 258.46,-10.14 358.3,-31.06l-49.84 274.48 7.61 0zm1386.43 1118.26c-121.21,184.47 -265.47,276.39 -434.09,276.39 -97.63,0 -174.28,-29.16 -229.3,-88.12 -54.38,-58.95 -80.01,-136.93 -75.59,-234.55 1.04,-22.82 77,-439.95 227.92,-1252.01l-159.74 0 13.65 -63.39 243.42 0c142.64,0 263.54,-10.14 363.38,-31.06l-234.54 1244.4c-17.39,90.01 -26.78,143.27 -27.5,159.12 -2.99,65.92 29.12,98.88 95.68,98.88 39.93,0 87.22,-36.12 142.5,-109.03 55.26,-72.27 91.33,-154.68 107.6,-247.86l212.17 -1114.45 439.94 0 -244.02 1285.61c-8.64,36.77 -14.22,76.07 -16.05,116.64 -1.18,25.99 4.15,48.17 15.42,65.29 11.9,17.12 26.71,26 45.1,26 33.6,0 67.48,-20.29 102.25,-60.23 34.81,-40.57 63.33,-96.36 86.86,-167.99l64.66 0c-83.12,253.57 -225.17,380.35 -425.49,380.35 -80.51,0 -151.03,-24.72 -210.27,-74.16 -59.89,-49.45 -94.1,-119.81 -103.96,-209.83zm1257.51 283.99c-92.55,0 -169.78,-30.42 -230.39,-91.91 -61.24,-61.5 -89.16,-144.54 -84.4,-249.77 1.36,-29.8 76.1,-448.19 224.26,-1255.18l-195.25 0 14.37 -65.3 190.81 0 71.07 -379.09 454.8 -76.06 -85.28 455.15 194.61 0 -13.74 65.3 -191.44 0 -227.23 1236.8c-8.64,36.77 -14.22,76.07 -16.06,116.64 -1.18,25.99 4.15,48.17 16.69,65.29 11.9,17.12 26.72,26 43.83,26 33.6,0 67.48,-20.29 102.26,-60.23 34.79,-40.57 63.32,-96.36 86.85,-167.99l64.67 0c-83.14,253.57 -223.28,380.35 -420.43,380.35zm1329.61 -397.46l105.81 -571.81c57.15,-296.05 86.29,-463.4 88.02,-501.44 1.46,-32.33 -8.05,-60.22 -27.91,-83.68 -19.85,-23.46 -47.2,-35.5 -82.06,-35.5 -37.41,0 -71.86,19.02 -104.65,57.05 -32.76,37.41 -59.1,86.85 -78.97,147.71 -20.48,60.22 -59.5,249.77 -118.94,568 -58.79,318.23 -88.76,490.03 -89.94,516.02 -5.47,120.45 24.13,180.67 90.06,180.67 45.64,0 90.51,-24.73 133.29,-73.53 43.42,-48.82 71.86,-116.65 85.29,-203.49zm17.58 185.73c-90.84,143.91 -213.89,215.54 -369.84,215.54 -111.57,0 -204.74,-56.42 -279.5,-169.26 -74.79,-112.2 -108.44,-251.04 -100.96,-415.85 8.59,-189.55 54.18,-370.22 136.14,-542.02 81.98,-172.43 181.38,-309.35 298.2,-411.41 116.85,-102.07 242.78,-153.41 379.08,-153.41 72.26,0 122.93,29.16 151.98,87.48l30.5 -57.69 406.99 0 -242.86 1302.09c-9.28,36.77 -14.86,76.07 -16.7,116.64 -1.18,25.99 4.82,47.55 16.69,65.29 12.54,17.12 27.35,26 44.47,26 33.59,0 67.48,-20.29 102.26,-60.23 34.17,-40.57 63.29,-95.72 86.16,-166.72l65.29 0c-83.73,252.94 -224.47,379.09 -424.16,379.09 -152.14,0 -246.52,-71.63 -283.74,-215.54zm662.03 -2256.15l-664.31 642.17 -65.29 0 315.01 -642.17 414.59 0z"/>
     <path class="fil0" d="M731.33 5179.23l105.8 -571.8c57.15,-296.04 86.29,-463.41 88.02,-501.44 1.46,-32.33 -8.05,-60.22 -27.91,-83.68 -19.85,-23.45 -47.2,-35.5 -82.06,-35.5 -37.41,0 -71.86,19.02 -104.65,57.05 -32.76,37.4 -59.09,86.85 -78.97,147.71 -20.47,60.22 -59.5,249.77 -118.93,568 -58.8,318.24 -88.8,490.66 -89.98,516.65 -5.43,119.81 24.17,180.04 90.1,180.04 45.64,0 90.5,-24.72 133.28,-73.54 43.42,-48.81 71.86,-116.64 85.3,-203.49zm17.57 185.75c-90.84,143.89 -213.89,215.53 -369.84,215.53 -111.57,0 -204.73,-56.42 -279.53,-168.63 -74.76,-112.83 -108.41,-251.67 -100.93,-416.49 8.59,-189.55 54.18,-370.21 136.2,-543.28 81.98,-172.42 181.38,-309.35 298.21,-411.41 116.8,-101.44 242.72,-152.15 379.02,-152.15 59.58,0 108.17,19.02 146.35,57.69l126.7 -711.27 -159.76 0 14.38 -65.3 245.33 0c140.73,0 261.64,-10.14 361.48,-31.06l-387.88 2081.83c-9.28,36.77 -14.86,76.07 -16.7,116.64 -1.17,25.99 4.79,48.18 16.69,65.3 12.54,17.11 27.36,25.99 44.48,25.99 33.59,0 67.47,-20.29 102.25,-60.23 34.17,-40.57 63.32,-96.36 86.22,-167.99l65.3 0c-83.77,253.57 -224.54,380.36 -424.23,380.36 -152.14,0 -246.52,-71.64 -283.74,-215.53zm1332.48 -586.39c134.41,-42.47 238.05,-119.18 311.57,-230.76 72.89,-111.56 113.18,-245.32 120.25,-401.27 5.72,-126.15 -21.87,-188.91 -82.72,-188.91 -58.96,0 -112.34,31.06 -160.2,93.82 -47.19,62.13 -80,142.63 -98.37,240.26l-90.53 486.86zm28.76 805.72c-154.04,0 -283.57,-65.29 -389.86,-195.88 -105.65,-130.59 -154.74,-292.24 -146.06,-483.69 11.95,-263.71 108.83,-498.91 291.29,-706.2 181.79,-206.66 389.33,-309.99 621.99,-309.99 147.71,0 260.37,31.7 339.28,95.09 78.92,62.76 116.4,145.17 111.8,246.6 -13.31,293.51 -304.19,501.44 -871.43,624.42 -54.4,290.97 -82.01,452.63 -83.53,486.22 -2.42,53.26 8.97,95.73 34.16,127.42 25.19,31.7 60.6,47.55 106.25,47.55 278.92,0 477.38,-168.63 597.24,-505.24l60.86 0c-120.03,382.25 -344.25,573.7 -671.99,573.7zm1288.96 -3.8c-91.92,0 -168.52,-30.43 -229.76,-91.92 -61.87,-61.49 -90.44,-144.53 -85.67,-249.77 1.35,-29.8 5.38,-62.76 12.06,-98.26l357.7 -1905.59 -159.75 0 13.75 -65.3 243.42 0c141.37,0 261.64,-10.14 362.12,-31.06l-385.98 2081.83c-10.02,53.25 -15.57,91.92 -16.7,116.64 -1.17,25.99 4.15,48.18 15.42,65.3 11.91,17.11 26.09,25.99 43.84,25.99 34.23,0 69.38,-20.29 103.52,-60.23 34.8,-40.57 63.96,-96.36 86.86,-167.99l64.66 0c-84.4,253.57 -226.44,380.36 -425.49,380.36zm2222.55 -1398.45c4.69,-19.65 7.4,-37.4 8.15,-53.88 2.75,-60.86 -21.89,-90.65 -73.87,-90.65 -43.11,0 -93.47,34.23 -150.46,102.69 -57.02,69.1 -96.28,166.09 -117.88,292.88l-206.95 1125.22 -440.58 0 290.06 -1560.1 -159.74 0 14.28 -63.39 244.7 0c141.36,0 261.63,-10.14 362.11,-31.06l-44.46 239.62c124.45,-172.43 260.22,-258.64 407.29,-258.64 81.78,0 151,25.35 207.04,75.43 56.69,50.08 88.52,117.28 96.1,201.6 131.98,-184.48 273.1,-277.03 422.71,-277.03 94.46,0 169.75,31.06 226.58,91.92 56.81,61.49 82.41,140.1 78.09,235.19 -1.06,23.45 -63.2,359.43 -186.45,1008.58 -9.27,36.77 -14.86,76.07 -16.7,116.64 -1.17,25.99 4.16,48.18 16.7,65.3 11.9,17.11 26.71,25.99 44.46,25.99 32.97,0 67.48,-20.29 101.63,-60.23 34.79,-40.57 63.95,-96.36 86.86,-167.99l64.65 0c-83.13,253.57 -224.54,380.36 -423.59,380.36 -93.18,0 -169.78,-30.43 -231.02,-91.92 -60.6,-61.49 -89.18,-144.53 -84.41,-249.77 1.41,-31.06 65.55,-382.9 191.18,-1056.76 4.69,-19.65 7.4,-37.4 8.15,-53.88 2.75,-60.86 -21.88,-90.65 -73.87,-90.65 -43.73,0 -93.47,34.23 -149.82,102.69 -56.39,69.1 -95.01,166.09 -117.24,292.88l-208.86 1125.22 -439.94 0 255.1 -1376.26zm1391.67 722.68c11.7,-258.01 105.32,-491.3 281.55,-701.12 176.24,-209.84 367.38,-315.07 574.05,-315.07 152.78,0 282.31,65.3 388.59,195.88 106.92,130.59 155.98,292.88 147.25,485.6 -11.7,258.01 -105.95,491.29 -282.79,700.49 -176.21,209.19 -367.33,313.79 -572.73,313.79 -154.04,0 -283.57,-65.29 -389.85,-195.88 -105.65,-130.59 -154.75,-292.24 -146.07,-483.69zm963.38 -639c10.71,-54.52 17.16,-98.89 18.74,-133.76 2.41,-53.25 -8.34,-95.72 -32.26,-127.42 -23.92,-31.7 -57.46,-46.91 -100.57,-46.91 -60.86,0 -114.97,32.97 -161.75,100.16 -46.76,66.57 -80.23,161.65 -100.36,284 -19.49,122.35 -53.76,304.92 -101.45,545.81 -48.35,241.53 -73.57,392.4 -76.33,453.26 -2.47,54.52 8.26,97.63 32.24,128.06 23.94,31.06 57.45,46.91 100.57,46.91 58.32,0 109.81,-31.07 155.04,-91.92 44.62,-61.49 76.83,-142.63 96.58,-242.8l169.55 -915.39zm1570.87 -83.68c4.69,-19.65 7.4,-37.4 8.15,-53.88 2.75,-60.86 -21.89,-90.65 -73.87,-90.65 -43.11,0 -93.47,34.23 -150.46,102.69 -57.02,69.1 -96.28,166.09 -117.88,292.88l-206.95 1125.22 -440.58 0 290.06 -1560.1 -159.74 0 14.28 -63.39 244.7 0c141.36,0 261.63,-10.14 362.11,-31.06l-44.46 239.62c124.45,-172.43 260.22,-258.64 407.29,-258.64 81.78,0 151,25.35 207.04,75.43 56.69,50.08 88.52,117.28 96.1,201.6 131.98,-184.48 273.1,-277.03 422.71,-277.03 94.46,0 169.75,31.06 226.58,91.92 56.81,61.49 82.41,140.1 78.09,235.19 -1.06,23.45 -63.2,359.43 -186.45,1008.58 -9.27,36.77 -14.86,76.07 -16.7,116.64 -1.17,25.99 4.16,48.18 16.7,65.3 11.9,17.11 26.71,25.99 44.46,25.99 32.97,0 67.48,-20.29 101.63,-60.23 34.79,-40.57 63.95,-96.36 86.86,-167.99l64.65 0c-83.13,253.57 -224.54,380.36 -423.59,380.36 -93.18,0 -169.78,-30.43 -231.02,-91.92 -60.6,-61.49 -89.18,-144.53 -84.41,-249.77 1.42,-31.06 65.55,-382.9 191.18,-1056.76 4.69,-19.65 7.4,-37.4 8.15,-53.88 2.75,-60.86 -21.88,-90.65 -73.87,-90.65 -43.73,0 -93.47,34.23 -149.82,102.69 -56.39,69.1 -95.01,166.09 -117.24,292.88l-208.86 1125.22 -439.94 0 255.1 -1376.26zm1898.83 596.53c134.41,-42.47 238.06,-119.18 311.58,-230.76 72.89,-111.56 113.18,-245.32 120.25,-401.27 5.72,-126.15 -21.87,-188.91 -82.73,-188.91 -58.95,0 -112.34,31.06 -160.19,93.82 -47.2,62.13 -80,142.63 -98.37,240.26l-90.54 486.86zm28.76 805.72c-154.04,0 -283.57,-65.29 -389.85,-195.88 -105.65,-130.59 -154.75,-292.24 -146.07,-483.69 11.96,-263.71 108.83,-498.91 291.3,-706.2 181.79,-206.66 389.33,-309.99 621.99,-309.99 147.7,0 260.37,31.7 339.28,95.09 78.92,62.76 116.4,145.17 111.8,246.6 -13.31,293.51 -304.19,501.44 -871.43,624.42 -54.4,290.97 -82.01,452.63 -83.54,486.22 -2.41,53.26 8.97,95.73 34.16,127.42 25.19,31.7 60.61,47.55 106.25,47.55 278.93,0 477.39,-168.63 597.25,-505.24l60.85 0c-120.02,382.25 -344.24,573.7 -671.99,573.7zm1617.82 -1440.92c125.09,-172.43 264.66,-258.64 418.07,-258.64 94.46,0 169.75,31.06 226.58,91.92 56.81,61.49 82.41,140.1 78.09,235.19 -1.06,23.45 -63.19,359.43 -186.45,1008.58 -9.27,36.77 -14.85,76.07 -16.69,116.64 -1.17,25.99 4.15,48.18 16.69,65.3 11.9,17.11 26.72,25.99 44.47,25.99 32.96,0 67.48,-20.29 101.62,-60.23 34.8,-40.57 63.95,-96.36 86.86,-167.99l64.66 0c-83.13,253.57 -224.54,380.36 -423.6,380.36 -93.18,0 -169.78,-30.43 -231.02,-91.92 -60.6,-61.49 -89.17,-144.53 -84.4,-249.77 1.41,-31.06 65.54,-382.9 191.17,-1056.76 4.7,-19.65 7.4,-37.4 8.15,-53.88 2.75,-60.86 -21.88,-90.65 -73.86,-90.65 -43.74,0 -95.38,34.23 -156.23,103.96 -60.82,69.09 -102.01,166.72 -123.61,293.51l-206.86 1123.32 -440.58 0 290.06 -1560.1 -159.75 0 14.29 -63.39 244.69 0c141.36,0 261.64,-10.14 362.11,-31.06l-44.46 239.62zm1333.3 1437.12c-92.55,0 -169.77,-30.43 -230.39,-91.92 -61.24,-61.49 -89.17,-144.53 -84.4,-249.77 1.35,-29.8 76.1,-448.18 224.26,-1255.18l-195.24 0 14.36 -65.3 190.81 0 71.07 -379.09 454.8 -76.06 -85.28 455.15 194.61 0 -13.74 65.3 -191.44 0 -227.23 1236.8c-8.64,36.77 -14.22,76.07 -16.06,116.64 -1.18,25.99 4.15,48.18 16.68,65.3 11.91,17.11 26.73,25.99 43.84,25.99 33.6,0 67.48,-20.29 102.26,-60.23 34.79,-40.57 63.31,-96.36 86.85,-167.99l64.67 0c-83.14,253.57 -223.28,380.36 -420.43,380.36zm604.97 -675.77c11.7,-258.01 105.32,-491.3 281.55,-701.12 176.24,-209.84 367.38,-315.07 574.05,-315.07 152.78,0 282.3,65.3 388.59,195.88 106.92,130.59 155.98,292.88 147.25,485.6 -11.7,258.01 -105.95,491.29 -282.79,700.49 -176.21,209.19 -367.33,313.79 -572.73,313.79 -154.04,0 -283.57,-65.29 -389.86,-195.88 -105.64,-130.59 -154.74,-292.24 -146.06,-483.69zm963.38 -639c10.71,-54.52 17.16,-98.89 18.74,-133.76 2.41,-53.25 -8.34,-95.72 -32.26,-127.42 -23.92,-31.7 -57.46,-46.91 -100.57,-46.91 -60.86,0 -114.97,32.97 -161.75,100.16 -46.76,66.57 -80.23,161.65 -100.36,284 -19.49,122.35 -53.76,304.92 -101.45,545.81 -48.35,241.53 -73.57,392.4 -76.33,453.26 -2.47,54.52 8.26,97.63 32.24,128.06 23.94,31.06 57.45,46.91 100.57,46.91 58.32,0 109.81,-31.07 155.04,-91.92 44.62,-61.49 76.83,-142.63 96.58,-242.8l169.55 -915.39z"/>
     <path class="fil0" d="M7479.75 6797.05l-74.19 0c68.48,-323.32 248.66,-484.35 539.71,-484.35 121.48,0 268.22,50.72 439.43,152.15 118.21,71.64 212.78,107.78 284.52,107.78 127.19,0 218.5,-86.86 272.3,-259.93l74.19 0c-19.56,159.76 -82.34,280.85 -189.14,363.9 -105.99,83.04 -230.72,124.25 -372.58,124.25 -114.13,0 -255.17,-49.45 -422.31,-148.34 -70.11,-43.75 -123.91,-73.54 -162.23,-90.03 -38.32,-17.12 -81.53,-25.35 -129.63,-25.35 -107.62,0 -188.32,71 -240.51,213.64 -6.51,17.12 -13.03,32.96 -19.56,46.28z"/>
    </g>
   </g>
   <g>
    <g>
     <path class="fil1" d="M3576.43 30.8l770.86 0c181.94,0 326.89,74.81 434.21,224.42 107.97,149.6 155.68,355.63 143.84,616.81 -18.79,414.58 -129.88,781.63 -332.62,1100.5 -203.36,318.87 -444.5,477.98 -722.8,477.98l-742.96 0 11.67 -61.49 171.16 0 427.27 -2293.56 -171.16 0 10.53 -64.66zm624.67 64.66l-427.11 2289.75 105.87 0c169.9,0 276.64,-117.27 320.9,-352.46l306.7 -1647.58c10.02,-53.25 15.46,-89.39 16.38,-109.67 5.44,-119.81 -54.6,-180.04 -179.48,-180.04l-143.26 0zm1142.34 2377.23c-91.92,0 -168.52,-30.42 -229.75,-91.91 -61.88,-61.5 -90.44,-144.54 -85.68,-249.77 1.53,-33.6 7.92,-76.7 19.21,-129.96l208.19 -1110.64 -159.74 0 14.28 -63.39 244.7 0c141.36,0 261.63,-10.14 362.11,-31.06l-245.43 1316.67c-9.27,36.77 -14.86,76.07 -16.69,116.64 -1.18,25.99 4.15,48.17 15.42,65.29 11.91,17.12 26.08,26 43.83,26 34.24,0 69.38,-20.29 103.52,-60.23 34.81,-40.57 63.97,-96.36 86.86,-167.99l64.67 0c-84.4,253.57 -226.45,380.35 -425.5,380.35zm-29.14 -2181.98c3.16,-69.73 29.89,-128.05 80.22,-175.6 50.34,-47.54 109.75,-71.63 177.58,-71.63 68.46,0 125.7,24.09 171.68,72.27 45.98,48.81 67.45,106.5 64.35,174.96 -3.07,67.83 -29.81,126.15 -80.18,174.33 -50.36,48.19 -109.77,72.27 -178.24,72.27 -67.83,0 -125.05,-24.08 -171.05,-72.27 -45.99,-48.18 -67.44,-106.5 -64.36,-174.33zm903.15 2185.79c-127.41,0 -231.24,-31.06 -311.44,-93.82 -80.2,-62.76 -118.19,-133.76 -114.54,-214.27 3.1,-68.46 24.05,-124.89 62.19,-169.26 38.78,-44.37 83.53,-66.56 134.24,-66.56 46.91,0 84.26,15.21 111.44,45 27.15,30.44 39.42,67.2 37.44,110.95 -2.9,64.02 -23.67,116.64 -61.62,156.58 -38.6,40.56 -58.04,64.02 -58.39,71.63 -0.83,18.38 18.5,39.3 58.67,62.13 39.54,22.81 94.17,34.23 163.9,34.23 61.49,0 119,-24.09 171.94,-72.91 52.92,-48.8 80.84,-105.23 83.72,-168.62 3.3,-72.9 -10.29,-136.93 -41.38,-192.08 -30.47,-55.15 -101.5,-124.25 -211.24,-206.66 -105.51,-77.98 -178.74,-154.68 -220.35,-229.48 -40.99,-74.81 -59.18,-162.92 -54.55,-264.99 6.32,-139.46 63.01,-257.37 170.08,-353.73 107.03,-95.72 228.4,-143.9 362.79,-143.9 132.49,0 238.91,29.79 319.31,88.12 80.37,58.95 119.05,128.68 115.4,209.19 -3.07,67.84 -24.01,124.25 -62.82,169.26 -38.15,44.38 -82.89,66.56 -133.61,66.56 -47.54,0 -84.26,-15.21 -111.41,-45.64 -27.15,-30.42 -39.43,-67.19 -37.47,-110.3 2.99,-65.93 23.7,-117.28 62.19,-155.32 39.1,-37.4 58.6,-62.12 59.09,-72.89 0.92,-20.29 -15.99,-38.68 -50.11,-55.16 -34.75,-16.48 -86.36,-24.72 -156.09,-24.72 -66.57,0 -122.67,20.92 -167.1,64.03 -44.4,42.47 -68.39,96.35 -71.29,160.38 -2.53,55.79 9.86,103.96 37.22,143.9 27.32,40.58 88.82,96.36 184.46,167.99 124.46,93.19 211.1,181.94 259.2,267.52 48.1,85.58 69.35,190.18 63.74,313.8 -6.58,145.17 -70.39,266.25 -190.16,363.24 -120.4,96.99 -254.47,145.8 -403.45,145.8zm1517.26 -1586.09l-232.73 1246.31c-42.47,223.77 -105.96,421.56 -190.39,592.09 -84.47,171.16 -178.47,301.11 -281.42,390.5 -102.91,88.75 -208.28,133.76 -316.05,133.76 -96.99,0 -175.03,-26.63 -234.1,-79.88 -59.71,-53.25 -87.79,-119.18 -84.25,-197.15 3.47,-76.71 27.27,-140.1 71.98,-189.54 44.08,-49.45 94.01,-74.18 149.81,-74.18 50.71,0 91.13,17.12 121.25,51.98 30.12,34.87 44.1,76.08 41.91,124.25 -1.92,42.47 -14.54,83.05 -37.27,122.99 -22.7,39.3 -44.25,67.2 -64.01,83.68 -20.37,15.85 -30.6,31.69 -31.34,48.17 -1.13,24.72 26.22,36.77 82,36.77 72.91,0 135.43,-36.77 186.94,-110.3 51.52,-73.54 80.12,-159.12 84.57,-257.38l2.73 -311.89c3.24,-71.63 31.11,-252.94 84.24,-543.91l196.68 -1066.27 -170.53 0 13.65 -63.39 167.36 0c47.71,-269.43 145.74,-474.18 293.42,-613.64 147.07,-139.47 294.1,-208.57 439.9,-208.57 97,0 174.34,27.89 232.06,83.04 58.32,55.79 85.68,123.62 82.09,202.86 -3.48,76.71 -27.25,139.47 -70.67,188.28 -44.04,48.81 -93.34,73.53 -149.13,73.53 -51.98,0 -93.04,-17.11 -121.92,-51.34 -29.55,-33.6 -43.52,-74.8 -41.31,-123.62 1.95,-43.1 14.6,-84.31 36.64,-122.98 22.07,-39.31 43.59,-66.56 63.99,-83.04 20.37,-15.85 31.26,-32.33 31.98,-48.18 0.54,-12.05 -7.81,-23.46 -24.53,-32.34 -17.32,-9.5 -34.87,-13.94 -53.25,-13.94 -70.37,0 -129.67,21.55 -177.87,64.02 -47.56,42.48 -72.6,91.29 -75.07,145.81 -1.73,38.03 1.01,89.39 8.23,154.04 6.87,58.32 9.87,103.97 8.35,137.56 -2.9,64.04 -14.28,147.08 -33.46,248.51l170.53 0 -13.65 63.39 -167.36 0zm883.15 180.03c99.59,-183.2 222.9,-274.48 368.7,-274.48 77.35,0 136.59,21.55 178.38,64.65 41.76,43.75 61.33,101.43 58,174.97 -3.48,76.71 -30.53,142 -80.54,196.51 -50.02,54.52 -110.84,81.78 -182.48,81.78 -51.35,0 -91.8,-16.48 -123.28,-49.44 -31.49,-32.34 -46.19,-71.63 -44.09,-117.91 3.59,-79.24 46.72,-149.61 128.77,-211.73 17.71,-13.31 27.03,-22.83 27.26,-27.9 0.83,-18.38 -13.32,-27.89 -41.85,-27.89 -57.69,0 -126.86,57.68 -207.54,173.06 -80.02,115.38 -135.27,257.38 -167.07,427.27l-179.05 971.18 -440.58 0 290.06 -1560.1 -159.74 0 14.28 -63.39 244.7 0c138.82,0 258.46,-10.14 358.3,-31.06l-49.84 274.48 7.61 0zm1386.43 1118.26c-121.21,184.47 -265.47,276.39 -434.09,276.39 -97.63,0 -174.28,-29.16 -229.3,-88.12 -54.38,-58.95 -80.01,-136.93 -75.59,-234.55 1.04,-22.82 77,-439.95 227.92,-1252.01l-159.74 0 13.65 -63.39 243.42 0c142.64,0 263.54,-10.14 363.38,-31.06l-234.54 1244.4c-17.39,90.01 -26.78,143.27 -27.5,159.12 -2.99,65.92 29.12,98.88 95.68,98.88 39.93,0 87.22,-36.12 142.5,-109.03 55.26,-72.27 91.33,-154.68 107.6,-247.86l212.17 -1114.45 439.94 0 -244.02 1285.61c-8.64,36.77 -14.22,76.07 -16.05,116.64 -1.18,25.99 4.15,48.17 15.42,65.29 11.9,17.12 26.71,26 45.1,26 33.6,0 67.48,-20.29 102.25,-60.23 34.81,-40.57 63.33,-96.36 86.86,-167.99l64.66 0c-83.12,253.57 -225.17,380.35 -425.49,380.35 -80.51,0 -151.03,-24.72 -210.27,-74.16 -59.89,-49.45 -94.1,-119.81 -103.96,-209.83zm1257.51 283.99c-92.55,0 -169.78,-30.42 -230.39,-91.91 -61.24,-61.5 -89.16,-144.54 -84.4,-249.77 1.36,-29.8 76.1,-448.19 224.26,-1255.18l-195.25 0 14.37 -65.3 190.81 0 71.07 -379.09 454.8 -76.06 -85.28 455.15 194.61 0 -13.74 65.3 -191.44 0 -227.23 1236.8c-8.64,36.77 -14.22,76.07 -16.06,116.64 -1.18,25.99 4.15,48.17 16.69,65.29 11.9,17.12 26.72,26 43.83,26 33.6,0 67.48,-20.29 102.26,-60.23 34.79,-40.57 63.32,-96.36 86.85,-167.99l64.67 0c-83.14,253.57 -223.28,380.35 -420.43,380.35zm1329.61 -397.46l105.81 -571.81c57.15,-296.05 86.29,-463.4 88.02,-501.44 1.46,-32.33 -8.05,-60.22 -27.91,-83.68 -19.85,-23.46 -47.2,-35.5 -82.06,-35.5 -37.41,0 -71.86,19.02 -104.65,57.05 -32.76,37.41 -59.1,86.85 -78.97,147.71 -20.48,60.22 -59.5,249.77 -118.94,568 -58.79,318.23 -88.76,490.03 -89.94,516.02 -5.47,120.45 24.13,180.67 90.06,180.67 45.64,0 90.51,-24.73 133.29,-73.53 43.42,-48.82 71.86,-116.65 85.29,-203.49zm17.58 185.73c-90.84,143.91 -213.89,215.54 -369.84,215.54 -111.57,0 -204.74,-56.42 -279.5,-169.26 -74.79,-112.2 -108.44,-251.04 -100.96,-415.85 8.59,-189.55 54.18,-370.22 136.14,-542.02 81.98,-172.43 181.38,-309.35 298.2,-411.41 116.85,-102.07 242.78,-153.41 379.08,-153.41 72.26,0 122.93,29.16 151.98,87.48l30.5 -57.69 406.99 0 -242.86 1302.09c-9.28,36.77 -14.86,76.07 -16.7,116.64 -1.18,25.99 4.82,47.55 16.69,65.29 12.54,17.12 27.35,26 44.47,26 33.59,0 67.48,-20.29 102.26,-60.23 34.17,-40.57 63.29,-95.72 86.16,-166.72l65.29 0c-83.73,252.94 -224.47,379.09 -424.16,379.09 -152.14,0 -246.52,-71.63 -283.74,-215.54zm662.03 -2256.15l-664.31 642.17 -65.29 0 315.01 -642.17 414.59 0z"/>
     <path class="fil1" d="M742.62 5118.54l105.8 -571.8c57.15,-296.04 86.29,-463.41 88.02,-501.44 1.46,-32.33 -8.05,-60.22 -27.91,-83.68 -19.85,-23.45 -47.2,-35.5 -82.06,-35.5 -37.41,0 -71.86,19.02 -104.65,57.05 -32.76,37.4 -59.09,86.85 -78.97,147.71 -20.47,60.22 -59.5,249.77 -118.93,568 -58.8,318.24 -88.8,490.66 -89.98,516.65 -5.43,119.81 24.17,180.04 90.1,180.04 45.64,0 90.5,-24.72 133.28,-73.54 43.42,-48.81 71.86,-116.64 85.3,-203.49zm17.57 185.75c-90.84,143.89 -213.89,215.53 -369.84,215.53 -111.57,0 -204.73,-56.42 -279.53,-168.63 -74.76,-112.83 -108.41,-251.67 -100.93,-416.49 8.59,-189.55 54.18,-370.21 136.2,-543.28 81.98,-172.42 181.38,-309.35 298.21,-411.41 116.8,-101.44 242.72,-152.15 379.02,-152.15 59.58,0 108.17,19.02 146.35,57.69l126.7 -711.27 -159.76 0 14.38 -65.3 245.33 0c140.73,0 261.64,-10.14 361.48,-31.06l-387.88 2081.83c-9.28,36.77 -14.86,76.07 -16.7,116.64 -1.17,25.99 4.79,48.18 16.69,65.3 12.54,17.11 27.36,25.99 44.48,25.99 33.59,0 67.47,-20.29 102.25,-60.23 34.17,-40.57 63.32,-96.36 86.22,-167.99l65.3 0c-83.77,253.57 -224.54,380.36 -424.23,380.36 -152.14,0 -246.52,-71.64 -283.74,-215.53zm1332.48 -586.39c134.41,-42.47 238.05,-119.18 311.57,-230.76 72.89,-111.56 113.18,-245.32 120.25,-401.27 5.72,-126.15 -21.87,-188.91 -82.72,-188.91 -58.96,0 -112.34,31.06 -160.2,93.82 -47.19,62.13 -80,142.63 -98.37,240.26l-90.53 486.86zm28.76 805.72c-154.04,0 -283.57,-65.29 -389.86,-195.88 -105.65,-130.59 -154.74,-292.24 -146.06,-483.69 11.95,-263.71 108.83,-498.91 291.29,-706.2 181.79,-206.66 389.33,-309.99 621.99,-309.99 147.71,0 260.37,31.7 339.28,95.09 78.92,62.76 116.4,145.17 111.8,246.6 -13.31,293.51 -304.19,501.44 -871.43,624.42 -54.4,290.97 -82.01,452.63 -83.53,486.22 -2.42,53.26 8.97,95.73 34.16,127.42 25.19,31.7 60.6,47.55 106.25,47.55 278.92,0 477.38,-168.63 597.24,-505.24l60.86 0c-120.03,382.25 -344.25,573.7 -671.99,573.7zm1288.96 -3.8c-91.92,0 -168.52,-30.43 -229.76,-91.92 -61.87,-61.49 -90.44,-144.53 -85.67,-249.77 1.35,-29.8 5.38,-62.76 12.06,-98.26l357.7 -1905.59 -159.75 0 13.75 -65.3 243.42 0c141.37,0 261.64,-10.14 362.12,-31.06l-385.98 2081.83c-10.02,53.25 -15.57,91.92 -16.7,116.64 -1.17,25.99 4.15,48.18 15.42,65.3 11.91,17.11 26.09,25.99 43.84,25.99 34.23,0 69.38,-20.29 103.52,-60.23 34.8,-40.57 63.96,-96.36 86.86,-167.99l64.66 0c-84.4,253.57 -226.44,380.36 -425.49,380.36zm2222.55 -1398.45c4.69,-19.65 7.4,-37.4 8.15,-53.88 2.75,-60.86 -21.89,-90.65 -73.87,-90.65 -43.11,0 -93.47,34.23 -150.46,102.69 -57.02,69.1 -96.28,166.09 -117.88,292.88l-206.95 1125.22 -440.58 0 290.06 -1560.1 -159.74 0 14.28 -63.39 244.7 0c141.36,0 261.63,-10.14 362.11,-31.06l-44.46 239.62c124.45,-172.43 260.22,-258.64 407.29,-258.64 81.78,0 151,25.35 207.04,75.43 56.69,50.08 88.52,117.28 96.1,201.6 131.98,-184.48 273.1,-277.03 422.71,-277.03 94.46,0 169.75,31.06 226.58,91.92 56.81,61.49 82.41,140.1 78.09,235.19 -1.06,23.45 -63.2,359.43 -186.45,1008.58 -9.27,36.77 -14.86,76.07 -16.7,116.64 -1.17,25.99 4.16,48.18 16.7,65.3 11.9,17.11 26.71,25.99 44.46,25.99 32.97,0 67.48,-20.29 101.63,-60.23 34.79,-40.57 63.95,-96.36 86.86,-167.99l64.65 0c-83.13,253.57 -224.54,380.36 -423.59,380.36 -93.18,0 -169.78,-30.43 -231.02,-91.92 -60.6,-61.49 -89.18,-144.53 -84.41,-249.77 1.41,-31.06 65.55,-382.9 191.18,-1056.76 4.69,-19.65 7.4,-37.4 8.15,-53.88 2.75,-60.86 -21.88,-90.65 -73.87,-90.65 -43.73,0 -93.47,34.23 -149.82,102.69 -56.39,69.1 -95.01,166.09 -117.24,292.88l-208.86 1125.22 -439.94 0 255.1 -1376.26zm1391.67 722.68c11.7,-258.01 105.32,-491.3 281.55,-701.12 176.24,-209.84 367.38,-315.07 574.05,-315.07 152.78,0 282.31,65.3 388.59,195.88 106.92,130.59 155.98,292.88 147.25,485.6 -11.7,258.01 -105.95,491.29 -282.79,700.49 -176.21,209.19 -367.33,313.79 -572.73,313.79 -154.04,0 -283.57,-65.29 -389.85,-195.88 -105.65,-130.59 -154.75,-292.24 -146.07,-483.69zm963.38 -639c10.71,-54.52 17.16,-98.89 18.74,-133.76 2.41,-53.25 -8.34,-95.72 -32.26,-127.42 -23.92,-31.7 -57.46,-46.91 -100.57,-46.91 -60.86,0 -114.97,32.97 -161.75,100.16 -46.76,66.57 -80.23,161.65 -100.36,284 -19.49,122.35 -53.76,304.92 -101.45,545.81 -48.35,241.53 -73.57,392.4 -76.33,453.26 -2.47,54.52 8.26,97.63 32.24,128.06 23.94,31.06 57.45,46.91 100.57,46.91 58.32,0 109.81,-31.07 155.04,-91.92 44.62,-61.49 76.83,-142.63 96.58,-242.8l169.55 -915.39zm1570.87 -83.68c4.69,-19.65 7.4,-37.4 8.15,-53.88 2.75,-60.86 -21.89,-90.65 -73.87,-90.65 -43.11,0 -93.47,34.23 -150.46,102.69 -57.02,69.1 -96.28,166.09 -117.88,292.88l-206.95 1125.22 -440.58 0 290.06 -1560.1 -159.74 0 14.28 -63.39 244.7 0c141.36,0 261.63,-10.14 362.11,-31.06l-44.46 239.62c124.45,-172.43 260.22,-258.64 407.29,-258.64 81.78,0 151,25.35 207.04,75.43 56.69,50.08 88.52,117.28 96.1,201.6 131.98,-184.48 273.1,-277.03 422.71,-277.03 94.46,0 169.75,31.06 226.58,91.92 56.81,61.49 82.41,140.1 78.09,235.19 -1.06,23.45 -63.2,359.43 -186.45,1008.58 -9.27,36.77 -14.86,76.07 -16.7,116.64 -1.17,25.99 4.16,48.18 16.7,65.3 11.9,17.11 26.71,25.99 44.46,25.99 32.97,0 67.48,-20.29 101.63,-60.23 34.79,-40.57 63.95,-96.36 86.86,-167.99l64.65 0c-83.13,253.57 -224.54,380.36 -423.59,380.36 -93.18,0 -169.78,-30.43 -231.02,-91.92 -60.6,-61.49 -89.18,-144.53 -84.41,-249.77 1.42,-31.06 65.55,-382.9 191.18,-1056.76 4.69,-19.65 7.4,-37.4 8.15,-53.88 2.75,-60.86 -21.88,-90.65 -73.87,-90.65 -43.73,0 -93.47,34.23 -149.82,102.69 -56.39,69.1 -95.01,166.09 -117.24,292.88l-208.86 1125.22 -439.94 0 255.1 -1376.26zm1898.83 596.53c134.41,-42.47 238.06,-119.18 311.58,-230.76 72.89,-111.56 113.18,-245.32 120.25,-401.27 5.72,-126.15 -21.87,-188.91 -82.73,-188.91 -58.95,0 -112.34,31.06 -160.19,93.82 -47.2,62.13 -80,142.63 -98.37,240.26l-90.54 486.86zm28.76 805.72c-154.04,0 -283.57,-65.29 -389.85,-195.88 -105.65,-130.59 -154.75,-292.24 -146.07,-483.69 11.96,-263.71 108.83,-498.91 291.3,-706.2 181.79,-206.66 389.33,-309.99 621.99,-309.99 147.7,0 260.37,31.7 339.28,95.09 78.92,62.76 116.4,145.17 111.8,246.6 -13.31,293.51 -304.19,501.44 -871.43,624.42 -54.4,290.97 -82.01,452.63 -83.54,486.22 -2.41,53.26 8.97,95.73 34.16,127.42 25.19,31.7 60.61,47.55 106.25,47.55 278.93,0 477.39,-168.63 597.25,-505.24l60.85 0c-120.02,382.25 -344.24,573.7 -671.99,573.7zm1617.82 -1440.92c125.09,-172.43 264.66,-258.64 418.07,-258.64 94.46,0 169.75,31.06 226.58,91.92 56.81,61.49 82.41,140.1 78.09,235.19 -1.06,23.45 -63.19,359.43 -186.45,1008.58 -9.27,36.77 -14.85,76.07 -16.69,116.64 -1.17,25.99 4.15,48.18 16.69,65.3 11.9,17.11 26.72,25.99 44.47,25.99 32.96,0 67.48,-20.29 101.62,-60.23 34.8,-40.57 63.95,-96.36 86.86,-167.99l64.66 0c-83.13,253.57 -224.54,380.36 -423.6,380.36 -93.18,0 -169.78,-30.43 -231.02,-91.92 -60.6,-61.49 -89.17,-144.53 -84.4,-249.77 1.41,-31.06 65.54,-382.9 191.17,-1056.76 4.7,-19.65 7.4,-37.4 8.15,-53.88 2.75,-60.86 -21.88,-90.65 -73.86,-90.65 -43.74,0 -95.38,34.23 -156.23,103.96 -60.82,69.09 -102.01,166.72 -123.61,293.51l-206.86 1123.32 -440.58 0 290.06 -1560.1 -159.75 0 14.29 -63.39 244.69 0c141.36,0 261.64,-10.14 362.11,-31.06l-44.46 239.62zm1333.3 1437.12c-92.55,0 -169.77,-30.43 -230.39,-91.92 -61.24,-61.49 -89.17,-144.53 -84.4,-249.77 1.35,-29.8 76.1,-448.18 224.26,-1255.18l-195.24 0 14.36 -65.3 190.81 0 71.07 -379.09 454.8 -76.06 -85.28 455.15 194.61 0 -13.74 65.3 -191.44 0 -227.23 1236.8c-8.64,36.77 -14.22,76.07 -16.06,116.64 -1.18,25.99 4.15,48.18 16.68,65.3 11.91,17.11 26.73,25.99 43.84,25.99 33.6,0 67.48,-20.29 102.26,-60.23 34.79,-40.57 63.31,-96.36 86.85,-167.99l64.67 0c-83.14,253.57 -223.28,380.36 -420.43,380.36zm604.97 -675.77c11.7,-258.01 105.32,-491.3 281.55,-701.12 176.24,-209.84 367.38,-315.07 574.05,-315.07 152.78,0 282.3,65.3 388.59,195.88 106.92,130.59 155.98,292.88 147.25,485.6 -11.7,258.01 -105.95,491.29 -282.79,700.49 -176.21,209.19 -367.33,313.79 -572.73,313.79 -154.04,0 -283.57,-65.29 -389.86,-195.88 -105.64,-130.59 -154.74,-292.24 -146.06,-483.69zm963.38 -639c10.71,-54.52 17.16,-98.89 18.74,-133.76 2.41,-53.25 -8.34,-95.72 -32.26,-127.42 -23.92,-31.7 -57.46,-46.91 -100.57,-46.91 -60.86,0 -114.97,32.97 -161.75,100.16 -46.76,66.57 -80.23,161.65 -100.36,284 -19.49,122.35 -53.76,304.92 -101.45,545.81 -48.35,241.53 -73.57,392.4 -76.33,453.26 -2.47,54.52 8.26,97.63 32.24,128.06 23.94,31.06 57.45,46.91 100.57,46.91 58.32,0 109.81,-31.07 155.04,-91.92 44.62,-61.49 76.83,-142.63 96.58,-242.8l169.55 -915.39z"/>
     <path class="fil1" d="M7491.04 6736.36l-74.19 0c68.48,-323.32 248.66,-484.35 539.71,-484.35 121.48,0 268.22,50.72 439.43,152.15 118.21,71.64 212.78,107.78 284.52,107.78 127.19,0 218.5,-86.86 272.3,-259.93l74.19 0c-19.56,159.76 -82.34,280.85 -189.14,363.9 -105.99,83.04 -230.72,124.25 -372.58,124.25 -114.13,0 -255.17,-49.45 -422.31,-148.34 -70.11,-43.75 -123.91,-73.54 -162.23,-90.03 -38.32,-17.12 -81.53,-25.35 -129.63,-25.35 -107.62,0 -188.32,71 -240.51,213.64 -6.51,17.12 -13.03,32.96 -19.56,46.28z"/>
    </g>
   </g>
  </g>
 </g>
</svg>
