<?xml version="1.0" encoding="UTF-8"?>
<!DOCTYPE svg PUBLIC "-//W3C//DTD SVG 1.1//EN" "http://www.w3.org/Graphics/SVG/1.1/DTD/svg11.dtd">
<!-- Creator: CorelDRAW 2020 (64-Bit) -->
<svg xmlns="http://www.w3.org/2000/svg" xml:space="preserve" width="18.462mm" height="18.462mm" version="1.1" style="shape-rendering:geometricPrecision; text-rendering:geometricPrecision; image-rendering:optimizeQuality; fill-rule:evenodd; clip-rule:evenodd"
viewBox="0 0 1846.2 1846.2"
 xmlns:xlink="http://www.w3.org/1999/xlink"
 xmlns:xodm="http://www.corel.com/coreldraw/odm/2003">
 <defs>
  <style type="text/css">
   <![CDATA[
    .fil0 {fill:#CC9933}
    .fil1 {fill:white;fill-rule:nonzero}
   ]]>
  </style>
 </defs>
 <g id="Capa_x0020_1">
  <metadata id="CorelCorpID_0Corel-Layer"/>
  <g id="_2154578233552">
   <circle class="fil0" cx="914.87" cy="931.33" r="923.1"/>
   <path class="fil1" d="M914.98 666.1c-146.58,-0.46 -265.7,118.19 -266.16,264.78 -0.46,146.58 118.19,265.7 264.78,266.16 146.58,0.46 265.7,-118.19 266.16,-264.78 0.46,-146.59 -118.19,-265.7 -264.78,-266.16zm-1.38 93.26c95.1,-0.46 172.44,76.41 172.9,171.52 0.46,95.1 -76.41,172.43 -171.52,172.9 -95.11,0.46 -172.44,-76.41 -172.9,-171.52 -0.46,-95.11 76.41,-172.44 171.52,-172.9zm215.6 -104.11c0,-34.17 27.7,-61.87 61.87,-61.87 34.16,0 61.86,27.7 61.86,61.87 0,34.16 -27.7,61.86 -61.86,61.86 -34.17,0 -61.87,-27.7 -61.87,-61.86zm299.41 62.79c-3.93,-82.88 -22.86,-156.28 -83.57,-216.76 -60.48,-60.49 -133.89,-79.41 -216.76,-83.57 -85.41,-4.85 -341.42,-4.85 -426.83,0 -82.64,3.92 -156.05,22.85 -216.76,83.33 -60.71,60.49 -79.41,133.89 -83.57,216.77 -4.84,85.41 -4.84,341.41 0,426.83 3.93,82.87 22.86,156.28 83.57,216.76 60.71,60.48 133.89,79.41 216.76,83.56 85.41,4.85 341.42,4.85 426.83,0 82.87,-3.92 156.28,-22.85 216.76,-83.56 60.48,-60.48 79.41,-133.89 83.57,-216.76 4.84,-85.42 4.84,-341.19 0,-426.6zm-110.35 518.24c-18,45.25 -52.86,80.1 -98.34,98.34 -68.09,27.01 -229.68,20.78 -304.94,20.78 -75.25,0 -237.08,6 -304.94,-20.78 -45.25,-18.01 -80.11,-52.86 -98.34,-98.34 -27.01,-68.1 -20.78,-229.69 -20.78,-304.94 0,-75.26 -6,-237.08 20.78,-304.95 18,-45.24 52.86,-80.1 98.34,-98.34 68.1,-27.01 229.69,-20.77 304.94,-20.77 75.26,0 237.08,-6 304.94,20.77 45.25,18.01 80.11,52.87 98.34,98.34 27.01,68.1 20.78,229.69 20.78,304.95 0,75.25 6.23,237.07 -20.78,304.94z"/>
  </g>
 </g>
</svg>
