<?xml version="1.0" encoding="UTF-8"?>
<!DOCTYPE svg PUBLIC "-//W3C//DTD SVG 1.1//EN" "http://www.w3.org/Graphics/SVG/1.1/DTD/svg11.dtd">
<!-- Creator: CorelDRAW 2020 (64-Bit) -->
<svg xmlns="http://www.w3.org/2000/svg" xml:space="preserve" width="18.462mm" height="18.462mm" version="1.1" style="shape-rendering:geometricPrecision; text-rendering:geometricPrecision; image-rendering:optimizeQuality; fill-rule:evenodd; clip-rule:evenodd"
viewBox="0 0 1846.2 1846.2"
 xmlns:xlink="http://www.w3.org/1999/xlink"
 xmlns:xodm="http://www.corel.com/coreldraw/odm/2003">
 <defs>
  <style type="text/css">
   <![CDATA[
    .fil0 {fill:#CC9933}
    .fil1 {fill:white;fill-rule:nonzero}
   ]]>
  </style>
 </defs>
 <g id="Capa_x0020_1">
  <metadata id="CorelCorpID_0Corel-Layer"/>
  <g id="_2153718774112">
   <circle class="fil0" cx="914.87" cy="931.33" r="923.1"/>
   <path class="fil1" d="M682.48 1352.15l-174.52 0 0 -561.9 174.52 0 0 561.9zm-87.36 -638.55c-55.79,0 -101.07,-46.21 -101.07,-102.01 0,-26.86 10.71,-52.41 29.69,-71.39 18.97,-18.97 44.71,-29.68 71.38,-29.68 26.68,0 52.42,10.71 71.39,29.68 18.98,18.98 29.68,44.72 29.68,71.39 0,55.8 -45.27,102.01 -101.07,102.01zm740.38 638.55l-174.15 0 0 -273.53c0,-65.19 -1.32,-148.79 -90.74,-148.79 -90.74,0 -104.64,70.83 -104.64,144.1l0 278.22 -174.34 0 0 -561.9 167.39 0 0 76.65 2.44 0c23.29,-44.15 80.22,-90.74 165.13,-90.74 176.59,0 209.09,116.29 209.09,267.33l0 308.66 -0.18 0z"/>
  </g>
 </g>
</svg>
