<?xml version="1.0" encoding="UTF-8"?>
<!DOCTYPE svg PUBLIC "-//W3C//DTD SVG 1.1//EN" "http://www.w3.org/Graphics/SVG/1.1/DTD/svg11.dtd">
<!-- Creator: CorelDRAW 2020 (64-Bit) -->
<svg xmlns="http://www.w3.org/2000/svg" xml:space="preserve" width="51.675mm" height="33.896mm" version="1.1" style="shape-rendering:geometricPrecision; text-rendering:geometricPrecision; image-rendering:optimizeQuality; fill-rule:evenodd; clip-rule:evenodd"
viewBox="0 0 5167.5 3389.6"
 xmlns:xlink="http://www.w3.org/1999/xlink"
 xmlns:xodm="http://www.corel.com/coreldraw/odm/2003">
 <defs>
  <style type="text/css">
   <![CDATA[
    .fil0 {fill:#453D2D}
    .fil1 {fill:#CC9933;fill-rule:nonzero}
   ]]>
  </style>
 </defs>
 <g id="Capa_x0020_1">
  <metadata id="CorelCorpID_0Corel-Layer"/>
  <g id="_2154578251456">
   <path class="fil0" d="M5153.27 2695.48c12.92,213.56 -58.37,403.24 -222.08,544.21 -120.28,103.57 -265.39,157.17 -423.96,156.89 -227.2,-0.41 -454.43,-5.37 -681.6,-2.31 -224.93,3.07 -449.73,-3.12 -674.6,-5.46 -101.36,-1.08 -202.75,1.8 -304.05,4.86 -204.81,6.22 -409.4,-3.5 -614.14,-0.25 -320.1,5.09 -640.2,-1.17 -960.33,-2.12 -159.35,-0.47 -318.67,2.72 -478.03,-0.6 -119.02,-2.46 -203.54,13.55 -326.13,-20.72 -299.5,-83.77 -486.09,-360.91 -474.94,-667.52 5.85,-160.58 10.11,-321.42 6,-482.07 -9.16,-356.96 6.16,-714.02 -3.63,-1070.85 -5.08,-185.38 -1.96,-371.05 8.59,-556.21 6.54,-114.88 47.7,-228.46 118.2,-319.59 79.76,-103.07 178.47,-181.69 302,-226.13 150.48,-54.11 251.9,-33.32 401.78,-34.46 181.06,-1.36 362.08,-1.2 543.13,-1.08 152.47,0.1 296.54,-13.39 449.32,9.76 22.81,3.48 69.37,-4.42 92.71,-6.91 46.12,-4.87 91.25,-7.17 137.59,-3.35 181.59,14.97 365.71,7.07 546.54,1.48 20.6,-0.98 40.72,-0.28 60.18,1.99 47.41,-9.79 99.3,-10.07 154.39,-3.79 158.09,-1.83 316.37,8.09 474.27,3.76 341.74,-9.38 683.41,4.9 1025.08,-1.64 90.56,-1.71 169.37,-5.21 258.07,13.52 62,2.78 115.51,13.17 164.15,39.51 38.85,6.83 74.26,18.13 113.75,42.17 195.9,119.4 303.01,307.78 308.25,536.75 1.39,61.09 0.88,122.15 0.63,179.76 0.57,20.79 -0.66,41.06 -3.6,60.62 2.97,14.05 4.93,28.61 5.75,43.59 2.18,40.11 4.99,79.09 3.47,119.42 -10.61,285.36 -4.96,571.12 -4.58,856.63 0.16,129.03 2.09,257.53 -7.36,386.37 -7.74,105.44 3.41,216.62 7.58,315.71 2.88,30.2 1.99,59.82 -2.4,88.06z"/>
   <path class="fil1" d="M667.6 1970.73l0 -24.26 59.13 0 0 -445.85 -60.65 0 0 -22.77 419.44 0 4.42 143.31 -25.77 0.03c-12.16,-44.38 -28.34,-75.59 -48.55,-93.53 -20.22,-18.07 -49.53,-27.04 -88.06,-27.04l-75.72 0 0.38 202.44c1.8,0.26 3.92,0.38 6.48,0.51 2.65,0.12 6.03,0.25 10.58,0.25 26.28,0 46.4,-7.2 60.17,-21.48 13.9,-14.28 22.87,-37.14 27.04,-68.76l25.02 0.03 0 210.02 -25.02 0c-2.65,-34.11 -11.12,-58.5 -25.14,-73.31 -14.03,-14.79 -35.79,-22.24 -65.1,-22.24l-14.41 0 0 218.39 72.05 0 0 24.26 -256.29 0zm1142.26 -1234.63l115.3 0 0 9.29 -24.58 0 -0.03 328.88 9.85 0c16.21,0 29.85,-7.55 40.78,-22.68 10.93,-15.19 17.6,-36.58 19.87,-64.18l9.82 0 -1.64 96.14 -169.37 0 0 -9.25 23.5 -0.03 0 -328.88 -23.5 0 0 -9.29zm323.48 0l114.19 0 0 9.29 -24.58 0 -0.03 328.88 24.61 0 0 9.28 -114.19 0 0 -9.25 22.4 -0.03 0 -328.88 -22.4 0 0 -9.29zm113.62 -114.75l-78.65 92.36 -9.29 0 28.4 -92.36 59.54 0zm143.75 114.75l96.69 0 92.32 285.26 1.08 0 0.03 -252.5c0,-15.64 -7.64,-23.47 -22.93,-23.47l-9.86 0 0 -9.29 72.65 0 0 9.29 -9.82 0c-12,0 -18.04,4.8 -18.04,14.37l0 323.79 -60.45 0 -99.09 -302.66 -1.08 0 0 262.14c0,20.88 6.92,31.24 20.76,31.24l12.03 0 0 9.28 -68.29 0 0 -9.25c8.91,0 15.04,-1.67 18.38,-4.93 3.38,-3.28 5.12,-9.47 5.12,-18.57l0 -305.41 -29.53 0 0.03 -9.29zm385.2 0l177.01 0 0 83.58 -9.29 0c-7.29,-49.53 -26.25,-74.29 -56.82,-74.29l-20.22 0 0 149.15 11.94 0c12.01,0 21.48,-3.57 28.4,-10.58 7.01,-7.01 10.45,-16.55 10.49,-28.65l-0.04 -9.95 9.86 0 0 111.47 -9.86 0 0.04 -8.75c-0.04,-29.5 -12.32,-44.25 -36.8,-44.25l-14.03 0 0 170.44 17.41 0c31.96,0 53.16,-28.97 63.46,-86.86l8.74 0 0 96.14 -180.29 0 0 -9.28 23.5 0 0 -328.88 -23.5 0 0 -9.29zm427.55 -4.93l19.49 0 89.43 343.1 22.36 0.03 0 9.25 -111.98 0 0 -9.28 21.23 0 -22.96 -87.94 -65.48 0 -13.74 60.74c-0.73,2.81 -1.11,5.18 -1.11,7.27 0,13.3 6.57,19.93 19.78,19.93l9.28 0 0 9.28 -71 0 -0.04 -9.28 8.75 0c12.13,0 19.97,-7.99 23.41,-24.04l72.58 -319.06zm-17.4 121.04l-28.43 124.83 61.03 0 -31.49 -124.86 -1.11 0.03zm-2241.83 382.77c-5.46,-16.39 -10.26,-14.84 -14.46,-14.4 -8.75,0.95 -17.85,-7.11 -26.13,4.29 -0.66,0.95 -0.28,11.69 0.92,13.78 8.66,15.54 18.48,8.84 27.95,5.84 3.45,-1.08 6.7,-5.31 11.72,-9.51zm2364.48 0c5.5,-16.39 10.27,-14.84 14.47,-14.4 8.75,0.95 17.84,-7.11 26.15,4.29 0.66,0.95 0.25,11.69 -0.95,13.78 -8.65,15.54 -18.47,8.84 -27.95,5.84 -3.44,-1.08 -6.7,-5.31 -11.72,-9.51zm156.8 11.25c-16.49,-6.01 -46.56,13.39 -48.11,-15.36 -1.36,-25.07 27.7,-14.11 42.77,-14.11 17.09,0 46.97,-14.06 48.48,13.67 1.46,25.59 -28.23,9.35 -43.14,15.8zm7.07 984.96c-8.02,-4.86 -22.2,9.95 -21.82,-16.52 0.41,-28.77 15.35,-15.44 23.91,-16.96 7.89,-1.42 21.95,-9.45 21.44,15.86 -0.56,28.9 -15.92,9.69 -23.53,17.62zm-859.47 420.7c-8.37,9.45 -19.01,13.96 -32.34,13.93 -13.18,-0.06 -25.4,-6.57 -36.61,-19.71 -11.22,-13.23 -18.23,-29.63 -20.98,-49.08 -3.19,-22.4 -1.76,-43.81 4.05,-64.31 5.94,-20.47 14.62,-36.77 26.06,-48.96 11.56,-12.13 25.3,-18.17 41.34,-18.01 8.47,0.1 15.07,3.64 19.81,10.58 0.76,-2.24 1.55,-4.54 2.3,-6.82 15.92,0.16 31.87,0.44 47.83,0.95 0.09,34.33 0.22,67.15 0.22,99.94 0,32.82 0.09,65.64 0.22,99.94 0.09,42.7 -9.13,71.32 -51.8,70.69 -0.1,-29.72 -0.1,-59.45 -0.1,-89.14zm44.48 -210.46c-10.71,-0.31 -20.28,-3.98 -28.78,-11.34 -8.56,-7.23 -13.71,-16.93 -15.41,-29.18 -0.48,-3.48 -0.73,-7.3 -0.73,-11.41 0.03,-32.97 0.09,-65.98 0.13,-98.96 0.03,-32.97 0.09,-65.95 0.15,-98.93 -6.22,-0.06 -12.44,-0.09 -18.63,-0.12 0.03,-2.53 0.09,-5.06 0.16,-7.58 9.47,0.06 18.92,0.09 28.39,0.19 16.46,0.15 30.29,-0.86 41.54,-3.16 0.03,36.48 0.09,72.96 0.09,109.41 0.03,36.49 0.13,72.97 0.16,109.42 0,6.19 0.19,10.71 0.6,13.58 0.44,3.03 1.52,5.65 3.22,7.71 1.77,2.02 3.63,3.12 5.69,3.19 3.98,0.12 7.64,-2.12 10.74,-6.67 3.19,-4.61 5.37,-11.05 6.5,-19.39 2.5,0.09 5.03,0.16 7.55,0.28 -4.36,29.41 -18.16,43.66 -41.37,42.96zm-220.54 -259.92c24,-0.42 47.98,-0.83 71.98,-1.05 23.98,-0.19 47.98,-0.25 71.99,-0.19 0.03,11.28 0.09,22.62 0.13,33.86 0.03,11.25 0.12,22.56 0.15,33.83 -2.49,0 -5.02,0 -7.55,0 -5.68,-40.11 -21.1,-60.2 -46.21,-60.07 -5.4,0.03 -10.83,0.03 -16.26,0.09 0.03,18.16 0.09,36.36 0.09,54.49 0.03,18.13 0.1,36.29 0.16,54.42 3.22,-0.03 6.44,-0.06 9.66,-0.09 23.13,-0.16 33.71,-13.46 31.62,-39.87 2.53,0 5.09,0 7.61,0 -0.03,15.1 -0.06,30.2 -0.09,45.24 -0.03,15.06 -0.03,30.16 -0.06,45.26 -2.53,0 -5.06,0 -7.52,0 0.38,-8.18 0.38,-13.93 -0.1,-17.25 -2.4,-17.09 -12.35,-25.52 -29.88,-25.42 -3.82,0.03 -7.64,0.06 -11.46,0.12 -0.03,20.94 -0.03,41.95 -0.03,62.89 0,20.94 0,41.92 0,62.86 4.7,-0.13 9.41,-0.19 14.12,-0.22 12.95,-0.16 23.78,-6.07 32.4,-17.72 8.59,-11.69 15.1,-29.22 19.37,-52.56 2.36,0 4.7,0 7.1,0 -0.06,12.95 -0.09,25.9 -0.12,38.82 -0.04,12.92 -0.1,25.84 -0.1,38.75 -24.41,0.04 -48.8,0.1 -73.18,0.51 -24.39,0.44 -48.77,1.2 -73.16,2.02 -0.03,-2.53 -0.03,-5.05 -0.03,-7.64 6.32,-0.19 12.7,-0.41 19.05,-0.63 0,-40.56 0,-81.09 0,-121.64 0,-40.53 0,-81.09 0,-121.61 -6.51,0.12 -13.02,0.22 -19.49,0.34 -0.07,-2.49 -0.13,-5.02 -0.19,-7.54zm565.18 341.35c10.86,-18.92 25.49,-27.16 43.52,-24.79 11.12,1.48 20.66,6.63 28.72,15.03 8.02,8.47 12.72,18.38 14.27,29.82 0.22,1.52 0.32,12.1 0.32,31.87 0,19.8 0,48.77 -0.1,86.96 0,4.48 -0.12,8.91 0.54,13.77 0.44,3.16 1.55,5.91 3.41,8.24 1.77,2.21 3.76,3.57 5.85,3.89 3.82,0.6 7.45,-1.23 10.64,-5.53 3.19,-4.26 5.4,-10.49 6.51,-18.76 2.52,0.38 5.05,0.73 7.67,1.14 -4.26,29.21 -18.13,42.07 -41.53,38.63 -11,-1.61 -20.69,-6.67 -29.25,-15.2 -8.47,-8.27 -13.68,-18.73 -15.39,-31.36 -0.28,-1.87 -0.44,-13.17 -0.56,-33.96 -0.1,-20.72 -0.1,-50.95 -0.1,-90.65 0.1,-2.31 0.03,-4.42 -0.22,-6.41 -0.95,-7.3 -4.64,-11.25 -10.68,-12.04 -5.18,-0.69 -10.55,2.59 -16.17,10.11 -5.59,7.39 -8.34,18.54 -8.02,33.54 0,22.08 0,44.23 0,66.24 0,22.05 0.12,44.16 0.22,66.27 -17.25,-2.21 -34.53,-4.14 -51.77,-5.97 0,-5.69 0,-11.37 0,-17.09 -8.15,12.23 -21.01,17.41 -38.6,15.61 -10.9,-0.98 -20.56,-5.37 -29.15,-13.49 -5.5,-5.09 -9.54,-11.06 -12.2,-18.04 -7.7,16.49 -22.2,25.87 -42.32,24.48 -9.45,-0.66 -18.26,-4.23 -26.38,-10.58 -8.15,-6.38 -13.64,-15.16 -16.83,-26 -10.24,21.2 -25.18,31.37 -44.98,30.39 -11.53,-0.57 -21.23,-4.52 -28.9,-11.84 -7.71,-7.21 -12.42,-16.62 -14.09,-28.18 -0.19,-1.33 -0.54,-14.34 -0.54,-39.01 0,-24.67 -0.13,-61.06 -0.13,-109.1 -6.25,-0.16 -12.5,-0.35 -18.79,-0.57 0,-2.43 0.13,-4.96 0.22,-7.48 9.48,0.28 19.05,0.53 28.59,0.91 16.83,0.63 30.79,0.22 42.1,-1.67 -0.09,24.54 -0.22,49.08 -0.22,73.56 0,24.55 0,49.06 0,73.57 -0.09,10.61 -0.03,16.87 0.22,18.79 1.17,7.87 5.62,12.01 13.43,12.38 4.73,0.23 9.44,-3.82 14.4,-12.22 4.96,-8.24 7.36,-17.81 7.14,-28.9 0,-21.89 0.22,-43.87 0.22,-65.8 0,-21.89 0.22,-43.93 0.35,-65.82 17.24,1.2 34.52,2.4 51.77,3.66 -0.1,20.94 -0.32,41.89 -0.32,62.83 0,20.94 -0.12,41.91 -0.12,62.82 0,0 0,0 0,0 0,0.13 0,0.19 0,0.32 0,2.12 0,4.23 0,6.32 0,6.5 0,13.07 0,19.58 0,0.41 0,0.82 0,1.2 0,-6.92 0,-13.77 0,-20.75 -0.1,6.51 -0.1,13.04 -0.1,19.55 -0.13,2.53 -0.13,5.12 0.1,7.87 0,-1.46 0,-2.88 0,-4.3 0,6.19 0.44,13.83 4.39,18.23 6.28,6.72 15.06,3.31 19.67,-2.47 3.64,-4.39 6.07,-10.55 7.4,-18.6 -0.23,-3.26 -0.35,-7.05 -0.23,-11.41 0,-21.85 0,-43.74 0,-65.57 0,-21.83 0.1,-43.75 0.23,-65.61 -6.29,-0.56 -12.54,-1.13 -18.8,-1.7 0,-2.43 0.1,-4.96 0.22,-7.39 9.54,0.79 19.11,1.7 28.78,2.59 16.61,1.51 30.57,1.58 42.01,0.16 0,25.93 0,51.86 0,77.73 0,25.9 0,51.83 0,77.7 0,6.45 -0.32,16.49 4.29,21.99 6.26,6.92 15.17,3.79 19.81,-1.93 3.51,-4.29 6.03,-10.36 7.36,-18.38 -0.13,-23.76 -0.13,-47.51 -0.13,-71.23 0,-23.72 0,-47.44 0,-71.23 -6.25,-0.69 -12.54,-1.39 -18.79,-2.08 0,-2.47 0.09,-4.96 0.22,-7.49 9.57,1.11 19.14,2.15 28.81,3.22 16.71,1.87 30.57,2.34 42.01,1.39 0,9.45 0,18.86 0,28.24zm-903.7 -104.71c-0.09,20.03 -0.09,40.05 -0.09,59.95 0,19.93 0,39.93 0,59.86 5.94,-0.82 11.88,-1.61 17.91,-2.4 5.18,-0.66 9.7,-3.1 13.55,-7.23 3.73,-4.11 6.03,-8.47 7.01,-12.83 0.89,-4.48 1.45,-18.32 1.45,-41.63 0.1,-23.25 0.04,-35.82 -0.22,-37.49 -2.27,-15.32 -9.79,-22.21 -22.77,-20.47 -5.59,0.73 -11.21,1.52 -16.84,2.24zm-74.41 3.73c35.72,-5.53 71.44,-10.99 107.2,-15.73 16.49,-2.21 31.02,1.07 43.75,10.08 12.63,9.06 20.15,21.06 22.33,36.22 2.53,17.66 -1.2,34.34 -11.12,49.75 -9.98,15.51 -25.27,26.47 -45.96,33.3 0,0.34 0,0.69 0.13,1.01 15.92,-1.2 28.36,1.58 37.37,8.18 9.03,6.6 14.24,15.25 15.73,25.87 0.38,2.71 0.66,30.83 0.75,84.3 0,1.8 0.26,4.17 0.67,7.17 0.69,4.9 3.09,7.17 7.36,6.7 5.53,-0.6 8.9,-7.27 10.23,-19.96 2.75,0.34 5.5,0.66 8.37,1.01 -2.65,22.64 -15.6,35.25 -38.82,37.77 -10.77,1.17 -20.24,-1.58 -28.49,-8.02 -8.12,-6.47 -13.04,-15.7 -14.81,-27.61 -0.67,-4.23 -0.89,-33.04 -0.89,-86.35 0.1,-1.27 -0.03,-3.1 -0.35,-5.4 -1.76,-12.92 -9.79,-18.51 -23.97,-16.62 -5.05,0.66 -10.11,1.33 -15.07,1.99 0,23.75 0,47.51 0,71.23 0,23.75 0,47.47 0,71.23 6.73,-0.86 13.43,-1.71 20.16,-2.63 0,2.63 0.09,5.18 0.19,7.71 -31.56,4.17 -63.08,8.91 -94.67,13.58 0,-2.59 0,-5.14 0,-7.73 6.51,-0.92 13.11,-1.9 19.68,-2.88 0,-44.88 0,-89.86 0,-134.75 0,-44.91 0,-89.86 0,-134.81 -6.57,1.01 -13.17,2.02 -19.68,3 -0.09,-2.46 -0.09,-4.99 -0.09,-7.61zm299.72 97.63c0.1,-6.44 -0.09,-11.72 -0.66,-15.76 -0.86,-6.19 -3.1,-11.12 -6.6,-14.59 -3.54,-3.51 -7.81,-4.99 -12.86,-4.64 -7.14,0.5 -12.89,4.92 -16.84,13.23 -4.07,8.28 -5.93,19.65 -5.59,34.11 0.32,14.41 0.32,36.01 0,64.47 -0.34,28.59 0,46.37 0.98,53.48 0.89,6.38 3.07,11.24 6.6,14.53 3.51,3.35 7.81,4.83 12.86,4.48 6.92,-0.5 12.19,-4.51 16.27,-12 3.85,-7.55 5.84,-17.28 6.06,-29.15 -0.12,-18.04 -0.22,-36.01 -0.22,-54.05 0,-18.03 0,-36.07 0,-54.11zm-99.31 84.02c-4.26,-29.94 1.55,-58.12 17.72,-84.4 16.18,-26.31 36.39,-40.77 60.68,-42.73 17.91,-1.46 34.65,5.24 50.03,19.61 15.42,14.37 24.74,33.07 27.93,55.72 4.29,30.26 -1.65,58.18 -17.91,83.8 -16.05,25.84 -36.3,39.45 -60.49,41.32 -18.13,1.39 -34.72,-4.71 -50.13,-18.77 -15.29,-14.05 -24.61,-32.25 -27.83,-54.55zm225.18 65.01c-14.94,0.44 -27.92,-2.59 -38.69,-9.45 -10.87,-6.94 -16.87,-15 -18.26,-24.48 -1.13,-7.99 0.13,-14.75 3.64,-20.18 3.63,-5.4 8.37,-8.27 14.4,-8.59 5.5,-0.25 10.23,1.26 14.09,4.64 3.85,3.38 6.06,7.65 6.82,12.8 1.1,7.48 -0.25,13.8 -3.85,18.66 -3.64,5.03 -5.41,7.87 -5.28,8.75 0.29,2.18 3.06,4.52 8.24,6.98 5.15,2.44 11.88,3.57 20.13,3.32 7.13,-0.19 13.39,-3.25 18.57,-9.19 5.18,-5.94 7.23,-12.67 6.16,-20.09 -1.23,-8.59 -4.2,-16.14 -9.13,-22.49 -4.74,-6.38 -14.63,-14.28 -29.34,-23.56 -14.09,-8.53 -24.42,-17.09 -31.02,-25.59 -6.38,-8.56 -10.49,-18.76 -12.2,-30.76 -2.36,-16.34 1.74,-30.55 12.29,-42.46 10.46,-11.81 23.66,-18.29 39.49,-18.79 15.6,-0.54 28.8,2.62 39.57,9.22 10.68,6.64 16.84,14.69 18.13,24.17 1.14,8.02 -0.09,14.72 -3.72,20.15 -3.51,5.37 -8.25,8.15 -14.19,8.31 -5.59,0.15 -10.36,-1.49 -14.18,-4.96 -3.85,-3.51 -6.09,-7.77 -6.82,-12.83 -1.14,-7.8 0.22,-13.93 3.98,-18.51 3.73,-4.58 5.46,-7.48 5.27,-8.75 -0.37,-2.4 -2.65,-4.55 -7.04,-6.35 -4.52,-1.8 -10.77,-2.59 -18.92,-2.33 -7.8,0.25 -13.96,2.9 -18.26,8.21 -4.26,5.27 -6,11.69 -4.92,19.24 0.91,6.53 3.5,12.12 7.58,16.58 4.07,4.61 12.54,10.99 25.39,19.11 16.71,10.48 28.84,20.59 36.39,30.54 7.52,9.89 12.32,22.14 14.4,36.8 2.44,17.15 -2.52,31.49 -14.4,43.31 -12.1,11.84 -26.82,18.03 -44.32,18.57zm163.72 -49.88c-0.1,-22.55 -0.1,-45.07 -0.1,-67.62 0.22,-35.06 0,-54.84 -0.66,-59.35 -0.57,-3.83 -2.34,-7.14 -5.18,-9.95 -2.75,-2.78 -6.26,-4.27 -10.33,-4.3 -4.39,-0.03 -8.12,2.12 -11.09,6.6 -3.09,4.42 -5.05,10.2 -6.06,17.41 -1.11,7.13 -1.55,29.56 -1.55,67.21 0.13,37.65 0.35,58.06 0.79,61.12 1.99,14.22 6.82,21.39 14.5,21.45 5.4,0.06 10.11,-2.84 14.09,-8.59 4.07,-5.69 5.93,-13.71 5.59,-23.98zm322.15 -222.18c-20.56,21.99 -41.13,44.35 -61.56,66.75 -2.66,-0.23 -5.18,-0.48 -7.71,-0.73 7.39,-23.56 14.75,-47.13 22.11,-70.75 15.73,1.45 31.43,2.93 47.16,4.73zm1072.9 -2060.45l0.63 0.53c-56.54,10.27 -113.74,4.71 -170.6,7.27 -8.08,0.38 -17.46,-2.78 -24.35,-7.2 -10.04,-6.48 -14.12,-22.56 -28.52,-21.92 -25.21,1.13 2.11,21.6 -8.44,26.47 -9.03,4.13 -20.02,5.05 -30.22,5.3 -94.35,2.62 -188.67,6.1 -283.05,0.25 -22.74,-1.42 -38.7,-4.61 -37.21,-32.02 0.69,-12.8 -5.31,-20.09 -19.27,-17.79 -16.46,2.75 -13.42,13.93 -9.03,23.82 14.53,32.6 -11.63,24.23 -26.79,27.48 -45.74,9.82 -89.61,-8.18 -136.74,-5.81 -174.04,8.81 -348.78,2.18 -523.2,4.83 -41.91,0.63 -56.57,-15.04 -56.76,-52.78 -0.03,0 -0.57,0.54 -0.57,0.54l0.54 -0.54c-6.7,2.05 -17.78,2.3 -19.46,6.41 -17.72,43.72 -55.91,42.8 -92.67,43.08 -103.54,0.76 -207.08,-0.09 -310.66,0.89 -45.86,0.44 -88.57,-9.13 -132.69,-18.64 -48.68,-10.45 -115.23,-4.01 -171.83,13.3 -10.17,3.06 -21.01,6.6 -31.27,6 -220.79,-12.47 -441.43,2.53 -662.12,3.16 -172.53,0.51 -345.09,-4.93 -517.61,-4.96 -26.22,0 -36.67,-16.11 -52.78,-27.92 -5.44,26.63 -25.71,26.82 -47.45,30.76 -23.59,4.3 -47.53,-14.87 -66.04,-4.1 -80.86,46.94 -158.79,101.8 -201.34,186.45 -15.13,30.11 -19.33,74.49 -19.2,113.43 0.47,123.22 0.66,246.47 2.94,369.66 2.18,117.66 -6.7,235.41 -3.92,352.51 3.51,147.95 -6.73,295.9 2.84,443.72 1.42,22.87 17.88,54.81 -21.98,66.62 -8.15,2.43 -6.54,16.55 -3,18.51 51.07,27.42 21.89,72.27 23.15,109.16 7.49,217.79 -8.59,435.77 4.26,653.56 3.04,51.43 -2.65,102.31 3.23,154.46 14.68,129.6 165.67,253.23 293.28,245.62 41.53,-2.5 88.03,-10.93 128.33,18.13 15.77,11.37 18.7,-18.54 39.3,-18.67 87.56,-0.54 175.37,-2.3 262.04,7.8 35.73,4.2 70.12,-9.66 108.15,4.36 19.81,7.3 35.57,7.74 36.58,41.06 27.13,-51.17 74.96,-66.9 124.1,-45.45 17.09,7.42 25.46,5.06 41.89,-0.98 55.05,-20.21 113.17,-3.69 169.33,-1.64 47.07,1.74 92.93,-11.59 139.08,-4.83 80.29,11.78 160.68,7.8 241.04,5.08 349.85,-11.65 699.83,6 1049.78,-4.2 74.23,-2.11 149.15,3.25 223.69,-0.06 39.27,-1.74 75.4,-2.53 93.5,58.15 11.53,-45.71 30.61,-56.29 65.54,-55.72 170.48,2.65 341.01,2.27 511.48,0.6 214.29,-2.08 428.48,1.99 642.82,-1.23 146.72,-2.24 257.05,-84.69 300.04,-210.65 13.93,-40.94 8.34,-81.09 10.33,-121.67 0.73,-14.41 -0.91,-30.01 15.23,-36.8 16.52,-6.92 22.8,6.76 26.97,18.19 12.01,32.98 29.06,-9.35 41.22,2.84 8.18,134.09 -30.54,248.09 -134.71,337.76 -75.05,64.66 -161.7,95.87 -258.63,95.68 -228.5,-0.38 -456.94,-5.41 -685.5,-2.28 -222.78,3 -445.68,-3.16 -668.53,-5.49 -104.36,-1.08 -209.64,1.8 -314.32,4.99 -203.63,6.16 -406.96,-3.6 -610.5,-0.35 -318.46,5.05 -637.04,-1.23 -955.56,-2.15 -157.84,-0.5 -315.77,2.75 -473.51,-0.54 -87.63,-1.83 -175.06,13.27 -263.37,-11.46 -191.51,-53.51 -297.2,-229.48 -290.44,-414.96 6.03,-165.79 10.26,-331.97 6.06,-497.74 -9.19,-357.15 6.16,-714.17 -3.63,-1071.29 -4.9,-178.18 -1.86,-356.99 8.28,-534.92 3.5,-61.43 25.17,-126.82 65.76,-179.31 49.62,-64.09 109.13,-114.76 187.69,-143 104.8,-37.71 211.91,-18.76 318.17,-19.55 180.36,-1.39 360.69,-1.2 541.01,-1.07 137.47,0.09 277.14,-13.49 411.61,6.91 86.26,13.08 163.71,-15.16 247.45,-8.27 191.29,15.79 384.03,8.12 576.17,2.18 22.77,-0.7 48.86,-6.79 49.84,29.41 6.64,1.04 18.29,4.48 19.08,2.81 29.82,-64.25 87.65,-33.14 131.12,-33.77 162.26,-2.37 324.74,8.06 486.87,3.57 341.01,-9.35 681.89,4.96 1022.97,-1.58 68.86,-1.29 139.61,-6.7 210.77,10.3 35.22,8.43 72.18,-8.56 105.03,29.03 7.58,8.71 55.88,1.95 83.83,19.01 122.68,74.73 183.83,184.25 187.12,326.73 1.33,58.82 0.82,117.66 0.6,176.51 -0.06,16.96 4.36,34.52 -19.68,43.65 -52.62,19.93 -62.03,15.45 -62.51,-41.06 -0.38,-43.84 13.39,-86.64 17.69,-128.84 3.73,-36.52 0.09,-86.3 -13.01,-116.4 -30.3,-69.43 -65.01,-142.17 -135.35,-186.42 -52.78,-33.23 -109.04,-52.06 -170.85,-50.95 -158.88,2.81 -317.7,-10.17 -476.58,-0.82 -11.78,0.69 -25.59,3.82 -32.98,-10.74zm-111.66 1883c28.37,-19.02 58.5,-12.57 101.24,-15 -39.52,34.8 -71.1,17.31 -101.24,15zm374.56 -1.2c-22.46,11.15 -41.45,14.02 -60.4,2.34 -1.77,-1.08 0.79,-16.14 4.24,-17.53 20.31,-8.15 39.26,-6.48 56.16,15.19zm-3108.16 4.58c-37.46,1.52 -60.01,2.59 -82.63,3.28 -8.46,0.26 -18.51,1.3 -19.39,-11.11 -1.04,-14.47 9.28,-16.68 20.5,-17.57 24.38,-1.92 47.31,1.71 81.52,25.4zm480.21 -9.73c-46.71,18.23 -78.3,15.54 -121.13,6.1 44.88,-20.69 44.88,-20.69 121.13,-6.1zm-696.86 -13.45c15.04,5.59 41.73,-12.32 44.16,12.35 2.72,27.44 -25.43,16.99 -40.05,16.74 -16.87,-0.32 -46.72,12.6 -47.35,-14.94 -0.57,-23.06 28.49,-7.81 43.24,-14.15zm3151.17 0.34c15.55,7.58 44.6,-13.74 47.1,15.95 1.77,21.96 -24.45,14.57 -38.06,13.97 -17.44,-0.76 -46.66,12.91 -49.72,-12.67 -3.38,-27.73 26.69,-9.45 40.68,-17.25zm-898.63 9.89c-28.4,36.36 -61.31,7.55 -92.58,9.44 28.2,-26.5 61.62,-7.67 92.58,-9.44zm-1875.93 0.69c-40.84,22.18 -72.65,18.77 -114.54,5.44 40.47,-22.3 72.27,-18.77 114.54,-5.44zm360.59 -4.89c15.32,-2.02 25.87,-5.59 35.76,-4.2 21,3 45.67,-14.03 62.6,9.66 4.2,5.88 -1.42,16.71 -8.05,16.05 -29.13,-2.75 -64.66,19.2 -90.31,-21.51zm213.21 21.6c-15.7,-7.58 -45.01,14.25 -47.44,-15.51 -1.77,-21.89 24.82,-13.93 38.85,-13.83 18.22,0.22 48.74,-10.05 51.04,13.49 2.56,25.93 -27.86,8.15 -42.45,15.85zm1413.34 -28.58c17.03,7.93 45.01,-12.32 44.92,15.32 -0.1,22.3 -27.61,16.74 -44.22,15.89 -15.92,-0.79 -44.35,11.05 -44.73,-12.51 -0.47,-31.49 32.22,-5.88 44.03,-18.7zm-1310.18 14.27c19.74,-21.32 44.06,-8.11 65.61,-10.61 11.43,-1.33 29.18,-7.29 30.41,9.76 1.33,17.6 -15.85,23.82 -30.6,18.8 -21.07,-7.14 -46.78,2.36 -65.42,-17.95zm1576.74 1.11c31.15,-14.5 62.38,-20.56 94.03,-5.4 1.49,0.73 0.67,12.73 -1.39,13.58 -31.58,12.54 -62.47,7.77 -92.64,-8.18zm-568.59 16.55c-13.68,-2.46 -35.19,8.59 -37.3,-13.83 -2.59,-26.35 19.93,-17.69 32.53,-19.11 15.42,-1.68 38.95,-5.37 39.77,17.72 0.85,23.06 -22.81,10.33 -35,15.22zm-1535.55 -14.94c-5.59,12.1 -14.81,14.18 -23.31,13.24 -23.63,-2.66 -50.07,11.97 -70.57,-8.53 -7.92,-7.93 -0.91,-19.46 7.84,-20.15 29.72,-2.56 62.51,-15.58 86.04,15.44zm2306.36 15.92c-15.83,-4.86 -43.72,9.95 -42.99,-16.52 0.79,-28.77 30.23,-15.44 47.06,-16.96 15.54,-1.42 43.25,-9.45 42.27,15.86 -1.11,28.9 -31.37,9.69 -46.34,17.62zm-1359.49 -1000c-31.58,14.37 -55.05,8.5 -77.64,10.77 -8.53,0.79 -19.99,1.01 -19.77,-11.15 0.22,-9.25 8.43,-15.95 18.45,-15.85 23.94,0.25 48.16,0.18 78.96,16.23zm1474.43 8.06c28.78,-35 60.02,-14.66 90.97,-17 0.16,4.42 0.32,8.85 0.44,13.27 -30.48,1.23 -60.96,2.46 -91.41,3.73zm373.26 -10.21c-3.54,19.55 -17.69,17 -28.93,16.93 -11.18,-0.06 -27.07,4.17 -29.41,-13.01 -2.21,-16.62 11.34,-19.3 24.26,-19.87 14.56,-0.66 27.07,3.29 34.08,15.95zm-1474.27 -6.69c21.35,-0.89 42.7,-2.72 63.99,-2.15 9.98,0.22 27.8,-8.25 26.66,13.2 -0.76,13.71 -13.71,14.22 -24.04,14.18 -23.34,-0.03 -47.19,0.79 -66.61,-25.23zm-1468.81 1.35c-39.04,38.79 -73.28,15.42 -106.92,6.42 32.6,-12.2 65.7,-13.49 106.92,-6.42zm307.15 8.31c-28.9,13.77 -54.02,7.39 -78.08,9.6 -8.09,0.76 -19.49,2.72 -19.43,-10.61 0.1,-9.82 6.54,-16.9 16.99,-16.8 25.78,0.25 53.29,-7.87 80.52,17.81zm367.95 2.97c12.98,-16.39 24.29,-14.84 34.3,-14.4 20.72,0.95 42.23,-7.11 61.88,4.29 1.58,0.95 0.63,11.69 -2.18,13.78 -20.53,15.54 -43.81,8.84 -66.24,5.84 -8.18,-1.08 -15.91,-5.31 -27.76,-9.51zm-214.66 -5.91c-30.96,16.18 -61.06,21.29 -97,-0.69 37.11,-17.69 67.34,-15.16 97,0.69zm1793.42 0.48c16.43,-12.89 32.98,-9.73 47.6,-8.44 16.05,1.43 45.93,-13.67 45.14,12.67 -0.66,22.93 -31.27,13.43 -49.12,14.21 -15,0.7 -31.74,1.46 -43.62,-18.44zm-373.23 6.76c-13.04,1.89 -23.21,4.99 -33.19,4.51 -20.69,-0.97 -42.01,7.24 -61.85,-3.41 -1.71,-0.91 -1.23,-11.78 1.52,-14.12 19.68,-16.99 43.36,-7.67 65.41,-7.61 9.51,0.06 21.26,1.36 28.11,20.63zm-206.07 10.26c-15.7,-4.8 -42.86,10.65 -44.6,-14.02 -1.96,-27.77 26.57,-15.57 40.88,-15.51 16.45,0.06 46.43,-14.5 46.97,14.62 0.44,24.26 -28.65,8.53 -43.25,14.91zm-1148.04 -16.77c31.74,-8.53 62.95,-19.05 101.14,0.1 -38.73,20.05 -70.16,21.03 -101.14,-0.1zm1937.9 17.44c-18.2,-5.47 -45.11,10.58 -47.92,-13.24 -3.44,-28.81 25.68,-16.3 39.86,-16.68 16.3,-0.44 45.84,-13.86 45.61,16.68 -0.12,21.73 -27.07,4.61 -37.55,13.24zm-2360.72 0.19c-17.09,-9.86 -50.67,10.23 -47.44,-18.77 2.36,-21.44 36.23,-8.87 55.75,-11.84 12.16,-1.86 33.64,-8.75 30.16,15.19 -3.54,23.98 -27.16,6.38 -38.47,15.42zm784.23 -1.2c-16.49,-6.01 -46.56,13.39 -48.14,-15.36 -1.36,-25.07 27.74,-14.11 42.8,-14.11 17.06,0 46.97,-14.06 48.49,13.67 1.45,25.59 -28.24,9.35 -43.15,15.8zm514.86 -14.06c-15.73,19.11 -35.06,12.26 -51.77,12.89 -14.5,0.57 -39.48,9.25 -40.81,-10.9 -1.55,-23.78 24.64,-22.33 40.94,-19.02 16.3,3.23 36.51,-3.69 51.64,17.03zm-257.87 -4.83c29.06,-16.3 53.85,-9.57 77.54,-11.06 10.11,-0.63 22.75,1.23 22.43,15.35 -0.31,13.05 -11.75,15.89 -22.55,16.78 -26.12,1.99 -52.06,2.93 -77.42,-21.07zm-1362.05 17.91c-16.99,-2.4 -45.2,8.08 -46.43,-12.32 -1.64,-26.16 27.77,-19.9 45.8,-20.69 18.42,-0.85 47.35,-6.82 46.06,19.8 -1.11,21.39 -29.92,8.53 -45.43,13.21zm2941.22 -17.28c11.5,-11.91 22.71,-11.47 32.95,-10.52 20.4,1.9 42.83,-10.39 60.83,7.23 2.59,2.53 2.97,11.91 0.54,14.28 -18.98,18.92 -43.18,9.6 -65.23,9.51 -11.78,-0.03 -24.98,-3.86 -29.09,-20.5zm-1044.06 1742.76c-30.89,-1.27 -75.21,-3.03 -119.56,-5.15 -10.07,-0.54 -23.72,0.54 -22.33,-14.88 0.98,-10.67 12.41,-11.18 21.16,-11.37 65.8,-1.58 131.59,-3.38 197.39,-3.79 10.8,-0.03 28.55,-0.35 26.59,17.56 -1.23,11.18 -14.62,14 -25.74,14.47 -21.32,0.95 -42.67,1.74 -77.51,3.16zm1709.56 -1874.35c-4.33,-106.01 -8.88,-210.4 -12.73,-314.82 -1.48,-41 -1.86,-82 -2.02,-123 0,-10.77 -7.14,-27.8 14.34,-26.63 14.43,0.79 15,13.58 15,24.04 0,37.3 -1.48,74.64 -1.29,111.97 0.5,99.75 1.7,199.53 2.3,299.35 0.07,12.25 0.38,25.68 -15.6,29.09zm-2527.09 -647.87c34.53,-16.05 379.26,-12.83 425.57,5.43 -139.39,6.63 -278.75,28.36 -425.57,-5.43zm-1116.24 8.52c-168.41,6.89 -336.8,13.74 -505.19,20.63 115.54,-62.6 239.99,-37.49 361,-39.17 47.38,-0.66 97.32,-7.45 144.51,5.25 -0.09,4.42 -0.22,8.87 -0.32,13.29zm149.98 -23.27c232.98,15.57 462.52,-5.03 691.93,3.53 18.86,0.73 55.41,-6.69 54.33,16.46 -1.42,30.92 -33.79,10.87 -52.59,10.99 -88.91,0.67 -177.86,-0.19 -266.81,0.22 -149.56,0.7 -299.09,2.31 -448.63,2.4 -16.58,-0.03 -46.55,13.84 -45.8,-17.4 0.64,-23.91 28.56,-11.85 44.48,-15.04 8.62,-1.73 17.72,-0.94 23.09,-1.16zm3478.47 1442.81c10.8,-221.17 -6.54,-442.47 1.93,-663.67 0.5,-12.29 -7.49,-34.55 15.19,-31.74 19.65,2.4 3.57,20.21 4.17,30.76 2.91,48.11 5.5,96.34 6.13,144.54 2.49,189.24 11.15,378.76 4.42,567.74 -8.02,227.9 1.39,455.42 -1.14,683.09 -0.19,14.18 8.34,37.34 -14.24,38.25 -22.27,0.86 -18.8,-22.42 -18.61,-37.55 0.83,-101.68 3.32,-203.33 3.57,-304.94 0.32,-142.17 -0.88,-284.31 -1.42,-426.48zm6.95 803.21c33.26,46.53 19.24,97.26 3.54,142.27 -34.68,99.47 -146.44,159.48 -251.21,147.76 -40.68,-4.58 -81.97,-6.13 -122.87,-5.02 -230.14,6.32 -460.28,7.11 -690.36,0.32 -65.7,-1.93 -131.75,7.92 -196.43,0.34 -74.01,-8.72 -150.04,23.16 -233.3,-18.98 126.91,-4.39 242.64,-19.55 358.5,-1.99 29.13,4.42 55.19,-5.47 83.24,-5.34 280.01,1.01 560.09,0.16 840.17,-0.25 87.43,-0.13 150,-42.26 186.33,-119.3 20.21,-42.9 15.57,-92.62 22.39,-139.81zm-41.19 -2151.86c-50.13,-29 -99.5,-55.6 -158.94,-61.85 -23.31,-2.43 -45.87,0.28 -68.2,0.31 -326.48,0.16 -653.08,8.06 -979.43,3.1 -255.26,-3.89 -510.29,1.14 -765.41,0.85 -17.75,-0.03 -35.88,3.1 -52.43,-8.37 9.03,-31.14 35.69,-25.71 56.88,-24.64 205.09,10.43 410.25,-0.94 615.37,2.12 133.77,1.96 267.6,2.65 401.41,3.16 210.58,0.82 421.2,-4.3 631.85,-6.89 65.61,-0.79 130.46,11.25 196.16,13.4 42.92,1.39 99.18,23.65 122.74,78.81zm152.88 1975.17c11.31,-121.58 10.68,-251.34 11.44,-379.86 0.56,-97.54 -3.54,-197.07 -6.67,-295.75 -6.85,-217.53 10.24,-435.07 -4.61,-652.73 -3.03,-43.69 -21.29,-98.27 22.62,-138.67 7.39,-6.79 -5.97,-9.13 -9.61,-13.71 -4.04,-5.15 -6.09,-11.91 -9,-18 55.81,-1.71 37.3,-54.81 57.43,-80.42 11.84,-15.13 24.22,2.97 25.08,19.08 1.76,32.02 4.48,64.27 3.28,96.27 -10.74,288.8 -5.09,577.53 -4.77,866.36 0.22,121.99 2.31,244.61 -6.7,367.57 -8.46,115.36 2.5,234.44 7.58,351.78 0.86,19.59 10.08,52.34 -19.01,51.33 -16.49,-0.6 -41.6,-14.75 -52.4,-46.97 -13.65,-40.81 -5.06,-79.91 -14.66,-126.28zm-4369.85 -1890.81c18.29,388.01 -0.44,775.83 7.49,1163.53 4.77,231.84 -7.01,463.94 -0.38,695.98 2.56,89.1 -2.56,178.49 -0.28,267.69 3.03,119.62 87.74,194.17 206.45,196.63 278.5,5.75 556.96,-4.99 835.27,-0.06 258.89,4.58 517.9,-8.82 776.24,1.58 178.4,7.23 356.3,-11.88 534.13,2.43 11.5,0.91 25.37,-3.67 33.77,11.81 -7.36,13.08 -20.69,10.39 -32.06,10.77 -246.28,7.99 -492.53,7.3 -738.84,2.02 -42.84,-0.91 -85.64,-0.28 -128.47,-0.12 -340.94,1.36 -681.86,4.39 -1022.77,2.9 -80.33,-0.38 -160.59,0.1 -240.88,0.95 -135.82,1.42 -251.68,-89.23 -251.43,-242.68 0.41,-244.57 -7.83,-489.24 -2.75,-733.69 5.37,-258.89 -5.27,-517.71 0.95,-776.28 3.57,-146.56 0.19,-292.71 -0.32,-439.08 -0.15,-46.05 3.23,-92.17 5.18,-138.29 0.51,-12.69 1.55,-25.55 18.7,-26.09zm3306.33 -305.88l0 0c-0.57,1.14 -1.96,2.71 -1.61,3.41 2.21,4.64 4.83,4.61 6.89,-0.16 0.34,-0.69 -0.86,-2.59 -1.8,-3.19 -0.83,-0.57 -2.31,-0.03 -3.48,-0.06zm-3449.79 857.45l0 0c-1.05,-25.11 8.94,-46.66 -10.02,-62.8 -2.49,-2.14 -16.1,2.44 -17.62,6.51 -8.59,22.62 -1.23,40.34 27.64,56.29zm-16.9 233.96l0 0c15.38,-5.5 29.06,-11.43 29.06,-29.94 -0.03,-9.26 -8.18,-11.12 -14.6,-8.66 -17.84,6.95 -19.96,20.85 -14.46,38.6zm870.62 1709.5l0 0c-2.43,-4.08 -4.07,-6.95 -5.75,-9.79 -1.58,4.61 -4.01,9.12 -4.36,13.83 -0.16,2.72 3.03,5.69 4.74,8.53 1.86,-4.42 3.79,-8.84 5.37,-12.57zm-879.47 -1694.34l0 0c-0.56,0.98 -1.13,2.02 -1.7,3 2.08,0.13 4.14,0.22 6.22,0.35 -0.44,-1.04 -0.63,-2.43 -1.45,-3.06 -0.63,-0.57 -2.02,-0.26 -3.07,-0.29zm842.51 557.76l0 -24.26 60.65 0 0 -445.85 -60.65 0 0 -22.77 248.72 0.03 0 22.74 -60.68 0 0 445.85 60.68 0 0 24.26 -248.72 0zm402.39 -163.78l133.7 0 -65.1 -172.75 -68.6 172.75zm-131.06 163.78l0 -24.26 30.33 0c8.21,0 15.03,-2.78 20.34,-8.21 5.43,-5.44 11.02,-15.29 16.71,-29.57l169.33 -440.69 29.57 0 185.13 478.47 43.71 0 0 24.26 -238.82 0 0 -24.26 60.01 0 -43.34 -115.26 -150 0 -32.63 84.18c-0.73,1.39 -1.23,3.66 -1.61,6.82 -0.38,3.03 -0.66,6.7 -0.63,10.87 -0.03,4.29 2.02,7.58 5.81,9.85 3.79,2.4 9.22,3.54 16.05,3.54l44.09 0 0 24.26 -154.05 0zm514.23 0l0 -24.26 36.26 0c9.73,0 17.06,-3.03 22.11,-9.22 5.06,-6.2 7.58,-15.17 7.58,-27.04l0 -409.59 -65.95 0 0 -22.77 212.8 0.03 86.55 284.57 91.88 -284.57 202.06 0 0.03 22.74 -64.05 0 0 445.85 62.13 0 0 24.26 -250.2 0 0 -24.26 66.71 0 0 -439.53 -1.48 0 -145.62 463.79 -25.77 0 -143.31 -468.59 0 405.76c0,14.44 2.65,24.42 7.83,30.1 5.18,5.69 14.41,8.47 27.8,8.47l32.63 0 0 24.26 -159.99 0zm814.46 -24.26l65.83 0c34.4,0 56.76,-6.7 67.25,-20.22 10.36,-13.39 15.54,-44.38 15.54,-92.77 0,-45.1 -6.19,-75.17 -18.58,-89.99 -12.38,-14.75 -37.14,-22.23 -74.57,-22.23l-55.47 0 0 225.21zm0 -246.44l47 0c35.92,0 59.67,-6.19 70.92,-18.45 11.37,-12.38 17.05,-39.54 17.05,-81.52 0,-45.61 -4.93,-73.53 -14.91,-83.9 -9.98,-10.36 -35.88,-15.54 -77.61,-15.54l-42.45 0 0 199.41zm-175.9 246.44l53.06 0 0 -445.85 -53.06 0 0 -22.74 274.99 0c51.42,-0.03 91.89,10.62 121.7,31.71 29.69,21.1 44.6,49.66 44.6,85.7 0,29.82 -11.87,54.08 -35.5,72.77 -23.78,18.58 -58.91,31.21 -105.66,37.91l0 6.32c53.32,4.42 93.5,16.96 120.44,37.68 26.91,20.59 40.43,48.9 40.43,84.9 0,41.7 -17.18,74.83 -51.42,99.22 -34.37,24.38 -81.02,36.64 -139.77,36.64l-269.81 0 0 -24.26zm533.68 0l58.38 0 0 -445.85 -58.38 0 0 -22.74 275.38 0c56.73,0 100.22,9.23 130.42,27.8 30.19,18.44 45.36,45.23 45.36,79.98 0,35.4 -14.16,63.33 -42.61,84.17 -28.27,20.72 -68.74,32.35 -121.04,34.75l0 6.32c53.57,7.07 91.47,23.88 113.58,50.19 22.27,26.28 33.39,68.22 33.39,125.74 0,23.6 2.4,39.3 7.07,46.88 4.68,7.45 12.89,11.24 24.77,11.24 4.67,0 9.73,-0.5 15.28,-1.64 5.56,-1.14 11.5,-2.78 17.95,-5.05l7.7 20.34c-16.3,7.33 -31.84,13.01 -46.75,16.93 -14.9,3.92 -27.92,5.81 -39.04,5.81 -20.46,0 -39.07,-3.03 -55.75,-9.22 -16.55,-6.19 -29.81,-14.78 -39.67,-25.9 -19.33,-21.48 -29.94,-61.44 -31.84,-119.94 -0.25,-7.96 -0.5,-13.77 -0.79,-17.81 -1.48,-33.99 -9.44,-57.65 -23.97,-71.04 -14.66,-13.27 -39.17,-19.96 -73.69,-19.96l-13.02 0 0 229 64.47 0 0 24.26 -247.2 0 0 -24.26zm182.73 -253.26l62.16 0c28.09,0 47.16,-5.81 57.15,-17.56 9.98,-11.75 14.9,-36.64 14.9,-74.68 0,-47.91 -4.17,-76.59 -12.38,-86.07 -8.21,-9.47 -28.05,-14.28 -59.67,-14.28l-62.16 0 0 192.59zm357.78 277.52l0 -24.26 59.89 0 0 -445.85 -51.42 0 0 -22.74 410.85 0 1.48 129.67 -25.02 0c-16.8,-41.98 -33.73,-70.29 -51.04,-84.94 -17.31,-14.66 -42.45,-21.99 -75.46,-21.99l-85.03 0 0 202.44c2.02,0.26 4.29,0.51 6.82,0.63 2.65,0.13 6.07,0.13 10.61,0.13 26.79,0 47.13,-7.07 60.9,-21.23 13.93,-14.15 22.9,-37.14 27.07,-68.98l25.02 0 0 210.02 -25.05 0c-2.65,-34.11 -11.09,-58.5 -25.14,-73.31 -14.03,-14.79 -36.01,-22.24 -65.83,-22.24l-14.4 0 0 218.39 82.53 0c40.69,0 72.53,-10.74 95.4,-32.22 22.99,-21.6 41.06,-57.64 54.07,-108.06l23.5 0 -5.15 164.54 -434.6 0zm514.2 5.81l0 -144.57 28.84 0c12.6,41.94 31.18,73.69 55.97,95.17 24.89,21.48 55.22,32.22 91.22,32.22 32.38,0 59.04,-8.6 80.27,-25.9 21.22,-17.31 31.87,-39.3 31.84,-65.96 0,-14.31 -2.53,-26.06 -7.59,-35.41 -5.05,-9.22 -13.64,-17.81 -25.77,-25.64 -13.77,-9.1 -41.09,-18.45 -81.78,-27.8 -15.03,-3.41 -26.53,-6.19 -34.49,-8.09 -47.63,-12.16 -82.28,-29.97 -103.86,-53.31 -21.63,-23.54 -32.37,-55 -32.37,-94.42 0,-46.27 14.43,-83.54 43.11,-112.1 28.81,-28.43 66.33,-42.73 112.83,-42.7 18.95,0 36.64,2.65 53.1,7.96 16.42,5.18 31.84,13.14 46.49,23.62l27.04 -21.76 23.75 0.03 3.04 130.42 -25.02 0c-9.6,-38.31 -25.65,-67.5 -48.14,-87.46 -22.36,-20.09 -50.41,-30.07 -83.92,-30.07 -27.8,0 -50.67,6.82 -68.61,20.34 -17.82,13.65 -26.82,30.83 -26.79,51.55 -0.03,31.11 32.98,53.95 98.81,68.64 8.84,1.89 15.54,3.41 20.24,4.42 61.53,14.28 104.74,34.62 129.54,60.9 24.86,26.28 37.27,63.58 37.24,111.85 0.03,49.9 -15.76,91.25 -47.51,124.23 -31.71,32.97 -71.67,49.4 -119.77,49.4 -24.54,0 -46.02,-2.78 -64.47,-8.34 -18.57,-5.43 -35.76,-14.28 -51.8,-26.28l-34.15 29.06 -27.29 0z"/>
  </g>
 </g>
</svg>
