<?xml version="1.0" encoding="UTF-8"?>
<!DOCTYPE svg PUBLIC "-//W3C//DTD SVG 1.1//EN" "http://www.w3.org/Graphics/SVG/1.1/DTD/svg11.dtd">
<!-- Creator: CorelDRAW 2020 (64-Bit) -->
<svg xmlns="http://www.w3.org/2000/svg" xml:space="preserve" width="54.941mm" height="36.365mm" version="1.1" style="shape-rendering:geometricPrecision; text-rendering:geometricPrecision; image-rendering:optimizeQuality; fill-rule:evenodd; clip-rule:evenodd"
viewBox="0 0 5494.1 3636.5"
 xmlns:xlink="http://www.w3.org/1999/xlink"
 xmlns:xodm="http://www.corel.com/coreldraw/odm/2003">
 <defs>
  <style type="text/css">
   <![CDATA[
    .fil1 {fill:#CC9933}
    .fil0 {fill:#FEFEFE}
   ]]>
  </style>
 </defs>
 <g id="Capa_x0020_1">
  <metadata id="CorelCorpID_0Corel-Layer"/>
  <g id="_2153734539616">
   <path class="fil0" d="M5237.1 2585.5c-28.52,56.1 -62.07,85 -107.39,131.06 -35.1,43.59 -72.37,85.16 -108.95,127.13 -24.95,28.87 -53.91,51.84 -85.12,68.51 -16.14,20.13 -34.65,39.27 -55.4,60.84 -26.95,28.02 -56.1,49.56 -86.65,64.88 -15.54,14.47 -32.94,27.07 -51.86,37.46 -36.89,36.36 -84.46,64.69 -137.4,84.56 -40.37,18.98 -79.7,44.54 -117.95,67.15 -129.91,76.76 -267,131.5 -407.46,184.91 -68.42,26 -110.56,45.9 -183.71,44.16 -0.76,0.03 -1.52,0.06 -2.31,0.09 -284.28,129.57 -572.54,143.6 -884.33,170.95 -259.36,22.77 -520.01,9.38 -777.91,-23.03 -219.25,-27.57 -435.33,-74.1 -646.71,-138.28 -296.09,-89.93 -576.42,-216.75 -831.32,-393.16 -297.68,-206.01 -538.05,-459.93 -668.6,-802.84 -23.53,-61.75 -39.32,-124.35 -57.52,-187.59 -7.17,-24.86 -11.21,-50.29 -12.06,-75.56 -10.58,-33.04 -14.79,-68.22 -13.59,-104.55 -7.7,-40.37 -7.1,-79.56 0.7,-116.05 -1.64,-19.2 -1.42,-38.91 0.82,-58.94 3.82,-53.44 7.2,-96.53 21.01,-138.41 0.22,-23.53 3.44,-47.25 10.32,-72.43 53.95,-197.07 139.52,-376.98 267.92,-536.78 79.54,-98.99 167.76,-190.15 262.96,-274.11 37.62,-41.25 80.29,-72.52 125.97,-91.7 28.65,-27.76 62.82,-51.48 101.74,-73.66 3.69,-2.08 7.36,-4.2 11.02,-6.38 27.04,-17.81 54.43,-35.15 82.13,-51.96 28.74,-18.88 57.42,-37.9 86.58,-56.16 24.6,-15.38 50.12,-28.39 76.75,-38.15 21.39,-15.04 45.14,-27.42 70.6,-36.9 14.53,-8.78 28.99,-16.48 45.83,-23.31 17.81,-7.23 35.53,-13.64 54.11,-18.54 118.7,-51.96 240.62,-96.27 364.6,-133.96 211.41,-64.21 427.49,-110.68 646.74,-138.25 257.9,-32.41 518.55,-45.8 777.91,-23.06 311.76,27.32 599.96,41.41 884.21,170.95 0.82,0 1.64,0.03 2.43,0.09 73.15,-1.7 115.32,18.16 183.74,44.19 140.46,53.41 277.52,108.15 407.43,184.91 38.25,22.61 77.58,48.14 117.95,67.12 65.54,24.61 122.87,62.19 161.94,111.63 274.17,198.55 500.74,440.09 628.2,759.59 120.97,303.33 128.93,617.71 9.35,923.28 -34.91,89.14 -78.91,173.16 -125.18,251.21 -11.94,22.01 -25.93,41.72 -41.54,59.09z"/>
   <path class="fil1" d="M553.69 2134.8c3.29,26.31 34.91,45.67 25.3,78.55 -2.93,10.2 -17.91,12.13 -22.33,2.5 -11.34,-24.74 -35.31,-45.52 -29.25,-76.25 2.4,-12.29 13.08,-10.65 26.28,-4.8zm1445.25 -1222.37l115.29 0 0 9.31 -24.58 -0.03 -0.03 328.91 9.86 0c16.2,0 29.85,-7.55 40.78,-22.68 10.93,-15.19 17.59,-36.6 19.86,-64.21l9.83 0 -1.64 96.18 -169.37 0 0 -9.29 23.5 0 0 -328.91 -23.5 0 0 -9.28zm323.48 0l114.18 0 0 9.28 -24.57 0 -0.03 328.91 24.6 0 0 9.29 -114.18 0 0 -9.29 22.39 0 0 -328.91 -22.39 0 0 -9.28zm113.61 -114.73l-78.65 92.33 -9.28 0 28.39 -92.33 59.54 0zm143.72 114.73l96.72 0 92.33 285.29 1.07 0 0.03 -252.51c0,-15.66 -7.64,-23.5 -22.93,-23.5l-9.85 0 0 -9.28 72.65 0.03 0 9.25 -9.83 0c-12,0 -18.03,4.84 -18.03,14.41l0 323.79 -60.46 0 -99.09 -302.66 -1.07 0 0 262.13c0,20.85 6.92,31.24 20.75,31.24l12.04 0 0 9.29 -68.29 0 0 -9.29c8.9,0 15.03,-1.64 18.38,-4.92 3.38,-3.29 5.12,-9.48 5.12,-18.58l0 -305.41 -29.54 0 0 -9.28zm385.23 0l177.01 0 0 83.61 -9.28 0c-7.3,-49.56 -26.25,-74.33 -56.83,-74.33l-20.21 0 0 149.15 11.94 0c12,0 21.48,-3.53 28.39,-10.55 7.02,-7.01 10.46,-16.58 10.49,-28.68l-0.03 -9.91 9.85 -0.04 0 111.47 -9.85 0 0.03 -8.71c-0.03,-29.54 -12.32,-44.29 -36.8,-44.29l-14.02 0 0 170.47 17.4 0c31.97,0 53.16,-28.96 63.46,-86.86l8.75 -0.03 0 96.18 -180.3 0 0 -9.29 23.5 0 0 -328.91 -23.5 0 0 -9.28zm427.56 -4.93l19.49 0 89.42 343.12 22.36 0 0 9.29 -111.97 0 0 -9.29 21.22 0 -22.96 -87.97 -65.48 0 -13.74 60.75c-0.72,2.81 -1.1,5.18 -1.1,7.29 0,13.27 6.57,19.93 19.77,19.93l9.29 0 0 9.29 -71.01 0 -0.03 -9.29 8.75 0c12.13,0 19.93,-8.02 23.4,-24.03l72.59 -319.09zm-17.41 121.04l-28.42 124.83 61.02 0 -31.49 -124.83 -1.11 0zm-573.23 1803.21c-8.34,9.45 -19.01,13.97 -32.31,13.93 -13.21,-0.06 -25.4,-6.57 -36.61,-19.71 -11.21,-13.23 -18.23,-29.62 -21.01,-49.08 -3.15,-22.4 -1.73,-43.81 4.08,-64.31 5.94,-20.47 14.62,-36.77 26.06,-48.96 11.53,-12.13 25.3,-18.16 41.34,-18.01 8.47,0.1 15.04,3.64 19.78,10.59 0.79,-2.25 1.55,-4.55 2.3,-6.83 15.95,0.16 31.91,0.45 47.86,0.95 0.09,34.34 0.22,67.15 0.22,99.94 0,32.82 0.09,65.64 0.19,99.94 0.12,42.71 -9.1,71.32 -51.77,70.69 -0.13,-29.72 -0.13,-59.44 -0.13,-89.14zm44.51 -210.46c-10.71,-0.31 -20.28,-3.98 -28.78,-11.34 -8.56,-7.23 -13.71,-16.93 -15.44,-29.18 -0.48,-3.48 -0.73,-7.3 -0.73,-11.41 0.03,-32.97 0.09,-65.98 0.13,-98.96 0.03,-32.97 0.12,-65.95 0.15,-98.93 -6.22,-0.06 -12.41,-0.09 -18.63,-0.12 0.06,-2.53 0.09,-5.06 0.19,-7.58 9.44,0.06 18.89,0.09 28.39,0.19 16.46,0.15 30.26,-0.86 41.51,-3.16 0.06,36.48 0.09,72.96 0.12,109.41 0.04,36.49 0.1,72.97 0.16,109.42 0,6.19 0.19,10.71 0.6,13.58 0.41,3.03 1.52,5.66 3.22,7.71 1.74,2.02 3.6,3.13 5.69,3.19 3.98,0.13 7.64,-2.12 10.74,-6.67 3.19,-4.61 5.37,-11.05 6.47,-19.39 2.53,0.1 5.06,0.16 7.55,0.28 -4.36,29.41 -18.13,43.66 -41.34,42.96zm-220.54 -259.92c24,-0.41 47.98,-0.82 71.98,-1.05 23.98,-0.19 47.95,-0.25 71.99,-0.19 0,11.28 0.1,22.62 0.13,33.87 0.03,11.24 0.09,22.55 0.15,33.82 -2.52,0 -5.02,0 -7.54,0 -5.69,-40.11 -21.1,-60.2 -46.22,-60.07 -5.43,0.03 -10.86,0.03 -16.26,0.09 0.03,18.16 0.06,36.36 0.09,54.49 0.03,18.13 0.1,36.29 0.13,54.42 3.22,-0.03 6.44,-0.06 9.7,-0.09 23.12,-0.16 33.67,-13.46 31.61,-39.86 2.53,0 5.09,0 7.62,0 -0.07,15.09 -0.07,30.19 -0.1,45.23 -0.03,15.06 -0.06,30.16 -0.09,45.26 -2.5,0 -5.03,0 -7.52,0 0.41,-8.18 0.41,-13.93 -0.06,-17.25 -2.4,-17.08 -12.35,-25.52 -29.89,-25.42 -3.82,0.03 -7.64,0.06 -11.46,0.12 -0.03,20.95 -0.03,41.95 -0.03,62.89 0,20.94 0,41.92 0,62.86 4.67,-0.13 9.41,-0.19 14.12,-0.22 12.95,-0.16 23.75,-6.07 32.37,-17.72 8.63,-11.69 15.13,-29.22 19.4,-52.56 2.37,0 4.7,0 7.07,0 -0.03,12.95 -0.09,25.9 -0.12,38.82 0,12.92 -0.07,25.84 -0.1,38.76 -24.42,0.03 -48.8,0.09 -73.15,0.5 -24.39,0.44 -48.77,1.2 -73.16,2.02 -0.03,-2.52 -0.06,-5.05 -0.06,-7.64 6.35,-0.19 12.7,-0.41 19.08,-0.63 0,-40.56 0,-81.09 0,-121.64 0,-40.53 0,-81.09 0,-121.61 -6.54,0.12 -13.02,0.22 -19.52,0.35 -0.03,-2.5 -0.1,-5.03 -0.16,-7.55zm565.15 341.35c10.89,-18.92 25.52,-27.16 43.55,-24.79 11.09,1.48 20.66,6.63 28.68,15.03 8.03,8.47 12.77,18.39 14.31,29.82 0.19,1.52 0.32,12.1 0.32,31.87 0,19.81 0,48.77 -0.1,86.96 0,4.48 -0.12,8.91 0.54,13.77 0.44,3.16 1.55,5.91 3.41,8.24 1.77,2.22 3.73,3.57 5.81,3.89 3.86,0.6 7.49,-1.23 10.68,-5.53 3.19,-4.26 5.4,-10.48 6.48,-18.76 2.55,0.38 5.08,0.73 7.7,1.14 -4.29,29.21 -18.13,42.07 -41.56,38.63 -11,-1.61 -20.66,-6.67 -29.25,-15.2 -8.47,-8.27 -13.65,-18.73 -15.39,-31.36 -0.25,-1.86 -0.44,-13.17 -0.53,-33.96 -0.13,-20.72 -0.13,-50.95 -0.13,-90.65 0.13,-2.31 0.03,-4.42 -0.22,-6.41 -0.95,-7.3 -4.61,-11.25 -10.65,-12.04 -5.18,-0.69 -10.55,2.59 -16.17,10.11 -5.62,7.39 -8.37,18.54 -8.02,33.55 0,22.07 0,44.22 0,66.23 0,22.05 0.09,44.16 0.22,66.27 -17.28,-2.21 -34.52,-4.14 -51.8,-5.97 0,-5.68 0,-11.37 0,-17.09 -8.12,12.23 -21.01,17.41 -38.57,15.61 -10.9,-0.98 -20.56,-5.37 -29.15,-13.49 -5.5,-5.09 -9.57,-11.06 -12.2,-18.04 -7.7,16.49 -22.2,25.87 -42.32,24.48 -9.48,-0.66 -18.26,-4.23 -26.41,-10.58 -8.12,-6.38 -13.64,-15.16 -16.8,-25.99 -10.24,21.19 -25.21,31.36 -44.98,30.38 -11.56,-0.57 -21.23,-4.51 -28.93,-11.84 -7.68,-7.2 -12.39,-16.62 -14.06,-28.18 -0.19,-1.32 -0.54,-14.34 -0.54,-39.01 0,-24.67 -0.12,-61.05 -0.12,-109.1 -6.26,-0.16 -12.54,-0.34 -18.8,-0.57 0,-2.43 0.1,-4.96 0.22,-7.48 9.45,0.28 19.02,0.53 28.59,0.91 16.8,0.64 30.76,0.23 42.1,-1.67 -0.09,24.54 -0.22,49.09 -0.22,73.57 0,24.54 0,49.05 0,73.56 -0.09,10.61 -0.06,16.87 0.22,18.79 1.14,7.87 5.59,12.01 13.43,12.39 4.7,0.22 9.44,-3.83 14.4,-12.23 4.93,-8.24 7.36,-17.81 7.14,-28.9 0,-21.89 0.22,-43.87 0.22,-65.79 0,-21.89 0.22,-43.94 0.32,-65.83 17.27,1.2 34.52,2.4 51.8,3.66 -0.13,20.95 -0.35,41.89 -0.35,62.83 0,20.94 -0.09,41.91 -0.09,62.82 0,0 0,0 0,0 0,0.13 0,0.19 0,0.32 0,2.12 0,4.23 0,6.32 0,6.5 0,13.07 0,19.58 0,0.41 0,0.82 0,1.2 0,-6.92 0,-13.77 0,-20.75 -0.13,6.51 -0.13,13.04 -0.13,19.55 -0.09,2.53 -0.09,5.12 0.13,7.87 0,-1.46 0,-2.88 0,-4.3 0,6.19 0.44,13.84 4.39,18.23 6.25,6.72 15.06,3.31 19.68,-2.47 3.63,-4.39 6.06,-10.55 7.36,-18.6 -0.23,-3.26 -0.32,-7.05 -0.23,-11.4 0,-21.86 0,-43.75 0,-65.58 0,-21.82 0.13,-43.75 0.23,-65.6 -6.26,-0.57 -12.54,-1.14 -18.8,-1.71 0,-2.43 0.13,-4.96 0.22,-7.39 9.57,0.79 19.14,1.7 28.81,2.59 16.61,1.52 30.58,1.58 42.01,0.16 0,25.93 0,51.86 0,77.73 0,25.9 0,51.84 0,77.7 0,6.45 -0.35,16.49 4.26,21.99 6.29,6.92 15.2,3.79 19.81,-1.93 3.5,-4.29 6.03,-10.36 7.36,-18.38 -0.1,-23.75 -0.1,-47.51 -0.1,-71.23 0,-23.72 0,-47.44 0,-71.23 -6.28,-0.69 -12.54,-1.39 -18.79,-2.08 0,-2.47 0.09,-4.96 0.22,-7.49 9.54,1.11 19.11,2.15 28.81,3.22 16.71,1.87 30.54,2.34 41.98,1.39 0,9.45 0,18.86 0,28.24zm-903.66 -104.71c-0.1,20.03 -0.1,40.05 -0.1,59.95 0,19.94 0,39.93 0,59.86 5.94,-0.82 11.85,-1.61 17.91,-2.4 5.15,-0.66 9.67,-3.1 13.52,-7.23 3.73,-4.11 6.06,-8.47 7.04,-12.83 0.89,-4.48 1.42,-18.32 1.42,-41.63 0.13,-23.25 0.04,-35.82 -0.22,-37.49 -2.27,-15.32 -9.79,-22.21 -22.74,-20.47 -5.62,0.73 -11.21,1.52 -16.83,2.24zm-74.42 3.73c35.72,-5.53 71.45,-10.99 107.2,-15.73 16.46,-2.21 30.99,1.07 43.75,10.08 12.63,9.06 20.12,21.06 22.33,36.23 2.53,17.65 -1.2,34.33 -11.12,49.75 -9.98,15.5 -25.3,26.46 -45.96,33.29 0,0.34 0,0.69 0.1,1.01 15.95,-1.2 28.4,1.58 37.4,8.18 9.03,6.6 14.21,15.26 15.7,25.87 0.41,2.71 0.66,30.83 0.79,84.3 0,1.8 0.25,4.17 0.66,7.17 0.69,4.9 3.09,7.17 7.36,6.7 5.49,-0.6 8.91,-7.27 10.23,-19.96 2.75,0.34 5.5,0.66 8.34,1.01 -2.62,22.65 -15.6,35.25 -38.79,37.78 -10.8,1.16 -20.24,-1.58 -28.49,-8.03 -8.12,-6.47 -13.04,-15.7 -14.84,-27.6 -0.64,-4.24 -0.89,-33.04 -0.89,-86.36 0.13,-1.27 0,-3.1 -0.31,-5.4 -1.77,-12.92 -9.8,-18.51 -23.98,-16.62 -5.05,0.67 -10.11,1.33 -15.06,1.99 0,23.75 0,47.51 0,71.23 0,23.75 0,47.47 0,71.23 6.72,-0.86 13.42,-1.71 20.12,-2.62 0,2.62 0.12,5.18 0.22,7.7 -31.56,4.17 -63.11,8.91 -94.67,13.59 0,-2.6 0,-5.15 0,-7.74 6.48,-0.92 13.08,-1.9 19.68,-2.88 0,-44.88 0,-89.86 0,-134.75 0,-44.91 0,-89.86 0,-134.81 -6.6,1.01 -13.2,2.02 -19.68,3 -0.09,-2.46 -0.09,-4.99 -0.09,-7.61zm299.69 97.63c0.13,-6.44 -0.09,-11.71 -0.66,-15.76 -0.86,-6.19 -3.1,-11.12 -6.57,-14.59 -3.54,-3.51 -7.84,-4.99 -12.89,-4.64 -7.14,0.5 -12.86,4.92 -16.8,13.23 -4.08,8.28 -5.94,19.65 -5.63,34.11 0.35,14.41 0.35,36.01 0,64.47 -0.31,28.59 0.04,46.37 1.01,53.48 0.89,6.38 3.07,11.24 6.61,14.53 3.5,3.35 7.77,4.83 12.85,4.48 6.92,-0.5 12.19,-4.51 16.27,-12 3.85,-7.55 5.81,-17.28 6.03,-29.15 -0.09,-18.04 -0.22,-36.01 -0.22,-54.05 0,-18.03 0,-36.07 0,-54.11zm-99.28 84.02c-4.26,-29.94 1.55,-58.11 17.72,-84.39 16.14,-26.32 36.36,-40.78 60.68,-42.74 17.91,-1.45 34.62,5.24 50.04,19.61 15.38,14.38 24.73,33.08 27.92,55.72 4.26,30.26 -1.64,58.19 -17.91,83.8 -16.08,25.84 -36.29,39.45 -60.49,41.32 -18.16,1.39 -34.75,-4.71 -50.13,-18.77 -15.29,-14.05 -24.64,-32.25 -27.83,-54.55zm225.19 65.01c-14.95,0.44 -27.93,-2.59 -38.7,-9.44 -10.9,-6.95 -16.9,-15.01 -18.26,-24.48 -1.16,-8 0.1,-14.75 3.64,-20.19 3.63,-5.4 8.34,-8.27 14.4,-8.59 5.5,-0.25 10.23,1.26 14.06,4.64 3.85,3.38 6.06,7.65 6.82,12.8 1.1,7.48 -0.22,13.8 -3.85,18.66 -3.64,5.03 -5.41,7.87 -5.28,8.75 0.32,2.18 3.1,4.52 8.24,6.98 5.18,2.44 11.88,3.57 20.13,3.32 7.17,-0.19 13.42,-3.25 18.6,-9.19 5.15,-5.94 7.2,-12.67 6.13,-20.09 -1.23,-8.59 -4.17,-16.14 -9.13,-22.49 -4.71,-6.38 -14.59,-14.28 -29.34,-23.56 -14.06,-8.53 -24.42,-17.09 -30.99,-25.59 -6.38,-8.56 -10.49,-18.76 -12.23,-30.76 -2.33,-16.33 1.77,-30.55 12.32,-42.46 10.46,-11.81 23.63,-18.28 39.49,-18.79 15.6,-0.54 28.8,2.62 39.57,9.22 10.65,6.64 16.84,14.69 18.14,24.17 1.1,8.02 -0.1,14.72 -3.73,20.15 -3.54,5.37 -8.25,8.15 -14.18,8.31 -5.63,0.15 -10.36,-1.49 -14.19,-4.96 -3.85,-3.51 -6.09,-7.77 -6.82,-12.83 -1.14,-7.8 0.22,-13.93 3.95,-18.51 3.76,-4.58 5.46,-7.48 5.27,-8.75 -0.34,-2.4 -2.62,-4.54 -7.01,-6.34 -4.52,-1.81 -10.8,-2.6 -18.92,-2.34 -7.8,0.25 -13.96,2.9 -18.26,8.21 -4.29,5.28 -6,11.69 -4.95,19.24 0.91,6.53 3.53,12.13 7.58,16.58 4.07,4.61 12.54,10.99 25.42,19.11 16.71,10.49 28.81,20.59 36.39,30.54 7.49,9.89 12.32,22.15 14.4,36.8 2.44,17.15 -2.52,31.49 -14.4,43.31 -12.1,11.84 -26.85,18.03 -44.31,18.57zm163.71 -49.88c-0.13,-22.55 -0.13,-45.07 -0.13,-67.62 0.25,-35.06 0,-54.84 -0.63,-59.35 -0.57,-3.83 -2.34,-7.14 -5.18,-9.95 -2.78,-2.78 -6.25,-4.27 -10.33,-4.3 -4.39,-0.03 -8.15,2.12 -11.12,6.6 -3.06,4.42 -5.05,10.21 -6.03,17.41 -1.11,7.14 -1.55,29.56 -1.55,67.21 0.13,37.65 0.35,58.06 0.76,61.12 1.99,14.22 6.82,21.39 14.53,21.45 5.37,0.06 10.11,-2.84 14.06,-8.59 4.07,-5.69 5.93,-13.71 5.62,-23.98zm322.15 -222.18c-20.56,21.99 -41.13,44.35 -61.56,66.75 -2.66,-0.22 -5.18,-0.48 -7.71,-0.73 7.36,-23.56 14.72,-47.13 22.11,-70.75 15.7,1.45 31.43,2.93 47.16,4.73zm-1945.67 -409.77l0.28 -195.49 38.98 0.03c16.99,56.76 42.04,99.72 75.52,128.81 33.61,29.1 74.61,43.66 123.32,43.75 43.75,0.06 79.82,-11.53 108.56,-34.9 28.75,-23.38 43.15,-53.07 43.18,-89.14 0.03,-19.3 -3.35,-35.19 -10.17,-47.85 -6.82,-12.48 -18.42,-24.13 -34.81,-34.75 -18.6,-12.35 -55.53,-25.01 -110.52,-37.74 -20.34,-4.65 -35.88,-8.44 -46.62,-11.03 -64.44,-16.49 -111.22,-40.65 -140.4,-72.3 -29.16,-31.81 -43.63,-74.42 -43.56,-127.7 0.09,-62.58 19.64,-112.96 58.46,-151.53 39.05,-38.4 89.81,-57.64 152.73,-57.55 25.61,0.04 49.52,3.67 71.73,10.87 22.2,7.04 43.05,17.85 62.86,32.06l36.6 -29.34 32.13 0.03 3.85 176.38 -33.83 -0.07c-12.92,-51.8 -34.55,-91.28 -64.94,-118.32 -30.23,-27.23 -68.13,-40.78 -113.43,-40.84 -37.58,-0.06 -68.54,9.13 -92.83,27.39 -24.13,18.41 -36.29,41.63 -36.32,69.68 -0.07,42.04 44.5,73.02 133.51,92.95 11.97,2.59 21.01,4.68 27.32,6.04 83.2,19.42 141.61,47.03 175.06,82.6 33.64,35.59 50.32,86.04 50.19,151.33 -0.06,67.5 -21.51,123.34 -64.47,167.88 -42.96,44.54 -97,66.68 -162.1,66.62 -33.17,-0.07 -62.2,-3.86 -87.15,-11.41 -25.11,-7.39 -48.33,-19.39 -70.03,-35.66l-46.18 39.26 -36.92 -0.06zm542.28 -7.11l0.03 -32.81 81.02 0.12 0.82 -602.92 -69.55 -0.1 0.06 -30.76 555.58 0.79 1.8 175.33 -33.83 -0.06c-22.68,-56.76 -45.52,-95.07 -68.89,-114.91 -23.38,-19.87 -57.4,-29.82 -102,-29.88l-115 -0.19 -0.38 273.79c2.75,0.35 5.81,0.7 9.22,0.89 3.6,0.15 8.21,0.15 14.34,0.19 36.23,0.03 63.77,-9.51 82.44,-28.62 18.83,-19.11 30.99,-50.19 36.67,-93.28l33.87 0.07 -0.42 284.02 -33.82 -0.06c-3.54,-46.12 -14.94,-79.13 -33.9,-99.15 -18.92,-20.03 -48.64,-30.13 -88.98,-30.2l-19.45 -0.03 -0.41 295.3 111.59 0.16c55.03,0.1 98.11,-14.37 129.06,-43.4 31.15,-29.15 55.66,-77.83 73.35,-146.02l31.81 0.06 -7.33 222.5 -587.7 -0.83zm1259.58 -198.17l-0.29 199.94 -32.97 -0.06 -45.05 -36.96c-19.86,17.57 -43.11,30.86 -69.96,39.71 -26.85,9.03 -56.76,13.42 -89.74,13.36 -45.8,-0.06 -87.65,-9 -125.56,-26.63 -38.09,-17.84 -73.43,-44.88 -106.03,-81.33 -32.25,-35.44 -56.45,-73.22 -72.3,-113.4 -15.99,-40.18 -23.98,-83.26 -23.91,-128.9 0.06,-45.11 8.14,-87.47 24.44,-127.46 16.3,-39.8 40.78,-77.54 73.47,-113.2 32.7,-35.66 68.45,-62.26 107.11,-80.01 38.79,-17.53 81.02,-26.38 126.67,-26.31 28.01,0.06 54.51,4.04 79.63,12.09 24.92,8.06 48.99,20.06 71.89,35.98l36.26 -34.46 33.67 0.03 3.85 184.59 -35.88 -0.06c-21.98,-59.32 -47.88,-101.93 -77.92,-128.11 -30.04,-26.19 -67.98,-39.23 -113.59,-39.3 -51.45,-0.06 -86.36,16.81 -104.83,50.45 -18.36,33.64 -27.67,118.38 -27.86,253.92 -0.13,71.61 0.66,124.93 2.3,160.3 1.52,35.54 4.36,61.03 8.47,76.73 8.15,33.35 21.95,57.45 40.9,72.17 18.95,14.72 45.77,22.11 80.11,22.18 47.19,0.06 89.23,-17.16 126.53,-51.77 37.34,-34.5 61.66,-79.07 72.65,-133.55l37.94 0.06zm307.97 -132.19c-0.1,85.63 1.16,144.41 4.01,176.7 2.87,32.15 7.8,56.22 15.13,71.79 10.74,24.48 25.93,42.08 45.55,52.72 19.83,10.8 46.46,16.14 80.32,16.17 33.99,0.03 60.84,-5.21 80.67,-15.95 19.68,-10.58 34.91,-28.14 45.71,-52.56 7.7,-16.93 13.04,-42.55 16.17,-76.53 2.94,-34.02 4.55,-91.45 4.67,-171.96 0.1,-80.14 -1.32,-137.21 -4.2,-171.23 -3.03,-34.02 -8.27,-59.64 -15.98,-76.57 -10.71,-24.45 -25.9,-42.07 -45.55,-52.72 -19.8,-10.77 -46.62,-16.1 -80.61,-16.17 -33.86,-0.03 -60.52,5.21 -80.35,15.95 -19.65,10.59 -34.91,28.18 -45.71,52.6 -7.36,15.54 -12.35,39.6 -15.32,71.73 -2.94,32.31 -4.39,90.94 -4.51,176.03zm-198.91 -0.28c0.07,-44.6 8.85,-87.5 26.16,-128.47 17.47,-41 42.64,-78.74 75.68,-113.04 35.44,-35.67 73.06,-62.1 112.73,-79.48 39.86,-17.21 83.11,-25.87 130.27,-25.77 47.34,0.03 90.9,8.81 130.51,26.15 39.64,17.47 77.17,44.03 112.51,79.79 33.3,34.4 58.69,72.21 76.06,113.4 17.57,41.22 26.19,84.11 26.16,128.4 -0.07,45.45 -8.85,88.82 -26.5,130.16 -17.5,41.35 -43.02,79.07 -76.38,113.02 -34.4,35.35 -71.7,61.59 -111.72,78.65 -40.02,17.18 -83.93,25.68 -131.62,25.62 -47.51,-0.07 -90.91,-8.69 -130.71,-26 -39.61,-17.15 -77.01,-43.52 -111.97,-78.93 -32.95,-34.05 -58.03,-71.86 -75.4,-113.43 -17.18,-41.69 -25.84,-84.97 -25.78,-130.07zm790.08 341.54l0.28 -195.52 38.95 0.06c17.03,56.77 42.07,99.69 75.52,128.78 33.64,29.09 74.64,43.69 123.32,43.75 43.78,0.06 79.82,-11.5 108.59,-34.87 28.75,-23.38 43.12,-53.1 43.18,-89.14 0.03,-19.33 -3.38,-35.22 -10.17,-47.88 -6.85,-12.48 -18.45,-24.14 -34.84,-34.72 -18.6,-12.35 -55.5,-25.05 -110.52,-37.78 -20.31,-4.64 -35.85,-8.4 -46.62,-10.99 -64.41,-16.49 -111.19,-40.65 -140.37,-72.3 -29.19,-31.84 -43.66,-74.42 -43.59,-127.74 0.09,-62.54 19.64,-112.92 58.5,-151.48 39.01,-38.41 89.8,-57.65 152.69,-57.56 25.64,0.04 49.56,3.64 71.76,10.87 22.21,7.04 43.05,17.82 62.83,32.03l36.64 -29.34 32.12 0.06 3.85 176.35 -33.83 -0.04c-12.95,-51.8 -34.58,-91.31 -64.97,-118.35 -30.2,-27.2 -68.13,-40.78 -113.4,-40.84 -37.58,-0.06 -68.54,9.16 -92.83,27.38 -24.13,18.45 -36.29,41.67 -36.32,69.68 -0.07,42.05 44.47,73.03 133.48,92.99 11.97,2.56 21.04,4.65 27.36,6.01 83.2,19.45 141.6,47.03 175.05,82.63 33.61,35.59 50.29,86.01 50.19,151.3 -0.09,67.5 -21.51,123.37 -64.5,167.91 -42.96,44.54 -96.97,66.68 -162.1,66.59 -33.14,-0.04 -62.2,-3.86 -87.12,-11.41 -25.14,-7.39 -48.33,-19.36 -70.03,-35.63l-46.21 39.23 -36.89 -0.03zm856.5 501.88c-2.93,-4.36 -3.57,-11.12 -3.35,-16.64 2.56,-57.46 -22.61,-46.41 -53.19,-21.67 -14.75,11.91 -28.99,24.41 -43.74,36.38 -118.36,95.71 -243.06,181 -380.62,248.15 -128.91,62.95 -261.16,116.59 -396.35,163.65 -15.83,5.5 -46.15,1.1 -39.55,27.35 3.86,15.35 24.45,30.29 49.59,29.13 52.82,-2.5 44.48,20.84 18.01,49.21 0,0 0,0.03 0,0.06 -7.46,2.5 -14.5,6.19 -9.64,15.26 1.17,2.05 9.67,0.09 14.75,-0.03 35.57,2.68 65.83,-15.48 96.97,-27.29 126.13,-47.98 251.09,-96.79 368.72,-166.28 46.81,-27.67 95.32,-58.43 146.62,-81.81 21.26,-9.69 67.03,-17.4 61.63,-44 -7.9,-38.88 -0.64,-39.45 30.38,-30.54 28.87,8.34 35.22,-2.21 21.1,-27.92 -5.94,-10.87 -18.6,-19.93 -10.9,-36.8 30.26,-4.46 50.48,51.99 91.51,9.38 37.27,-38.76 77.77,-67.06 38.06,-125.59zm-400.93 -1908.24l-10.17 -5.62c-3.85,0.66 -7.93,2.37 -12.28,5.49 -0.86,0.6 -4.87,-0.85 -5.06,-1.83 -1.26,-6.09 -3,-11.31 -5.15,-15.76 -15.6,-8.28 -31.36,-16.3 -47.31,-24.07l-10.58 -5.15c-19.15,-1.73 -38.98,-3.06 -53.95,-14.91 -41.35,-32.78 -101.93,-39.98 -151.4,-63.99 -50.1,-24.26 -102.5,-40.4 -154.49,-58.69 -33.99,-11.97 -75.36,-13.36 -94.76,-52.78 -1.42,-2.91 -6.6,-7.23 -7.55,-6.66 -30.26,17.91 -56.51,9.91 -82.5,-1.55 -12.76,-2.24 -25.87,-6.92 -39.45,-14.88 -11.82,-6.89 -33.77,0.28 -34.78,-20.85 -0.79,-16.71 11.65,-26.4 28.02,-29.78 0.31,0.16 0.5,0.47 0.85,0.6l0.13 -0.89c-0.35,0.07 -0.64,0.19 -0.98,0.29 -10.81,-5.37 -4.49,-39.49 -32.95,-17.06 -37.78,29.88 -85.35,37.08 -129.82,28.3 -298.21,-58.97 -599.39,-81.21 -902.43,-67.97 -215.7,9.35 -429.39,36.54 -641.11,83.99 -169.21,37.87 -335.55,84.49 -495.41,148.93 -98.99,39.92 -195.71,84.08 -288.76,134.84l-10.96 0c-53.64,25.62 -109.26,48.58 -155.19,84.12 -28.61,22.2 -55.53,51.48 -85.79,74.45 -30.38,23.05 -62.13,40.58 -104.26,34.55 -25.68,-3.63 -60.93,-5.27 -28.97,41.73 17.94,26.34 -12.73,46.46 -28.84,60.07 -108.18,91.23 -180.73,208.76 -250.64,328.73 -44.12,75.71 -69.77,158.53 -94.5,241.73 -13.08,43.94 -20.98,89.7 -83.9,88.06 -24.19,-0.57 -11.4,22.11 -11.53,35.06 -0.25,18.61 4.14,43.88 -21.41,43.56 -19.08,-0.28 -36.96,-13.8 -33.74,-42.48 4.11,-36.61 -3.31,-73.98 23.35,-106.92 14.02,-17.44 -6.1,-39.74 0.41,-63.59 44.69,-163.21 114.02,-311.92 221.17,-445.21 73.06,-90.97 153.44,-173.28 240.59,-249.41 21.32,-18.6 38.98,-62.29 84.34,-31.77 13.96,9.35 22.08,-14.85 24.03,-24.14 8.44,-39.99 37.85,-54.61 69.84,-72.87 6.48,-3.66 12.92,-7.42 19.3,-11.21 27.55,-18.26 55.41,-35.91 83.58,-52.94 28.49,-18.7 56.89,-37.62 85.76,-55.69 18.79,-11.75 34.24,-18.16 47.03,-19.17 12.03,-6.32 24.13,-12.54 36.29,-18.67 -0.22,-8.53 11.91,-13.52 26.82,-17.24 17.47,-4.36 29.15,-17.31 44.1,-23.38 7.77,-3.16 16.14,-6.47 23.97,-8.43l8.28 -0.22c117.75,-53.16 239.55,-98.11 364.85,-136.17 198.56,-60.33 399.67,-103.57 604.76,-129.32 240.56,-30.26 482.36,-43.27 724.34,-22.08 294.36,25.84 592.57,35.66 862.66,179.32 6.2,3.25 16.33,1.48 17.03,10.9 0.76,9.95 -3.63,19.71 -13.74,22.77 -12.1,3.7 -24.04,8.47 -35.98,13.46l91.22 -2.21c1.49,-9.1 -7.26,-22.18 -20.65,-36.55 0,0 0,-0.03 0,-0.03 -7.46,-2.53 -14.5,-6.22 -9.64,-15.29 1.17,-2.05 9.67,-0.09 14.75,0.03 35.57,-2.68 65.83,15.48 96.97,27.29 126.13,48.02 251.09,96.79 368.72,166.31 46.81,27.64 95.32,58.4 146.62,81.77 21.26,9.7 67.03,17.41 61.63,44l-0.6 3.13c8.71,5.88 17.37,11.85 25.96,17.91 245.9,173.32 455,383.49 568.31,667.58 96.37,241.55 105.94,489.19 8.75,737.55 -30.2,77.1 -68.04,148.49 -109.74,218.83 -8.78,14.94 -14.84,36.68 -40.71,10.62 -19.14,-19.33 -50.57,-9.04 -76.85,-7.05 -10.9,0.76 -24.07,7.68 -31.34,-4.64 -7.51,-12.67 5.75,-19.52 11.98,-28.43 162.16,-232.51 214.41,-486.62 147,-763 -34.4,-141.01 -95.71,-272.34 -182.86,-386.43 -50.69,-66.34 -115.6,-124.49 -178.24,-182.8 -81.4,-75.77 -164.91,-146.02 -264,-196.94 -13.27,-6.82 -25.27,-13.49 -20.31,-34.74 5.4,-22.87 -18.98,-33.83 -31.84,-29.1 -18.22,6.73 -31.36,-6.98 -45.2,-15.41l-11.09 0zm-3953.47 1113.24c6.22,-75.27 6.38,-74.77 -53,-51.33 -9.79,3.82 -22.49,3.06 -33.33,1.2 -48.77,-8.28 -58.43,10.58 -37.74,52.09 -4.61,20.5 -12.19,46.27 5.56,58.81 23.37,16.43 32.69,25.68 6.63,46.84 -4.74,3.86 -3.09,18.86 -0.6,27.58 16.14,56.07 30.1,113.11 50.82,167.53 112.33,295.02 322.82,509.59 576.27,684.99 233.23,161.41 488.9,276.54 760.95,359.14 198.56,60.33 399.67,103.57 604.76,129.35 240.56,30.23 482.36,43.27 724.34,22.05 294.36,-25.84 592.57,-35.67 862.66,-179.29 6.2,-3.28 16.33,-1.52 17.03,-10.93 0.76,-9.95 -3.63,-19.71 -13.74,-22.77 -62.38,-18.92 -120.76,-67.09 -191.79,-25.46 -11.82,6.88 -33.77,-0.29 -34.78,20.85 -0.79,16.7 11.65,26.4 28.02,29.78 0.31,-0.12 0.5,-0.47 0.85,-0.6l0.13 0.89c-0.35,-0.07 -0.64,-0.19 -0.98,-0.29 -10.81,5.37 -4.49,39.48 -32.95,17.06 -37.78,-29.88 -85.35,-37.08 -129.82,-28.3 -298.21,58.97 -599.39,81.21 -902.43,67.97 -215.7,-9.32 -429.39,-36.54 -641.11,-83.96 -169.21,-37.9 -335.55,-84.52 -495.41,-148.96 -226.57,-91.35 -441.13,-204.96 -627.24,-368.77 -184.63,-162.36 -333.4,-346.06 -403.52,-585.96 -6.79,-23.19 -1.52,-61.12 -48.64,-51.96 -12.54,2.4 -16.97,-14.28 -3.48,-23.16 13.61,-8.91 36.55,-11.24 26.5,-35 -8.91,-21.19 -29.53,-31.23 -51.29,-29.56 -35.41,2.62 -56.45,-17.82 -77.39,-40.53l-2.81 0.7 2.78 -0.7c37.84,-15.69 75.68,-31.58 114.75,0.7zm4451.94 605.51c-36.73,13.05 -67.81,112.01 -43.43,128.09 20.34,13.36 53.38,15.03 4.14,36.29 -11.72,5.05 -1.87,28.52 8.12,39.07 11.34,12.04 20.21,0.03 27.48,-8.3 34.62,-39.74 70.12,-79.19 102.84,-119.84 26.66,-33.08 67.69,-54.78 86.33,-104.24 -66.55,0.88 -127.61,8.37 -185.48,28.93zm-1178.11 -2029.78l0 0 0 0c6.38,3.38 12.38,2.81 18.22,0.47 -5.84,2.34 -11.84,2.88 -18.22,-0.47 7.61,-5.09 15.13,-11.69 24,-2.31 -8.87,-9.38 -16.39,-2.78 -24,2.31zm25.01 -2.85l0 0 -0.22 1.11 0.25 -1.07 -0.03 -0.04zm0.6 0.6l0 0 -0.03 0c6.95,9.13 14.06,14.63 21.64,16.59 -7.58,-1.96 -14.69,-7.46 -21.61,-16.59 17.97,-13.33 35.69,-16.89 55.82,4.55 -20.13,-21.44 -37.85,-17.84 -55.82,-4.55zm-25.61 2736.95l0 0 0 0c6.38,-3.38 12.38,-2.81 18.22,-0.47 -5.84,-2.34 -11.84,-2.88 -18.22,0.47 7.61,5.09 15.13,11.69 24,2.31 -8.87,9.38 -16.39,2.78 -24,-2.31zm25.01 2.84l0 0 -0.22 -1.1 0.25 1.07 -0.03 0.03zm0.6 -0.6l0 0 -0.03 0c6.95,-9.12 14.06,-14.59 21.64,-16.58 -7.58,1.99 -14.69,7.46 -21.61,16.58 17.97,13.33 35.69,16.9 55.82,-4.54 -20.13,21.44 -37.85,17.84 -55.82,4.54zm-462.36 -2712.31c-22.59,-13.61 -47.95,-12.19 -73.03,-8.08 -9.41,1.58 -9.54,14.53 -4.83,17.81 22.45,15.7 48.29,16.3 74.07,10.11 10.45,-2.56 5.84,-11.43 3.79,-19.84zm528.5 112.2c-0.25,-1.8 -1.23,-3.47 -3,-5.02 -18.98,-16.21 -41.91,-22.78 -65.98,-20.56 -13.77,-8.91 -32.69,-5.06 -48.58,-8.47 -4.17,-0.88 -9.38,2.72 -18.67,5.72 18.61,25.65 38.76,38.25 67.94,32.5 1.3,-0.25 2.59,-0.6 3.79,-1.11 15.64,9.76 33.71,10.96 51.55,11.06 -0.15,6.98 3.04,12.16 9.61,12.79 23.18,2.24 44.12,30.45 68.35,13.27 1.93,0.88 3.92,1.67 5.94,2.3 15.03,4.68 29.12,14.85 44.69,16.68 1.3,6.1 6.76,11.82 14.37,12.57 23.79,2.4 46.22,31.05 71.01,6.32 7.17,-7.14 1.93,-17.59 -12.38,-24.67 -15.64,6.79 -31.56,-9.32 -48.68,-11.56 -0.69,-1.8 -1.86,-3.22 -3.34,-3.82 -24.83,-10.27 -50.23,-20.34 -76.41,-25.97l-1.45 -0.85c-19.05,-10.71 -38.89,-13.61 -58.76,-11.18zm-1131.71 -141.19c-9.38,6 -20.94,11.81 -11.25,21.54 20.41,20.56 46.06,1.36 69.3,5.31 10.59,1.8 16.08,-12.92 8.94,-20.28 -20.37,-21.1 -45.29,-7.58 -66.99,-6.57zm789.28 78.18c22.9,11.49 49.5,18.44 77.77,15 7.99,-0.98 10.93,-10.96 4.77,-17.69 -21.51,-23.6 -51.77,-15.07 -78.34,-18.83 -8.43,-1.16 -7.99,10.21 -4.2,21.52zm-1122.58 -44.01c-28.34,-14.49 -54.14,-1.42 -79.89,6.89 -7.32,2.37 -12.54,13.68 -6.98,18.07 26.22,20.69 52.75,-3.26 79.63,-2.21 12.01,0.44 8.63,-12.89 7.24,-22.75zm793.14 7.18c18,-4.87 20.78,-14.41 12.73,-22.12 -21.17,-20.34 -48.87,-14.59 -74.36,-13.61 -11.31,0.44 -16.05,13.58 -7.83,20.69 21.57,18.83 49.81,9.44 69.46,15.04zm277.45 31.46c10.2,-8.34 9.64,-17.85 3.79,-21.77 -24.54,-16.33 -51.74,-21.6 -80.13,-11.27 -9.6,3.47 -8.22,14.4 -1.99,17.84 25.17,13.68 53.22,13.43 78.33,15.2zm-1215.45 8.14c11.47,-3.82 20.5,-12.35 12.7,-20.5 -21.58,-22.71 -47.16,-7.99 -70.98,-2.52 -9.16,2.11 -21,12.51 -13.52,19.49 22.02,20.4 48.49,4.61 71.8,3.53zm265.39 -35.09c12.7,-5.05 21.57,-13.52 13.17,-22.01 -22.01,-22.11 -48.74,-4.81 -73.25,-3.73 -10.74,0.44 -15.76,15.73 -8.43,21.64 21.89,17.49 47.28,3 68.51,4.1zm462.33 -28.81c7.17,4.33 13.24,11.16 19.02,10.9 25.24,-1.23 51.71,15.38 75.17,-3.88 2.53,-2.09 -0.09,-15.13 -4.16,-19.37 -11.79,-12.31 -62.83,-5.33 -90.03,12.35zm-131.46 6.07c25.59,9.25 53.32,5.15 80.42,1.36 9.03,-1.3 15.29,-15.29 5.46,-21.73 -23.75,-15.45 -50.41,-10.24 -75.93,-3.35 -9.29,2.52 -15.98,9.63 -9.95,23.72zm-266.43 12.92c23.53,1.83 50.66,7.74 76.75,-6.07 8.28,-4.45 16.46,-17.56 7.36,-22.2 -26.25,-13.36 -54.67,-9.29 -81.27,1.67 -8.78,3.64 -14.37,12.35 -2.84,26.6zm1771.82 310.68c27.7,-5.37 43.46,7.87 52.97,29.38 1.13,2.59 -4.84,11.78 -8.63,12.54 -32.66,6.54 -22.04,-34.87 -44.34,-41.92zm733.91 1298.94c0.92,25.81 20.28,66.46 -12.32,72.71 -36.48,7.05 -8.59,-20.4 -5.4,-31.81 3.95,-14.15 11.62,-27.32 17.72,-40.9zm-185.67 -895.83c9.04,26.98 47.73,34.78 43.44,67.79 -1.52,11.68 -12.95,11.37 -21.2,3.25 -18.48,-18.48 -33.54,-39.55 -39.13,-65.19 -1.2,-5.53 9.5,-10.21 16.89,-5.85zm-3426.98 -475.72c19.58,-7.05 38.15,-25.49 62.51,-11.41 7.89,4.58 9.54,14.53 1.61,18.23 -19.62,9 -39.58,22.02 -62.61,12.73 -7.7,-3.1 -8.46,-11.56 -1.51,-19.55zm1858.46 2442.24c-22.59,13.61 -47.95,12.16 -73.03,8.06 -9.41,-1.58 -9.54,-14.53 -4.83,-17.79 22.45,-15.73 48.29,-16.33 74.07,-10.14 10.45,2.56 5.84,11.44 3.79,19.87zm-1333.56 -88.09c-2.52,4.99 -2.97,7.67 -4.29,8.18 -30.29,12 -54.52,-2.4 -77.11,-19.49 -6.85,-5.25 -2.71,-15.83 4.99,-17.41 31.81,-6.57 55.25,8.69 76.41,28.72zm1852.87 -38.26c7.99,5.63 12.76,13.52 6.19,19.15 -20.62,17.62 -45.89,23.81 -72.2,19.8 -6.95,-1.04 -6,-13.27 -0.22,-19.14 18.76,-18.86 42.86,-19.84 66.23,-19.81zm-3026.91 -1824.25c-1.04,-10.23 -3.06,-15.06 -1.52,-17.02 15.77,-19.74 19.37,-51.2 50.89,-55.66 8.37,-1.17 15.76,8.12 12.67,14.78 -11.91,25.43 -25.97,49.85 -62.04,57.9zm-211 734.93c-6.54,9.35 -12.92,16.49 -19.49,8.84 -19.26,-22.27 -20.72,-49.72 -16.74,-77.2 0.98,-7.07 10.3,-13.26 16.87,-5.81 19.46,22.24 10.36,51.61 19.36,74.17zm2115.39 1244.64c-9.38,-6.01 -20.94,-11.82 -11.25,-21.55 20.41,-20.56 46.06,-1.35 69.3,-5.3 10.59,-1.8 16.08,12.92 8.94,20.31 -20.37,21.1 -45.29,7.55 -66.99,6.54zm-1561.01 -2264.42c-13.58,6.83 -26.95,21.74 -44.32,15.64 -14.91,-5.24 -10.77,-19.43 -1.2,-27.1 12.7,-10.2 26.28,-25.18 45.01,-14.75 9.83,5.46 6.13,16.36 0.51,26.21zm294.51 1943.84c9.7,8.41 31.97,11.06 22.65,26.28 -16.87,27.52 -36.26,2.88 -52.85,-4.8 -11.9,-5.56 -35.94,-12.82 -22.55,-30.48 18.67,-24.7 35.41,5.91 52.75,9zm2776.5 23.25c7.23,6.16 11.75,12 4.95,19.4 -18.6,20.18 -41.88,31.9 -69.23,30.1 -12.23,-0.82 -12.51,-16.21 -5.34,-20.75 21.45,-13.71 43.34,-28.46 69.62,-28.75zm-2057.81 -2362.64l-3.98 1.76 0 -1.67 3.98 -0.09zm2917.5 1014.84c13.64,5.88 11.68,16.65 13.45,25.37 4.11,19.64 17.85,38.18 8.37,59.35 -1.04,2.27 -12.13,3.5 -14.78,1.07 -17.94,-16.36 -20.59,-38.6 -20.15,-61.31 0.16,-9 -1.74,-19.61 13.11,-24.48zm-3322.15 1467.86c44.12,-20.28 68.85,5.5 101.99,29.72 -44.89,15.07 -72.27,-1.83 -101.99,-29.72zm-862.95 -1927.44c24.83,-5.31 28.4,-45.14 61.31,-40.88 14.78,1.93 12.22,13.9 6.06,20.76 -16.99,18.92 -31.74,43.43 -60.99,43.58 -10.71,0.1 -12.89,-11.59 -6.38,-23.46zm2604.69 2026.53c22.9,-11.5 49.5,-18.45 77.77,-15 7.99,1.01 10.93,10.96 4.77,17.72 -21.51,23.56 -51.77,15.03 -78.34,18.79 -8.43,1.2 -7.99,-10.2 -4.2,-21.51zm-2259.23 -338.8c-44.47,8.06 -64.21,-14.18 -82.88,-37.62 -1.07,-1.33 4.14,-11.21 7.17,-11.59 35.57,-4.8 49.84,22.84 75.71,49.21zm3874.54 -823.65c17.12,20.75 2.97,42.36 -1.55,63.42 -2.02,9.32 -13.36,19.68 -20.02,9.83 -14.72,-21.8 -0.6,-46.05 2.15,-69.11 1.04,-8.91 10.64,-8.47 19.42,-4.14zm-4117.98 -923.78c0.16,-10.14 -0.47,-12.51 0.35,-13.87 14.69,-24.32 31.34,-46.91 61.34,-52.53 3.38,-0.66 13.62,14.53 12.83,15.38 -19.14,21.48 -39.83,41.16 -74.52,51.02zm-345.17 413.81c-0.57,-43.27 15.82,-69.74 52.34,-95.23 -3.51,43.53 -13.14,73.72 -52.34,95.23zm4388.67 -11.81c3.7,21.67 26.37,41.41 18.7,68.07 -3.03,10.55 -19.02,6.16 -23.69,-1.26 -11.69,-18.67 -27.73,-37.37 -20.53,-61.95 2.97,-10.29 12.1,-13.83 25.52,-4.86zm-2663.41 1728.23c-28.34,14.5 -54.14,1.42 -79.89,-6.89 -7.32,-2.37 -12.54,-13.67 -6.98,-18.06 26.22,-20.69 52.75,3.28 79.63,2.24 12.01,-0.48 8.63,12.85 7.24,22.71zm2753.37 -1393.19c-6.79,0.98 -16.27,5.24 -19.55,2.4 -26.54,-23.28 -14.38,-55.37 -16.46,-84.05 -0.51,-6 12,-14.91 17.06,-8.34 19.52,25.46 14.02,57.36 18.95,89.99zm-3033.1 1320.03c14.56,5.28 20.46,15.96 14.08,23 -20.97,23.34 -45.39,3.13 -68.16,1.14 -10.42,-0.82 -24.89,-10.17 -14.53,-22.65 22.52,-27.17 47.98,11.81 68.61,-1.49zm1982.62 -2396.66c4.9,-8.21 5.53,-10.9 6.83,-11.25 36,-10.07 60.67,10.02 83.86,32.63 1.42,1.43 -2.43,12.64 -5.31,13.4 -36.61,9.57 -56.82,-19.37 -85.38,-34.78zm-2990.55 1972.14c14.24,11.88 42.35,19.08 31.08,40.97 -12,23.31 -29.54,-0.38 -41.06,-8.15 -13.59,-9.19 -43.94,-13.01 -31.24,-38.03 12.66,-25.11 27.7,1.58 41.22,5.21zm3856.66 -289.24c-11.37,15.35 -18.95,42.45 -41.1,27.74 -18.54,-12.39 2.34,-29.66 10.68,-42.17 9.51,-14.37 17.69,-42.93 39.2,-30.23 25.2,14.91 -6.86,29.88 -8.78,44.66zm-3663.83 -1561.67c11.12,12.25 21.36,20.4 9.26,28.08 -21.45,13.58 -41.54,33.7 -69.68,29.5 -11.94,-1.77 -12.32,-15.73 -3.73,-21.38 20.97,-13.84 43.81,-24.96 64.15,-36.2zm3844.63 1004.33c10.93,8.4 8.24,84.74 -3.44,91.66 -7.74,4.55 -16.27,2.5 -19.3,-4.93 -11.47,-27.76 -3,-55.62 3.28,-82.82 1.83,-7.96 11.94,-7.14 19.46,-3.91zm-1956.66 1337.09c18,4.86 20.78,14.4 12.73,22.11 -21.17,20.34 -48.87,14.59 -74.36,13.61 -11.31,-0.41 -16.05,-13.55 -7.83,-20.69 21.57,-18.82 49.81,-9.44 69.46,-15.03zm1412.3 -452.57c-8.91,39.42 -37.85,50.69 -69.37,57.29 -10.11,2.15 -13.71,-10.29 -9.63,-15.13 20.24,-23.81 44.16,-42.45 79,-42.16zm-1134.85 421.11c10.2,8.37 9.64,17.85 3.79,21.76 -24.54,16.33 -51.74,21.64 -80.13,11.28 -9.6,-3.48 -8.22,-14.41 -1.99,-17.85 25.17,-13.68 53.22,-13.42 78.33,-15.19zm-1533.69 -2558.14c0.98,8.97 4.05,20.95 2.06,21.83 -24.86,11.21 -48.23,30.01 -77.99,22.33 -7.52,-1.96 -10.83,-13.52 -5.5,-18.67 21.8,-21.16 51.18,-19.55 81.43,-25.49zm3056.7 746.74c11.28,21.26 28.87,42.39 25.02,70.22 -1.17,8.18 -17.5,7.36 -17.91,2.4 -2.65,-28.62 -35.69,-43.75 -32.57,-72.52 1.14,-10.36 15.2,-6.51 25.46,-0.1zm-952.77 1683.88c10.86,-41.34 51.01,-32.4 76.37,-46.4 2.09,-1.17 11.15,4.77 12.51,8.88 3.51,10.26 -2.05,20.62 -11.5,22.52 -24.82,5.09 -46.43,27.04 -77.38,15zm-1785.69 119.4c11.47,3.79 20.5,12.32 12.7,20.47 -21.58,22.71 -47.16,7.99 -70.98,2.53 -9.16,-2.09 -21,-12.51 -13.52,-19.46 22.02,-20.41 48.49,-4.64 71.8,-3.54zm-530.34 -2466.72c10.27,-43.72 52.34,-30.67 76.88,-46.02 1.96,-1.24 11.5,4.29 12.76,8.21 3.38,10.26 -2.08,20.59 -11.71,22.52 -24.99,4.96 -47.45,23.85 -77.93,15.29zm-1098.68 965.32c13.62,25.23 -9.12,49.46 -12.38,75.65 -0.98,7.83 -14.59,10.23 -18,4.07 -14.53,-25.96 4.2,-51.52 4.33,-77.8 0.03,-9.19 12.44,-12.41 26.05,-1.92zm106.01 644.71c3.51,25.21 39.67,36.96 30.89,67.78 -2.68,9.42 -15.76,10.33 -22.87,1.2 -14.24,-18.51 -39.77,-32.21 -30.83,-61.65 2.81,-9.32 10.68,-15.32 22.81,-7.33zm1788.4 891.75c12.7,5.09 21.57,13.52 13.17,22.02 -22.01,22.14 -48.74,4.83 -73.25,3.73 -10.74,-0.45 -15.76,-15.73 -8.43,-21.61 21.89,-17.53 47.28,-3.03 68.51,-4.14zm-1894.94 -1138.54c15.73,20.95 19.74,48.46 21.19,75.31 0.63,12.09 -16.17,10.67 -21.1,4.13 -17.05,-22.45 -25.71,-48.83 -21.57,-77.26 1.48,-10.04 11.5,-5.43 21.48,-2.18zm801.54 -1261.82c11.05,8.91 19.39,17.69 12.73,21.95 -23.88,15.13 -46.97,34.47 -76.92,34.84 -8.78,0.1 -8.24,-13.01 -2.02,-17.08 22.37,-14.66 45.8,-27.64 66.21,-39.71zm1555.73 2429.17c7.17,-4.33 13.24,-11.12 19.02,-10.9 25.24,1.27 51.71,-15.38 75.17,3.89 2.53,2.08 -0.09,15.13 -4.16,19.36 -11.79,12.32 -62.83,5.34 -90.03,-12.35zm-1325.37 -208.25c27.48,-20.5 46.05,15.07 70.53,12.66 11.6,-1.16 26.28,4.17 18.89,18.48 -15.85,30.89 -38.94,4.8 -57.9,2.09 -14.37,-2.02 -34.27,-7.24 -31.52,-33.23zm2975.77 -309.68c26.06,-7.01 49.25,-15 60.46,-40.81 1.74,-4.04 16.77,-4.96 18.6,3.98 6.73,33.74 -30.67,32.6 -43.27,51.71 -7.3,11.12 -19.01,20.88 -32.38,7.52 -3.85,-3.86 -2.27,-13.2 -3.41,-22.4zm172.37 -128.52c12.54,11.43 15.54,20.88 5.09,27.04 -21.61,12.66 -31.46,48.29 -63.78,38.06 -13.64,-4.33 -4.17,-19.74 2.18,-28.62 14.79,-20.63 37.05,-28.14 56.51,-36.48zm-188.85 -1549.1c-11.53,-12.29 -39.77,-15.23 -30.23,-40.66 8.53,-22.58 25.8,-8.93 37.21,-0.97 16.48,11.46 42.32,23.5 32.47,46.77 -7.58,18.04 -25.81,0.67 -39.45,-5.14zm-700.09 2038c6.03,-2.91 12.35,-6.89 19.27,-9.07 20.84,-6.48 39.86,-23.53 63.61,-14.25 8.28,3.26 7.62,16.46 2.06,18.74 -25.27,10.45 -51.14,20.68 -77.8,26.28 -12.92,2.74 -10.33,-10.97 -7.14,-21.7zm-3111.34 -653.09c13.23,22.81 43.27,37.81 38.66,69.81 -1.49,10.23 -16.52,11.87 -23.03,3.6 -16.68,-21.17 -41.44,-39.55 -35.56,-71.26 1.29,-6.76 12.03,-7.36 19.93,-2.15zm3487.22 499.51c24.13,-4.96 43.4,-31.17 74.23,-23.72 8.27,2.02 12.95,14.31 7.64,16.99 -23.62,12.04 -42.07,37.91 -73.09,31.4 -9.79,-2.08 -15.19,-10.08 -8.78,-24.67zm-3633.72 -1324.17c-9.76,17.31 -20.53,34.52 -32.09,20.02 -21.29,-26.66 27.29,-46.56 13.39,-77.16 -3.19,-7.05 12.89,-16.49 21.04,-9.48 29.72,25.46 -8.72,47.44 -2.34,66.62zm2192.55 1629.23c25.59,-9.25 53.32,-5.14 80.42,-1.35 9.03,1.29 15.29,15.28 5.46,21.73 -23.75,15.48 -50.41,10.23 -75.93,3.35 -9.29,-2.5 -15.98,-9.64 -9.95,-23.73zm-1173.51 -2527.9c10.9,7.07 15.64,16.86 9.16,20.78 -23.46,14.12 -46.02,33.55 -75.55,31.02 -11.37,-0.98 -12.98,-18.29 -6.29,-22.55 23,-14.6 46.82,-29.79 72.68,-29.25zm-920.93 633.12c13.64,-12.22 16.39,-44.06 44.53,-29.94 13.62,6.82 6,23.56 -2.71,34.46 -13.71,17.08 -28.12,45.8 -49.69,37.36 -21.89,-8.56 3.48,-27.13 7.87,-41.88zm837.86 1651.88c9,8.72 35.73,10.9 20.53,30.64 -17.81,23.28 -38.06,1.77 -55.43,-6.98 -11.81,-6.03 -36.26,-12.38 -21.86,-30.57 17.15,-21.7 37.78,-1.2 56.76,6.91zm2699.17 -2183.7c12.19,7.92 32.82,17.94 20.28,32.53 -20.66,24.07 -39.77,-3.51 -58.43,-11.53 -12.07,-5.21 -36.14,-14.43 -22.68,-29.28 17.62,-19.36 41.09,-1.64 60.83,8.28zm-1709.02 2413.69c23.53,-1.84 50.66,-7.74 76.75,6.06 8.28,4.45 16.46,17.56 7.36,22.21 -26.25,13.36 -54.67,9.31 -81.27,-1.68 -8.78,-3.63 -14.37,-12.35 -2.84,-26.59zm-1587.61 -541.9c-13.61,-13.55 -44.19,-19.71 -30.04,-46.53 11.06,-20.91 26.16,-0.76 37.34,6.32 17.02,10.89 42.99,22.26 30.92,46.62 -9.44,19.17 -25.49,-0.7 -38.22,-6.41zm-54.86 -87.34c-8.5,16.14 -19.59,18.22 -26.25,11.72 -19.27,-18.73 -48.68,-31.59 -49.25,-62.95 -0.28,-14.44 16.43,-16.65 25.21,-7.87 18.76,18.95 34.81,40.62 50.29,59.1z"/>
  </g>
 </g>
</svg>
