<?xml version="1.0" encoding="UTF-8"?>
<!DOCTYPE svg PUBLIC "-//W3C//DTD SVG 1.1//EN" "http://www.w3.org/Graphics/SVG/1.1/DTD/svg11.dtd">
<!-- Creator: CorelDRAW 2020 (64-Bit) -->
<svg xmlns="http://www.w3.org/2000/svg" xml:space="preserve" width="177.039mm" height="3.1468mm" version="1.1" style="shape-rendering:geometricPrecision; text-rendering:geometricPrecision; image-rendering:optimizeQuality; fill-rule:evenodd; clip-rule:evenodd"
viewBox="0 0 17703.88 314.68"
 xmlns:xlink="http://www.w3.org/1999/xlink"
 xmlns:xodm="http://www.corel.com/coreldraw/odm/2003">
 <defs>
  <style type="text/css">
   <![CDATA[
    .fil0 {fill:#CC9933}
   ]]>
  </style>
 </defs>
 <g id="Capa_x0020_1">
  <metadata id="CorelCorpID_0Corel-Layer"/>
  <path class="fil0" d="M17391.17 136.03c13.39,-73.35 77.59,-128.93 154.81,-128.93 86.92,0 157.37,70.44 157.37,157.37 0,86.93 -70.45,157.37 -157.37,157.37 -77.22,0 -141.42,-55.58 -154.81,-128.93l-4783.7 0c17.48,-18.8 34.61,-37.74 51.07,-56.88l4732.63 0zm-11207.9 56.88l-5871.63 0c-13.39,73.35 -77.58,128.93 -154.8,128.93 -86.92,0 -157.37,-70.44 -157.37,-157.37 0,-86.93 70.45,-157.37 157.37,-157.37 77.22,0 141.41,55.58 154.8,128.93l5820.56 0c16.46,19.14 33.59,38.08 51.07,56.88z"/>
 </g>
</svg>
