<?xml version="1.0" encoding="UTF-8"?>
<!DOCTYPE svg PUBLIC "-//W3C//DTD SVG 1.1//EN" "http://www.w3.org/Graphics/SVG/1.1/DTD/svg11.dtd">
<!-- Creator: CorelDRAW 2020 (64-Bit) -->
<svg xmlns="http://www.w3.org/2000/svg" xml:space="preserve" width="52.749mm" height="45.089mm" version="1.1" style="shape-rendering:geometricPrecision; text-rendering:geometricPrecision; image-rendering:optimizeQuality; fill-rule:evenodd; clip-rule:evenodd"
viewBox="0 0 5274.9 4508.9"
 xmlns:xlink="http://www.w3.org/1999/xlink"
 xmlns:xodm="http://www.corel.com/coreldraw/odm/2003">
 <defs>
  <style type="text/css">
   <![CDATA[
    .fil0 {fill:#D1070A}
    .fil1 {fill:white}
   ]]>
  </style>
 </defs>
 <g id="Capa_x0020_1">
  <metadata id="CorelCorpID_0Corel-Layer"/>
  <g id="_2153755311888">
   <path class="fil0" d="M1544.11 4213.31c-560.69,-283.8 -962.22,-835.08 -1107.77,-1441.96 -8.94,0.95 -18.04,1.46 -27.2,1.46l-160.58 0c-139.17,0 -252.7,-113.53 -252.7,-252.7l0 -24.35c0,-65.48 25.12,-125.27 66.21,-170.22l0 -107.05c-41.09,-44.98 -66.21,-104.74 -66.21,-170.22l0 -22.83c0,-139.17 113.53,-252.7 252.7,-252.7l183.74 0c0.56,-2.43 1.13,-4.89 1.7,-7.32 132.57,-559.85 450.77,-1041.42 926.59,-1367.23 401.79,-275.15 903.6,-425.63 1391.43,-385.64 103.95,8.5 192.23,76.75 227.8,172.68 24.13,5.47 47.95,12.1 71.04,20.22l0.15 -0.19c69.84,-89.64 190.09,-125.12 297.46,-87.78 352.6,122.68 661.83,309.36 914.9,585.17 23.22,25.3 41.16,54.65 53.04,86.3 10.54,6.72 20.72,14.24 30.38,22.58 1.26,1.04 2.59,2.02 3.85,3 30.71,23.6 56.83,47.38 80.14,78.81 196.34,264.66 336.37,559.84 406.27,880.41 7.48,-0.66 15.06,-1.01 22.71,-1.01l158.28 0c139.17,0 252.69,113.53 252.69,252.7l0 22.83c0,63.02 -23.28,120.76 -61.66,165.11l0 318.14c0,139.17 -113.52,252.69 -252.69,252.69l-20.4 0c-37.47,0 -72.59,-7.36 -104.37,-21.61 -33.48,143.94 -80.48,283.53 -134.02,421.59 -10.74,38.06 -29.75,73.12 -55.53,102.72 -10.58,17.06 -20.47,37.94 -28.68,54.23 -41.44,82.16 -82.41,153.2 -147.03,214.82 -10.14,27.14 -24.33,52.79 -43.88,77.55 -47.16,59.73 -95.99,118.23 -146.69,175.02 -14.87,16.71 -30.92,30.92 -48.04,42.96 -8.15,10.2 -17.15,20.06 -27.16,29.63 -250.93,239.93 -545.63,422.09 -878.14,524.3 -6,1.9 -12.42,4.74 -18.26,7.08 -34.71,13.93 -68.07,25.87 -104.96,33.26 -37.18,7.45 -72.75,7.77 -108.37,2.97 -47.98,28.14 -101.84,45.74 -159.96,49.37 -14.28,0.88 -28.43,0.88 -42.45,0.03 -37.81,14.15 -78.78,19.68 -119.65,15.6l-34.87 -3.47c-56.39,-5.62 -112.77,-11.25 -169.15,-16.99 -8.53,-0.89 -16.96,-2.06 -25.36,-3.45 -218.3,24.23 -422.35,-24.76 -627.31,-99.91 -88.83,-32.56 -176.6,-67.97 -263.72,-104.9 -41.66,-17.68 -74.04,-41.53 -104.27,-71.7z"/>
   <path class="fil1" d="M721.76 1898.74l-13.78 0 -16.77 0 -13.64 0 -13.84 0c4.87,-25.14 10.27,-50.19 16.17,-75.11 260.59,-1100.67 1251.46,-1624.85 2051.46,-1559.24 5.84,0.44 10.74,4.67 12.03,10.39l4.24 18.35c0.18,0.95 0.31,1.9 0.34,2.84 0.03,2.66 -0.72,5.31 -2.21,7.59 -1.99,3.06 -5.15,5.21 -8.75,5.87 -8.49,1.64 -16.9,3.41 -25.39,5.15 -18.36,3.88 -36.74,7.71 -55.25,10.17 -55.53,7.36 -111.4,13.27 -167.25,19.2 -115.89,12.26 -235.7,24.93 -349.98,51.21 -344.83,79.41 -649.8,262.67 -932.28,560.41 -227.89,240.21 -378.85,533.62 -461.48,897.06 -3.5,15.35 -6.79,30.7 -9.85,46.11l-13.77 0zm1951.79 1320.29c-8.56,9.7 -19.52,14.34 -33.16,14.28 -13.52,-0.07 -26.06,-6.73 -37.56,-20.22 -11.5,-13.55 -18.7,-30.38 -21.54,-50.35 -3.25,-22.96 -1.8,-44.91 4.2,-65.95 6.07,-21 14.97,-37.71 26.72,-50.22 11.85,-12.45 25.94,-18.64 42.39,-18.48 8.69,0.09 15.45,3.73 20.31,10.87 0.79,-2.31 1.58,-4.68 2.37,-7.02 16.36,0.16 32.73,0.45 49.06,0.95 0.12,35.25 0.22,68.89 0.22,102.56 0,33.64 0.12,67.34 0.22,102.5 0.12,43.84 -9.35,73.19 -53.1,72.52 -0.13,-30.48 -0.13,-60.96 -0.13,-91.44zm45.65 -215.86c-11,-0.35 -20.82,-4.11 -29.54,-11.66 -8.78,-7.42 -14.05,-17.37 -15.82,-29.94 -0.48,-3.54 -0.73,-7.49 -0.73,-11.69 0,-33.83 0.1,-67.69 0.13,-101.52 0.03,-33.83 0.09,-67.66 0.16,-101.49 -6.38,-0.06 -12.76,-0.12 -19.14,-0.15 0.06,-2.59 0.12,-5.18 0.18,-7.74 9.7,0.03 19.4,0.09 29.13,0.19 16.9,0.15 31.05,-0.89 42.61,-3.26 0.03,37.43 0.09,74.83 0.12,112.26 0,37.4 0.1,74.83 0.16,112.23 0,6.38 0.19,10.96 0.6,13.93 0.44,3.09 1.58,5.81 3.32,7.9 1.8,2.11 3.69,3.22 5.81,3.28 4.11,0.13 7.87,-2.18 11.02,-6.82 3.29,-4.77 5.53,-11.34 6.67,-19.9 2.59,0.09 5.15,0.16 7.74,0.28 -4.46,30.17 -18.61,44.79 -42.42,44.1zm-226.23 -266.69c24.61,-0.41 49.22,-0.82 73.82,-1.04 24.61,-0.22 49.21,-0.28 73.85,-0.22 0.03,11.59 0.1,23.18 0.13,34.74 0.03,11.53 0.12,23.16 0.19,34.72 -2.59,0 -5.18,0 -7.77,0 -5.82,-41.16 -21.64,-61.79 -47.41,-61.66 -5.56,0.03 -11.12,0.06 -16.68,0.13 0.03,18.63 0.09,37.27 0.12,55.87 0,18.61 0.07,37.24 0.13,55.85 3.29,-0.03 6.6,-0.1 9.95,-0.1 23.69,-0.15 34.52,-13.83 32.41,-40.9 2.62,0 5.21,0 7.83,0 -0.06,15.48 -0.09,30.99 -0.12,46.4 -0.04,15.48 -0.04,30.95 -0.07,46.43 -2.59,0 -5.18,0 -7.71,0 0.38,-8.37 0.38,-14.28 -0.09,-17.69 -2.46,-17.53 -12.7,-26.18 -30.64,-26.09 -3.95,0.03 -7.86,0.1 -11.78,0.13 -0.03,21.51 -0.03,43.02 -0.03,64.53 0,21.48 0,42.99 0,64.47 4.8,-0.13 9.66,-0.19 14.5,-0.22 13.29,-0.16 24.38,-6.22 33.22,-18.2 8.82,-11.97 15.51,-29.94 19.87,-53.88 2.44,0 4.84,0 7.3,0 -0.06,13.26 -0.13,26.53 -0.16,39.8 -0.03,13.26 -0.06,26.5 -0.09,39.76 -25.05,0.04 -50.07,0.1 -75.05,0.54 -25.02,0.41 -50.04,1.2 -75.05,2.05 -0.03,-2.59 -0.07,-5.18 -0.07,-7.83 6.51,-0.22 13.05,-0.41 19.59,-0.66 0,-41.6 0,-83.17 0,-124.77 0,-41.57 0,-83.17 0,-124.77 -6.7,0.13 -13.36,0.26 -20.03,0.38 -0.06,-2.56 -0.09,-5.15 -0.16,-7.77zm579.74 350.2c11.19,-19.42 26.19,-27.89 44.67,-25.42 11.4,1.51 21.22,6.79 29.44,15.38 8.24,8.72 13.07,18.89 14.65,30.61 0.22,1.54 0.35,12.41 0.35,32.72 0,20.28 0,50 -0.09,89.17 0,4.61 -0.13,9.13 0.53,14.15 0.44,3.22 1.58,6.06 3.51,8.43 1.8,2.31 3.82,3.7 5.97,4.01 3.95,0.6 7.67,-1.29 10.96,-5.68 3.25,-4.39 5.53,-10.77 6.63,-19.24 2.62,0.38 5.18,0.76 7.9,1.17 -4.39,29.98 -18.61,43.15 -42.64,39.61 -11.28,-1.64 -21.2,-6.85 -29.98,-15.57 -8.69,-8.53 -14.02,-19.24 -15.79,-32.19 -0.29,-1.93 -0.44,-13.52 -0.57,-34.81 -0.13,-21.25 -0.13,-52.27 -0.13,-93.02 0.13,-2.34 0.07,-4.52 -0.22,-6.57 -0.98,-7.49 -4.74,-11.56 -10.93,-12.35 -5.3,-0.69 -10.83,2.65 -16.58,10.39 -5.75,7.55 -8.56,18.99 -8.24,34.4 0,22.65 0,45.36 0,67.94 0,22.62 0.12,45.3 0.22,67.98 -17.69,-2.28 -35.41,-4.24 -53.1,-6.1 0,-5.87 0,-11.72 0,-17.56 -8.37,12.54 -21.54,17.85 -39.61,16.01 -11.15,-1.01 -21.1,-5.52 -29.88,-13.83 -5.65,-5.21 -9.82,-11.34 -12.51,-18.48 -7.9,16.9 -22.8,26.5 -43.43,25.08 -9.7,-0.66 -18.73,-4.33 -27.07,-10.87 -8.34,-6.53 -13.99,-15.5 -17.25,-26.66 -10.48,21.74 -25.83,32.19 -46.14,31.18 -11.85,-0.57 -21.77,-4.64 -29.66,-12.16 -7.9,-7.36 -12.73,-17.03 -14.44,-28.87 -0.19,-1.39 -0.57,-14.75 -0.57,-40.05 0,-25.3 -0.09,-62.61 -0.09,-111.88 -6.45,-0.19 -12.86,-0.38 -19.3,-0.6 0,-2.5 0.09,-5.09 0.22,-7.68 9.7,0.29 19.52,0.54 29.34,0.92 17.25,0.66 31.56,0.25 43.18,-1.71 -0.09,25.18 -0.22,50.35 -0.22,75.49 0,25.18 0,50.32 0,75.43 -0.13,10.9 -0.06,17.34 0.22,19.3 1.17,8.06 5.75,12.29 13.77,12.7 4.84,0.22 9.7,-3.95 14.75,-12.54 5.09,-8.46 7.59,-18.29 7.36,-29.63 0,-22.46 0.23,-45.01 0.23,-67.53 0,-22.46 0.22,-45.04 0.31,-67.5 17.72,1.2 35.44,2.46 53.13,3.76 -0.1,21.45 -0.32,42.96 -0.32,64.44 0,21.47 -0.12,42.99 -0.12,64.43 0,0 0,0 0,0 0,0.13 0,0.22 0,0.35 0,2.18 0,4.33 0,6.48 0,6.66 0,13.39 0,20.08 0,0.41 0,0.83 0,1.24 0,-7.11 0,-14.15 0,-21.29 -0.13,6.69 -0.13,13.36 -0.13,20.05 -0.09,2.59 -0.09,5.25 0.13,8.06 0,-1.45 0,-2.94 0,-4.39 0,6.35 0.44,14.18 4.51,18.7 6.42,6.88 15.45,3.38 20.19,-2.56 3.73,-4.49 6.19,-10.8 7.55,-19.08 -0.22,-3.32 -0.32,-7.2 -0.22,-11.69 0,-22.42 0,-44.88 0,-67.24 0,-22.43 0.12,-44.89 0.22,-67.32 -6.41,-0.56 -12.86,-1.16 -19.27,-1.76 0,-2.5 0.09,-5.09 0.22,-7.58 9.79,0.85 19.62,1.76 29.53,2.68 17.03,1.55 31.37,1.61 43.09,0.16 0,26.59 0,53.19 0,79.72 0,26.57 0,53.16 0,79.73 0,6.6 -0.32,16.9 4.42,22.55 6.41,7.08 15.54,3.88 20.28,-1.96 3.63,-4.45 6.22,-10.64 7.58,-18.89 -0.13,-24.38 -0.13,-48.74 -0.13,-73.06 0,-24.35 0,-48.67 0,-73.06 -6.41,-0.72 -12.85,-1.42 -19.3,-2.14 0,-2.53 0.13,-5.09 0.26,-7.68 9.79,1.14 19.61,2.21 29.53,3.28 17.15,1.93 31.37,2.41 43.08,1.43 0,9.69 0,19.36 0,28.99zm-927 -107.42c-0.13,20.53 -0.13,41.06 -0.13,61.5 0,20.46 0,40.93 0,61.4 6.1,-0.82 12.2,-1.64 18.39,-2.46 5.3,-0.7 9.95,-3.16 13.9,-7.43 3.82,-4.23 6.19,-8.68 7.2,-13.14 0.91,-4.61 1.48,-18.79 1.48,-42.73 0.1,-23.82 0.03,-36.71 -0.25,-38.44 -2.34,-15.73 -10.01,-22.78 -23.34,-21.01 -5.75,0.76 -11.5,1.55 -17.25,2.31zm-76.34 3.82c36.64,-5.66 73.28,-11.28 109.95,-16.14 16.93,-2.28 31.81,1.13 44.88,10.36 12.99,9.28 20.66,21.6 22.9,37.14 2.63,18.13 -1.23,35.22 -11.37,51.02 -10.26,15.92 -25.96,27.19 -47.16,34.14 0,0.38 0,0.73 0.1,1.08 16.36,-1.24 29.12,1.64 38.34,8.37 9.29,6.79 14.63,15.66 16.15,26.56 0.37,2.75 0.66,31.62 0.79,86.45 0,1.87 0.25,4.33 0.66,7.36 0.72,5.06 3.19,7.36 7.58,6.89 5.62,-0.6 9.13,-7.46 10.49,-20.5 2.81,0.38 5.62,0.73 8.56,1.04 -2.72,23.28 -16.02,36.17 -39.8,38.76 -11.06,1.2 -20.76,-1.58 -29.22,-8.21 -8.34,-6.67 -13.39,-16.11 -15.23,-28.34 -0.66,-4.33 -0.91,-33.89 -0.91,-88.6 0.12,-1.29 0,-3.16 -0.35,-5.53 -1.8,-13.23 -10.01,-18.98 -24.57,-17.05 -5.18,0.69 -10.36,1.39 -15.45,2.05 0,24.39 0,48.74 0,73.06 0,24.38 0,48.74 0,73.06 6.89,-0.85 13.77,-1.74 20.63,-2.65 0,2.65 0.12,5.3 0.25,7.89 -32.38,4.3 -64.75,9.13 -97.13,13.93 0,-2.65 0,-5.3 0,-7.93 6.67,-0.94 13.43,-1.95 20.18,-2.96 0,-46.06 0,-92.17 0,-138.23 0,-46.05 0,-92.2 0,-138.28 -6.75,1.04 -13.51,2.08 -20.18,3.06 -0.09,-2.53 -0.09,-5.12 -0.09,-7.8zm307.43 100.16c0.12,-6.63 -0.06,-12 -0.66,-16.17 -0.89,-6.35 -3.2,-11.41 -6.76,-14.97 -3.64,-3.61 -8.03,-5.12 -13.21,-4.74 -7.33,0.5 -13.2,5.05 -17.24,13.55 -4.2,8.46 -6.1,20.18 -5.75,35 0.31,14.78 0.31,36.95 0,66.14 -0.35,29.31 0,47.54 1.01,54.86 0.88,6.54 3.16,11.5 6.76,14.91 3.6,3.41 7.99,4.96 13.2,4.58 7.11,-0.5 12.51,-4.64 16.68,-12.32 3.95,-7.73 5.97,-17.68 6.19,-29.91 -0.1,-18.48 -0.22,-36.92 -0.22,-55.43 0,-18.51 0,-36.99 0,-55.5zm-101.84 86.2c-4.39,-30.73 1.58,-59.64 18.17,-86.61 16.58,-26.98 37.3,-41.82 62.25,-43.84 18.39,-1.49 35.54,5.4 51.33,20.15 15.79,14.72 25.36,33.92 28.65,57.14 4.39,31.05 -1.71,59.7 -18.38,85.98 -16.49,26.5 -37.24,40.46 -62.04,42.36 -18.64,1.45 -35.66,-4.81 -51.42,-19.24 -15.7,-14.4 -25.27,-33.07 -28.56,-55.94zm231 66.68c-15.32,0.44 -28.65,-2.65 -39.71,-9.7 -11.15,-7.11 -17.31,-15.41 -18.73,-25.08 -1.17,-8.24 0.13,-15.16 3.73,-20.72 3.73,-5.56 8.59,-8.5 14.78,-8.81 5.65,-0.29 10.49,1.29 14.44,4.77 3.94,3.44 6.22,7.83 7.01,13.11 1.1,7.67 -0.25,14.15 -3.98,19.14 -3.7,5.15 -5.53,8.08 -5.4,9 0.31,2.21 3.16,4.61 8.46,7.14 5.31,2.49 12.16,3.66 20.63,3.41 7.33,-0.22 13.77,-3.35 19.08,-9.44 5.3,-6.1 7.42,-12.99 6.31,-20.63 -1.26,-8.78 -4.29,-16.52 -9.38,-23.03 -4.83,-6.57 -15,-14.65 -30.1,-24.19 -14.43,-8.75 -25.05,-17.53 -31.81,-26.25 -6.54,-8.78 -10.74,-19.24 -12.51,-31.56 -2.4,-16.74 1.8,-31.33 12.64,-43.55 10.71,-12.1 24.23,-18.73 40.49,-19.3 15.99,-0.54 29.54,2.71 40.59,9.47 10.93,6.83 17.28,15.07 18.61,24.83 1.13,8.21 -0.13,15.07 -3.83,20.66 -3.63,5.49 -8.46,8.34 -14.56,8.53 -5.75,0.15 -10.61,-1.55 -14.56,-5.12 -3.95,-3.57 -6.22,-7.96 -6.98,-13.14 -1.17,-8.02 0.22,-14.28 4.08,-19.02 3.82,-4.67 5.59,-7.67 5.4,-8.97 -0.38,-2.46 -2.72,-4.61 -7.24,-6.5 -4.61,-1.84 -11.02,-2.63 -19.39,-2.37 -7.99,0.22 -14.31,2.97 -18.73,8.43 -4.39,5.37 -6.16,11.97 -5.06,19.71 0.95,6.73 3.61,12.41 7.77,17.03 4.17,4.7 12.86,11.27 26.06,19.58 17.16,10.77 29.57,21.13 37.34,31.37 7.71,10.1 12.63,22.71 14.78,37.74 2.5,17.56 -2.59,32.31 -14.78,44.41 -12.41,12.16 -27.51,18.51 -45.45,19.05zm167.94 -51.17c-0.12,-23.12 -0.12,-46.24 -0.12,-69.37 0.22,-35.97 0,-56.25 -0.67,-60.89 -0.57,-3.92 -2.4,-7.33 -5.3,-10.24 -2.85,-2.81 -6.45,-4.33 -10.62,-4.36 -4.48,-0.06 -8.34,2.15 -11.37,6.76 -3.16,4.55 -5.18,10.46 -6.22,17.88 -1.11,7.3 -1.58,30.29 -1.58,68.92 0.13,38.6 0.35,59.57 0.79,62.7 2.05,14.56 7.01,21.92 14.91,22.02 5.53,0.06 10.36,-2.94 14.43,-8.82 4.17,-5.84 6.1,-14.08 5.75,-24.6zm330.46 -227.9c-21.07,22.52 -42.17,45.45 -63.14,68.45 -2.72,-0.25 -5.31,-0.51 -7.9,-0.73 7.55,-24.19 15.1,-48.36 22.65,-72.61 16.14,1.48 32.28,3.03 48.39,4.89zm-1110.71 -1512.68l115.29 0.03 -0.03 9.29 -24.58 -0.03 0 328.91 9.86 0c16.17,0 29.85,-7.55 40.78,-22.68 10.93,-15.2 17.56,-36.61 19.83,-64.19l9.86 0 -1.64 96.15 -169.37 0 0 -9.28 23.47 0 0.03 -328.88 -23.5 0 0 -9.32zm323.48 0l114.15 0 0 9.29 -24.57 0.03 0 328.88 24.57 0 0 9.28 -114.15 0 -0.03 -9.28 22.39 0 0.03 -328.91 -22.42 0.03 0.03 -9.32zm113.62 -114.72l-78.66 92.32 -9.31 0 28.42 -92.32 59.55 0zm143.71 114.75l96.72 0 92.33 285.26 1.07 0 0.04 -252.5c-0.04,-15.67 -7.68,-23.47 -22.97,-23.5l-9.82 0.03 0 -9.32 72.65 0.03 0 9.26 -9.83 0c-12.03,0 -18.03,4.83 -18.03,14.4l0 323.79 -60.46 0 -99.09 -302.66 -1.07 0 0 262.14c-0.03,20.84 6.92,31.24 20.75,31.24l12.04 0 -0.03 9.28 -68.29 0 0 -9.28c8.93,0 15.03,-1.65 18.41,-4.93 3.35,-3.29 5.12,-9.48 5.12,-18.57l-0.03 -305.38 -29.51 -0.03 0 -9.26zm385.23 0l177.02 -0.03 0 83.61 -9.32 0c-7.27,-49.56 -26.22,-74.32 -56.8,-74.29l-20.21 0 0 149.12 11.94 0c12,0 21.48,-3.54 28.4,-10.55 7.01,-7.01 10.45,-16.59 10.45,-28.68l0 -9.92 9.86 0 0 111.44 -9.86 0 0 -8.72c0,-29.54 -12.29,-44.29 -36.8,-44.29l-13.99 0 0 170.48 17.37 0c31.97,0 53.19,-28.97 63.49,-86.87l8.72 0 0 96.15 -180.27 0 -0.03 -9.28 23.5 0 0 -328.91 -23.47 0 0 -9.26zm427.53 -4.93l19.49 0 89.42 343.1 22.39 0 0 9.28 -111.97 0 0 -9.28 21.19 0 -22.93 -87.97 -65.48 0 -13.74 60.74c-0.72,2.84 -1.1,5.18 -1.1,7.3 0,13.26 6.57,19.93 19.74,19.93l9.32 0 0 9.28 -71.04 0 0 -9.28 8.75 0c12.1,0 19.93,-8.03 23.4,-24.04l72.56 -319.06zm-17.37 121.01l-28.43 124.83 61.02 0 -31.52 -124.83 -1.07 0zm-3021.29 959.63l0 -24.35 36.42 -0.03c9.76,0.03 17.08,-3 22.17,-9.22 5.09,-6.23 7.61,-15.23 7.61,-27.17l0 -411.07 -66.2 0 0 -22.83 213.59 0 86.89 285.63 92.2 -285.63 202.82 0 0 22.83 -64.31 -0.03 0 447.52 62.41 0 0 24.32 -251.14 0.03 0 -24.35 66.99 0 -0.03 -441.17 -1.51 0 -146.12 465.52 -25.87 0 -143.85 -470.32 0 407.28c0,14.43 2.65,24.48 7.87,30.16 5.21,5.72 14.46,8.53 27.92,8.53l32.72 0 0 24.35 -160.58 0zm698.19 -164.4l134.18 0 -65.32 -173.38 -68.86 173.38zm-131.56 164.4l0 -24.38 30.45 0.03c8.24,0 15.1,-2.81 20.4,-8.24 5.47,-5.47 11.06,-15.35 16.78,-29.7l169.96 -442.3 29.66 0 185.83 480.24 43.9 0 0 24.35 -239.74 -0.03 0 -24.32 60.24 0 -43.5 -115.7 -150.54 0 -32.76 84.49c-0.75,1.39 -1.26,3.67 -1.64,6.86 -0.38,3.03 -0.63,6.73 -0.63,10.89 0,4.3 2.02,7.62 5.84,9.89 3.79,2.4 9.26,3.57 16.11,3.57l44.29 0 0 24.32 -154.65 0.03zm483.72 -24.35l60.11 0 0 -447.49 -60.15 0 0.04 -22.83 253.67 0c36.13,0 67.09,3.41 92.83,10.39 25.74,6.98 49.34,18.26 70.66,33.86 30.42,21.83 54.3,50.6 71.42,86.51 17.21,36.01 25.87,74.71 25.87,116.31 0,41.97 -8.75,80.92 -26.38,117.21 -17.66,36.14 -41.98,65.33 -73.18,87.66 -20.57,14.56 -44.16,25.33 -70.92,32.31 -26.78,6.98 -57.83,10.42 -93.37,10.39l-250.64 0.03 0.04 -24.35zm184.9 0l63.18 0c28.42,0 49.21,-2.18 62.03,-6.35 12.92,-4.2 23.69,-11.65 32.35,-22.33 11.15,-13.55 19.01,-32.47 23.56,-56.45 4.58,-24.1 6.86,-60.39 6.89,-108.94l-0.03 -34.9c0,-54.52 -1.52,-93.47 -4.68,-117.06 -3.06,-23.6 -8.24,-42.36 -15.73,-56.45 -8.88,-16.61 -20.56,-28.27 -34.74,-34.99 -14.22,-6.73 -37.43,-10.02 -69.65,-10.05l-63.18 0.03 0 447.49zm404.56 -109.48l0 -338.01 -57.86 0 0 -22.83 247.35 0 0 22.83 -64.69 0 0 335.48c0,41.86 8.12,72.43 24.36,91.57 16.23,19.15 41.85,28.81 76.72,28.81 18.67,0 35.54,-2.68 50.63,-7.86 15.07,-5.22 28.15,-12.95 39.33,-23.35 12.41,-11.4 21.16,-25.14 26.37,-41.22 5.18,-16.11 7.87,-44.53 7.87,-85.12l0 -7.46 0 -251.81c0,-16.86 -2.18,-27.63 -6.35,-32.21 -4.17,-4.55 -14.47,-6.83 -30.83,-6.83l-24.48 0 0 -22.83 156.77 0 0.03 22.83 -24.23 0c-17.53,0 -29.06,2.53 -34.52,7.74 -5.47,5.18 -8.25,15.86 -8.25,31.94l0 258.66c0,37.14 -1.77,63.9 -5.34,80.13 -3.66,16.37 -9.76,30.45 -18.38,42.36 -14.97,21.07 -35.25,36.67 -60.99,46.94 -25.75,10.26 -58.22,15.48 -97.29,15.48 -64.18,0 -112.89,-12.45 -146.25,-37.18 -33.35,-24.7 -49.97,-60.74 -49.97,-108.06zm437.89 109.48l58.59 0 0 -447.49 -58.59 -0.03 0 -22.8 276.38 0c56.95,0 100.57,9.25 130.9,27.89 30.32,18.51 45.55,45.42 45.55,80.29 0,35.53 -14.22,63.55 -42.74,84.49 -28.43,20.79 -69.02,32.48 -121.51,34.88l0 6.34c53.76,7.11 91.82,23.95 114.02,50.35 22.3,26.38 33.48,68.48 33.48,126.19 0,23.72 2.41,39.45 7.08,47.07 4.71,7.48 12.95,11.3 24.89,11.27 4.67,0.03 9.76,-0.47 15.35,-1.64 5.56,-1.14 11.53,-2.78 18.01,-5.05l7.73 20.4c-16.36,7.36 -31.96,13.08 -46.93,16.99 -14.98,3.95 -28.05,5.85 -39.2,5.85 -20.53,0 -39.2,-3.07 -55.94,-9.26 -16.62,-6.22 -29.91,-14.84 -39.83,-25.99 -19.4,-21.58 -30.04,-61.66 -31.97,-120.38 -0.22,-7.99 -0.5,-13.83 -0.76,-17.88 -1.51,-34.11 -9.5,-57.83 -24.1,-71.32 -14.69,-13.3 -39.32,-20.03 -73.94,-20.03l-13.05 0 0 229.86 64.69 0 0 24.35 -248.11 -0.03 0 -24.32zm183.42 -254.21l62.39 0c28.17,0 47.31,-5.84 57.33,-17.62 10.04,-11.79 15,-36.77 15,-74.96 -0.03,-48.07 -4.2,-76.85 -12.45,-86.39 -8.24,-9.51 -28.17,-14.34 -59.85,-14.31l-62.42 0 0 193.28zm423.17 114.16l134.21 0 -65.32 -173.38 -68.89 173.38zm-131.53 164.4l0 -24.35 30.45 0c8.25,0 15.1,-2.81 20.41,-8.24 5.46,-5.47 11.05,-15.35 16.74,-29.7l169.97 -442.3 29.69 0 185.82 480.24 43.87 0 0 24.35 -239.71 0 0 -24.35 60.24 0 -43.5 -115.7 -150.57 0 -32.72 84.49c-0.76,1.39 -1.27,3.67 -1.65,6.83 -0.37,3.06 -0.63,6.72 -0.63,10.92 0,4.3 2.02,7.62 5.85,9.89 3.79,2.4 9.25,3.57 16.07,3.57l44.29 0 0 24.35 -154.62 0zm911.4 -148.42l0 148.42 -24.48 0 -33.51 -27.38c-14.69,13.04 -31.94,22.93 -51.87,29.53 -19.9,6.7 -42.1,10.01 -66.58,10.01 -33.99,0 -65.07,-6.6 -93.24,-19.64 -28.27,-13.21 -54.52,-33.23 -78.75,-60.27 -23.97,-26.25 -42.01,-54.27 -53.79,-84.08 -11.91,-29.82 -17.88,-61.79 -17.88,-95.65 0,-33.48 5.97,-64.94 18,-94.6 12.04,-29.56 30.2,-57.61 54.43,-84.11 24.23,-26.51 50.73,-46.31 79.41,-59.48 28.77,-13.08 60.11,-19.68 93.97,-19.68 20.81,0 40.46,2.94 59.13,8.88 18.51,5.97 36.39,14.84 53.38,26.65l26.88 -25.61 24.98 0 3.07 136.99 -26.63 0c-16.36,-44.03 -35.66,-75.62 -57.96,-95.01 -22.33,-19.43 -50.51,-29.06 -84.37,-29.06 -38.19,0 -64.06,12.57 -77.73,37.55 -13.59,24.99 -20.44,87.91 -20.44,188.48 0,53.16 0.63,92.71 1.9,118.99 1.13,26.37 3.31,45.26 6.34,56.92 6.1,24.76 16.37,42.64 30.45,53.54 14.09,10.89 33.99,16.36 59.48,16.36 35.03,0 66.21,-12.8 93.88,-38.57 27.63,-25.62 45.64,-58.72 53.76,-99.18l28.17 0zm19.46 148.42l0 -24.35 60.87 0 0 -447.49 -60.87 -0.03 0 -22.8 249.6 0 0 22.83 -60.87 0 0 447.46 60.87 0.03 0 24.35 -249.6 0zm409.61 -246.85c0,63.56 1.02,107.21 3.16,131.15 2.15,23.85 5.85,41.76 11.28,53.29 7.99,18.13 19.3,31.21 33.86,39.07 14.72,7.99 34.52,11.91 59.64,11.91 25.23,0 45.13,-3.92 59.85,-11.91 14.6,-7.86 25.87,-20.94 33.89,-39.07 5.69,-12.57 9.64,-31.59 11.91,-56.83 2.15,-25.23 3.29,-67.88 3.29,-127.57 0,-59.51 -1.14,-101.87 -3.29,-127.14 -2.3,-25.24 -6.22,-44.25 -11.91,-56.79 -8.02,-18.17 -19.29,-31.21 -33.89,-39.08 -14.69,-7.99 -34.62,-11.94 -59.85,-11.94 -25.12,0.04 -44.89,3.95 -59.61,11.94 -14.59,7.84 -25.9,20.91 -33.89,39.08 -5.43,11.53 -9.13,29.4 -11.28,53.25 -2.18,23.98 -3.19,67.47 -3.16,130.64zm-147.66 0c0,-33.1 6.47,-64.94 19.3,-95.39 12.92,-30.42 31.55,-58.46 56.06,-83.95 26.25,-26.51 54.14,-46.18 83.58,-59.1 29.57,-12.83 61.66,-19.3 96.66,-19.3 35.12,0 67.46,6.47 96.9,19.3 29.41,12.92 57.33,32.59 83.58,59.1 24.73,25.49 43.62,53.53 56.57,84.11 13.05,30.55 19.52,62.38 19.52,95.27 0,33.73 -6.44,65.92 -19.52,96.62 -12.95,30.7 -31.84,58.72 -56.57,83.99 -25.49,26.25 -53.16,45.77 -82.82,58.46 -29.69,12.8 -62.29,19.15 -97.66,19.15 -35.29,0 -67.47,-6.35 -97.04,-19.15 -29.44,-12.69 -57.2,-32.21 -83.2,-58.46 -24.48,-25.27 -43.14,-53.29 -56.1,-84.12 -12.79,-30.95 -19.26,-63.04 -19.26,-96.53zm177.32 -299.56l108.82 -112.67c12.07,-12.67 22.08,-21.29 30.1,-25.87 7.84,-4.55 15.83,-6.86 23.69,-6.86 10.68,0 19.4,3.45 26.38,10.43 6.98,6.98 10.42,15.57 10.42,25.99 0,8.5 -2.56,15.73 -7.74,21.96 -5.21,6.19 -14.47,12.66 -27.51,19.39l-129.28 67.6 -34.88 0.03zm346.6 546.41l-0.03 -24.35 38.32 0c9.88,0 16.74,-2.18 20.69,-6.47 3.79,-4.33 5.71,-12.83 5.71,-25.5l-0.03 -389.52c0,-10.68 -2.15,-17.63 -6.32,-20.94 -4.2,-3.41 -12.95,-5.09 -26.4,-5.09l-30.42 0 -0.03 -22.8 200.29 0 208.41 284.88 0 -225.28c0,-15.1 -2.28,-24.99 -6.86,-29.69 -4.58,-4.68 -14.46,-7.08 -29.69,-7.08l-31.93 0 0 -22.83 158.28 0 0 22.83 -28.94 0c-12.41,0 -20.91,2.53 -25.61,7.62 -4.68,5.05 -7.11,14.81 -7.11,29.15l0 446.48 -20.4 0 -323.58 -444.96 0 382.04c0,8.65 2.4,15.35 7.24,20.05 4.83,4.68 11.78,7.11 20.94,7.08l44.12 0.03 0 24.32 -166.65 0.03zm-1047.25 1066.97c0,1.1 -0.09,2.18 -0.35,3.25 -0.85,3.76 -3.28,6.92 -6.63,8.78l-158.69 87.47c-6.48,3.53 -14.59,1.26 -18.23,-5.12l-11.81 -20.63c-1.83,-3.12 -2.31,-6.79 -1.33,-10.26 0.95,-3.48 3.22,-6.42 6.35,-8.18l155.44 -88.26c6.03,-3.44 13.68,-1.7 17.69,3.95l15.1 21.45c1.58,2.21 2.4,4.86 2.46,7.55zm-1169.43 314.66c0,0.89 -0.06,1.71 -0.19,2.59l-4.33 24.17c-0.69,3.6 -2.75,6.76 -5.75,8.81 -3,2.02 -6.72,2.78 -10.29,1.99l-155.44 -32.35c-3.54,-0.75 -6.6,-2.84 -8.56,-5.84 -1.93,-3.03 -2.62,-6.7 -1.86,-10.23l6.31 -28.71c0.76,-3.51 2.91,-6.61 6,-8.53 3.07,-1.93 6.8,-2.53 10.3,-1.68l153.48 36.9c6.07,1.45 10.23,6.85 10.33,12.88zm712.97 276.45c0.07,3.03 -0.91,6.03 -2.84,8.5 -28.46,36.54 -61.75,57.04 -96.31,59.19 -30.45,1.89 -60.2,-10.77 -86.13,-36.64 -3.61,-3.57 -4.9,-8.78 -3.32,-13.65 1.51,-4.77 5.59,-8.34 10.58,-9.19l39.36 -6.85c33.61,-5.85 63.39,-10.99 93.21,-15.7 7.58,-1.17 14.75,-0.48 22.33,0.25 3.25,0.32 6.67,0.66 10.33,0.85 5.02,0.26 9.48,3.26 11.56,7.87 0.79,1.7 1.2,3.54 1.23,5.37zm-1063.23 -388.58c0.06,2.72 -0.73,5.37 -2.22,7.68l-17.43 26.34c-3.95,5.94 -11.88,7.8 -18.04,4.26l-192.68 -111.4c-3.12,-1.8 -5.4,-4.8 -6.28,-8.25 -0.98,-3.53 -0.41,-7.23 1.42,-10.29l12.92 -21.89c3.66,-6.26 11.65,-8.47 18.04,-4.99l197.22 106.92c3.32,1.8 5.72,4.92 6.67,8.59 0.22,0.98 0.38,2.05 0.38,3.03zm1638.74 -138.7c0,1.49 -0.19,2.94 -0.66,4.36 -20.19,62.45 -148.55,137.37 -223.23,143.44l-1.39 0.72 -0.06 0.04 -0.35 0.15 -0.15 0.07 -0.26 0.09 -0.25 0.1 -0.16 0.06 -0.38 0.13 -0.5 0.15 -6.98 2.47c-6.22,4.1 -12.45,8.3 -18.61,12.54 -20.21,13.8 -41.06,28.08 -63.96,38.28 -155.15,69.24 -325.22,107.9 -519.85,118.29 -24.83,1.36 -49.78,-1.29 -68.04,-3.25 -6.63,-0.7 -12.48,-1.33 -17.25,-1.64 -6.76,-0.41 -12.16,-5.82 -12.57,-12.58 -0.44,-7.51 4.2,-12.82 10.87,-14.11 43.11,-8.41 87.21,-16.75 131.97,-25.21 112.19,-21.23 228.24,-43.21 343.47,-68.95 49.43,-11.09 98.58,-29.47 146.12,-47.29 18.6,-6.95 37.21,-13.93 55.88,-20.5l6.44 -4.14c2.37,-1.48 5.05,-2.18 7.74,-2.05l208.47 -130.52c2.43,-2.74 6,-4.51 9.95,-4.58 7.58,-0.12 14.25,5.15 13.71,13.62 0.03,0.12 0.03,0.22 0.03,0.31zm-1688.87 -3042.39c0.06,4.87 -2.47,9.54 -6.98,12.07l-270.42 149.18c-3.15,1.74 -6.85,2.15 -10.26,1.14 -3.48,-0.98 -6.38,-3.32 -8.09,-6.47l-11.94 -21.83c-3.66,-6.54 -1.23,-14.63 5.21,-18.26l269.79 -150.57c3.12,-1.77 6.85,-2.18 10.32,-1.17 3.48,1.01 6.39,3.32 8.12,6.51l12.61 23.18c1.07,2.02 1.61,4.14 1.64,6.22zm214.63 3397.71c0.03,1.99 -0.38,3.95 -1.2,5.81l-12.98 28.53c-3.04,6.63 -10.74,9.66 -17.47,6.85l-292.46 -121.83c-3.29,-1.39 -5.91,-4.01 -7.27,-7.33 -1.39,-3.31 -1.39,-7.04 0.04,-10.36l11.02 -26.34c2.84,-6.82 10.68,-10.11 17.53,-7.3l294.42 119.68c3.38,1.39 6.06,4.11 7.42,7.52 0.6,1.52 0.92,3.16 0.95,4.77zm16.2 -297.64c0,0.7 -0.03,1.36 -0.12,2.02 -0.76,5.78 -5.15,10.39 -10.9,11.47 -82.41,15.41 -259.77,-70.03 -311.13,-149.88 -3.25,-5.09 -2.78,-11.72 1.23,-16.24 4.01,-4.54 10.55,-5.84 15.99,-3.22l297.32 143.91c4.64,2.28 7.55,6.92 7.61,11.94zm2105.19 -283.01c0,1.01 -0.07,2.05 -0.29,3.03 -0.91,4.17 -1.36,8.65 -1.86,13.11 -1.3,11.75 -2.75,25.04 -10.71,35.21 -45.67,57.78 -91.73,112.74 -136.9,163.37 -8.71,9.76 -22.83,10.99 -35.28,12.1 -1.39,0.09 -2.84,0.22 -4.2,0.38l-1.23 0.91 -2.12 7.05c-3.91,13.61 -7.99,27.7 -18.48,37.74 -231.46,221.3 -493.13,377.91 -777.78,465.43 -12.89,3.95 -25.49,9.04 -38.07,14.06 -19.39,7.8 -39.42,15.79 -60.55,20.02 -17.78,3.57 -36.2,-1.29 -49.65,-4.83 -4.3,-1.14 -8.12,-2.18 -11.28,-2.68 -5.87,-0.92 -10.42,-5.56 -11.24,-11.47 -0.86,-5.72 2.3,-11.59 7.7,-14.09 56.13,-25.96 112.52,-51.04 168.8,-76.06 129.32,-57.55 263.09,-117.03 388.39,-185.54 74.48,-40.68 142.99,-96.56 209.26,-150.57 33.83,-27.58 68.83,-56.13 104.43,-82.51 16.46,-12.19 35.15,-20.59 53.29,-28.71 5.18,-2.37 10.42,-4.7 15.57,-7.14 1.42,-2.74 3.72,-4.92 6.54,-6.16 3.63,-6.91 7.17,-14.02 10.7,-21.06 10.96,-21.99 22.34,-44.73 37.72,-64.69 25.74,-33.39 54.2,-65.23 81.74,-95.99 11.69,-13.05 23.38,-26.1 34.88,-39.33 4.26,-4.86 11.34,-6 16.89,-2.81l16.97 9.76c4.17,2.4 6.66,6.79 6.76,11.47zm-620.17 -2705.55c0.03,2.49 -0.61,4.95 -1.99,7.23 -3.54,5.84 -10.93,8.12 -17.16,5.27l-408.16 -187.75c-6.06,-2.78 -9.28,-9.76 -7.26,-16.11 1.92,-6.44 8.27,-10.45 14.91,-9.54 142.07,21.2 277.67,83.55 414.47,190.47 3.32,2.62 5.12,6.48 5.19,10.43zm838.02 2391.86c0,0.03 0,0.06 0,0.06 0.03,5.31 -2.97,9.95 -7.49,12.19 -23.37,31.43 -41.75,67.88 -59.57,103.17 -29.66,58.81 -60.36,119.58 -115.73,162.95 -4.52,3.54 -10.74,3.79 -15.57,0.73l-22.78 -14.47c-6.13,-3.88 -8.08,-12.03 -4.36,-18.29l34.94 -58.81c36.07,-60.9 73.37,-123.88 112.51,-184.4 8.5,-13.05 26.97,-14 44.88,-14.85l3.04 -0.16c-2.88,-13.86 -4.46,-28.05 -4.68,-42.36 -0.88,-56.28 18.32,-108.72 36.86,-159.41 5.37,-14.63 10.71,-29.25 15.54,-43.88 25.46,-77.01 45.87,-154.58 61.31,-232.57l13.93 0 13.58 0 14.34 0 13.84 0 13.61 0c-34.62,185.22 -95.42,354.88 -148.23,489.4l0.03 0.7zm-604.95 -173.92c0.03,2.02 -0.38,4.08 -1.29,6 -76.16,160.09 -182.38,287.28 -315.68,378.03 -5.56,3.79 -13.04,2.91 -17.56,-2.08 -4.55,-4.99 -4.71,-12.51 -0.38,-17.72l309.2 -370.42c2.15,-4.52 6.7,-7.67 12,-7.74 7.55,-0.15 14.06,5.97 13.71,13.55 0,0.13 0,0.26 0,0.38zm142.36 -316.18c-25.46,90.91 -62.44,179.95 -111.24,268.36 -3.29,6 -10.55,8.56 -16.9,6 -6.32,-2.59 -9.73,-9.44 -7.9,-16.08l71.23 -258.28 14.02 0 14 0 8.71 0 14.09 0 13.99 0zm-13.45 -733.66c0.06,4.14 -1.77,8.02 -4.87,10.61l-17.27 0c-1.43,-1.2 -2.59,-2.68 -3.48,-4.45l-222.78 -453.52c-2.97,-6.1 -1.01,-13.49 4.68,-17.22 5.68,-3.76 13.23,-2.68 17.65,2.44 119.05,138.5 195.02,293.21 225.85,459.9 0.15,0.75 0.22,1.51 0.22,2.24zm-917.56 1863.77c0.09,5.75 -3.48,11.08 -9.13,13.01 -215.61,73.31 -441.99,84.65 -672.92,33.77 -7.08,-1.58 -11.72,-8.31 -10.39,-15.48 1.23,-7.14 7.86,-12 15,-11.06 201.68,26 416.75,15.42 657.32,-32.47 1.92,-1.04 4.1,-1.67 6.41,-1.7 7.55,-0.13 14.43,5.78 13.71,13.55 0,0.12 0,0.25 0,0.38zm-297.96 345.52c0.1,6.57 -4.51,12.26 -10.99,13.49 -164.76,30.95 -500.36,-7.17 -561.1,-63.71 -4.3,-3.98 -5.53,-10.2 -3.1,-15.48 2.43,-5.3 7.96,-8.43 13.74,-7.8l549.45 60.33c6.63,0.73 11.72,6.22 12,12.89 0,0.09 0,0.19 0,0.28zm-378.59 -3356.26c0.06,5.49 -3.23,10.64 -8.53,12.73l-610.19 241.76c-6.35,2.56 -13.65,-0.13 -16.87,-6.19 -3.25,-6.03 -1.42,-13.58 4.3,-17.44 186.45,-127.86 386.55,-207.46 611.64,-243.31 1.77,-0.95 3.76,-1.48 5.9,-1.51 7.49,-0.13 13.59,5.81 13.71,13.26 0,0.22 0,0.51 0.04,0.7zm-491.68 368.77c0.06,4.26 -1.87,8.43 -5.47,11.09 -193.02,142.39 -343.09,313.43 -458.79,522.82 -3,5.43 -9.29,8.12 -15.26,6.54 -5.97,-1.58 -9.92,-5.5 -10.04,-13.24 1.86,-137.34 305.85,-485.99 468.3,-538.71 2.15,-1.48 4.74,-2.37 7.55,-2.43 7.45,-0.13 13.58,5.84 13.71,13.27 -0.03,0.22 -0.03,0.44 0,0.66zm505.13 -505.58c0.06,5.97 -3.82,11.44 -9.73,13.14 -36.64,10.71 -73.53,20.73 -110.49,30.71 -82.41,22.3 -167.63,45.39 -247.73,76.53 -78.84,30.74 -155.85,71.01 -230.36,109.95 -33.58,17.53 -67.16,35.07 -101.02,51.87 -3.22,1.58 -6.91,1.83 -10.33,0.66 -3.37,-1.17 -6.19,-3.57 -7.77,-6.79l-7.96 -16.14c-3.03,-6.1 -1.01,-13.55 4.77,-17.31 248.65,-160.74 471.91,-242.05 702.14,-255.63 1.49,-0.6 3.07,-0.95 4.74,-0.95 7.55,-0.12 13.71,5.59 13.71,13.62 0.03,0.09 0.03,0.19 0.03,0.34zm1072.08 356.71c0.03,2.47 -0.57,4.93 -1.96,7.2 -3.72,6.13 -11.65,8.25 -17.97,4.84 -281.69,-153.36 -587.45,-231.5 -908.87,-232.23 -7.24,-0.03 -13.14,-5.72 -13.46,-12.95 -0.09,-6.79 5.18,-13.36 12.38,-13.99 339.34,-27.58 650.21,51.83 923.91,236.11 3.82,2.56 5.91,6.73 5.97,11.02zm189.3 2816.17c0.03,2.59 -0.66,5.18 -2.12,7.45 -99.05,156.01 -715.31,356.62 -858.58,306.9 -6,-2.05 -9.79,-7.93 -9.01,-14.31 0.73,-6.29 5.72,-11.21 12.04,-11.85 289.17,-29.62 562.02,-126.91 834.01,-297.51 2.43,-2.75 5.97,-4.55 9.92,-4.61 7.49,-0.13 13.61,5.81 13.71,13.27 0.03,0.22 0,0.47 0.03,0.66zm-112.48 -2929.34c0.06,3.28 -1.07,6.6 -3.41,9.19 -4.27,4.8 -11.34,5.94 -16.9,2.65 -322.09,-188.51 -652.11,-268.52 -1008.94,-244.57 -6.16,0.41 -11.84,-3.45 -13.71,-9.32 -1.96,-5.91 0.38,-12.32 5.66,-15.57 166.77,-104.36 901.64,73.06 1034.58,249.72 1.8,2.37 2.69,5.15 2.72,7.9zm-511.42 -355.95c0.03,2.4 -0.57,4.86 -1.83,7.01 -2.84,4.86 -8.4,7.42 -13.96,6.48 -393.25,-68.48 -745.19,-38.22 -1075.9,92.42 -6.01,2.37 -12.86,0.16 -16.33,-5.28 -3.51,-5.43 -2.63,-12.6 2.02,-17.05 117.03,-111.79 566.57,-179.48 860.73,-160.97 130.14,8.15 211.63,31.43 242.27,69.08 1.93,2.43 2.97,5.37 3,8.31zm1045.11 390.38c0.03,2.27 -0.51,4.55 -1.61,6.63l-11.72 21.89c-3.29,6.22 -10.77,8.81 -17.22,6.1 -4.45,-1.93 -9.25,-3.42 -14.05,-4.99 -11.97,-3.86 -25.59,-8.28 -35.22,-18.1 -192.59,-197.67 -424.18,-346.22 -707.95,-454.09 -15.48,-5.88 -28.18,-16.43 -40.5,-26.63 -5.14,-4.26 -10.33,-8.62 -15.66,-12.45 -2.97,-2.14 -4.93,-5.43 -5.47,-9.03 -0.47,-3.63 0.48,-7.3 2.75,-10.2l16.27 -20.88c3.57,-4.52 9.6,-6.29 15.06,-4.42 333.21,115.95 598.73,285.13 811.75,517.32 2.27,2.47 3.5,5.63 3.57,8.85zm-1269.06 3327.93c0,0.41 0,0.82 -0.03,1.26l-3 38.41c-0.28,3.57 -2.02,6.95 -4.8,9.29 -2.78,2.3 -6.38,3.41 -10.01,3.06l-34.88 -3.47c-56.19,-5.62 -112.35,-11.22 -168.54,-16.93 -6.95,-0.73 -13.99,-1.99 -20.97,-3.32 -12.13,-2.27 -23.63,-4.39 -33.74,-2.94 -196.69,28.18 -381.66,-26.12 -536.62,-82.94 -77.58,-28.43 -159.99,-61.25 -252,-100.29 -14.6,-6.19 -25.18,-18.13 -35.47,-29.63 -4.08,-4.61 -8.15,-9.22 -12.48,-13.3 -5.12,-4.86 -5.65,-12.82 -1.2,-18.29l12.22 -15.09c3.7,-4.62 10.24,-6.54 15.73,-4.39 35.06,13.93 69.94,28.58 104.78,43.3 77.48,32.63 157.61,66.36 238.76,90.43 113.93,33.77 236.96,58.94 365.65,74.8 83.01,10.27 168.79,12.04 251.74,13.74 37.34,0.76 74.67,1.55 111.91,3.03 3.67,0.16 7.11,1.77 9.54,4.52 2.15,2.43 3.35,5.53 3.41,8.75zm916.33 -2808.62c0.06,4.05 -1.67,7.99 -4.99,10.71 -5.5,4.45 -13.46,3.92 -18.29,-1.2 -510.25,-538.9 -1108.63,-646.48 -1778.51,-319.69 -6.32,3.07 -13.93,0.79 -17.53,-5.27 -3.61,-5.97 -1.9,-13.77 3.82,-17.85 260.87,-185.1 614.61,-255.28 970.46,-192.52 355.76,62.76 655.01,246.82 842.64,518.37 1.58,2.27 2.37,4.86 2.4,7.45zm-288.92 1985.82c0.09,4.2 -1.83,8.34 -5.37,10.99 -324.65,245.37 -706.97,326.07 -1105.66,233.36 -536.18,-124.67 -885.94,-464.38 -1040.59,-1010.01l14.03 0 17.4 0 14.02 0c106.74,376.26 333.78,657.29 675.26,835.53 300.42,156.86 613.57,196.44 930.73,117.69 167.92,-41.66 311.61,-103.89 439.28,-190.15 9.95,-6.73 22.11,-7.9 32.85,-8.94 2.78,-0.25 5.59,-0.54 8.34,-0.92 1.8,-0.91 3.82,-1.45 6,-1.48 7.55,-0.13 14.37,6 13.71,13.58 0,0.1 0,0.22 0,0.35zm1095.23 -1488.71c-56.19,-294.83 -175.78,-564.07 -356.45,-801.98 -10.21,-13.46 -17.06,-28.78 -23.69,-43.59 -2.88,-6.41 -5.75,-12.89 -8.88,-19.11 -2.84,-5.59 -1.42,-12.51 3.47,-16.49l16.84 -13.87c5.09,-4.13 12.41,-4.04 17.37,0.23 4.39,3.79 9.04,7.39 13.68,10.96 11.06,8.49 22.46,17.27 31.18,29.02 195.99,264.16 321.96,550.62 376.45,854.83l-13.43 0 -14.34 0 -14.69 0 -13.71 0 -13.8 0zm-3797.31 723.05c13.02,64.66 29.44,129.35 49.31,194.01 143.43,466.59 418.77,823.96 841.75,1092.54 23.59,15.01 43.49,37.88 57.52,66.12 2.59,5.21 1.58,11.46 -2.53,15.54 -4.1,4.1 -10.36,5.11 -15.57,2.52 -515.3,-256.8 -893.21,-783.94 -1004.93,-1370.73l13.49 0 14.02 0 19.37 0 13.67 0 13.9 0z"/>
  </g>
 </g>
</svg>
