<?xml version="1.0" encoding="UTF-8"?>
<!DOCTYPE svg PUBLIC "-//W3C//DTD SVG 1.1//EN" "http://www.w3.org/Graphics/SVG/1.1/DTD/svg11.dtd">
<!-- Creator: CorelDRAW 2020 (64-Bit) -->
<svg xmlns="http://www.w3.org/2000/svg" xml:space="preserve" width="47.576mm" height="39.811mm" version="1.1" style="shape-rendering:geometricPrecision; text-rendering:geometricPrecision; image-rendering:optimizeQuality; fill-rule:evenodd; clip-rule:evenodd"
viewBox="0 0 4757.6 3981.1"
 xmlns:xlink="http://www.w3.org/1999/xlink"
 xmlns:xodm="http://www.corel.com/coreldraw/odm/2003">
 <defs>
  <style type="text/css">
   <![CDATA[
    .fil1 {fill:#453D2D}
    .fil0 {fill:#CC9933}
   ]]>
  </style>
 </defs>
 <g id="Capa_x0020_1">
  <metadata id="CorelCorpID_0Corel-Layer"/>
  <g id="_2154604226528">
   <path class="fil0" d="M4642.88 2859.96c11.22,194.57 -55.18,368.62 -204.17,496.95 -110.27,94.98 -243.82,144.35 -389.34,144.1 -120.53,-0.19 -241.07,-1.9 -361.6,-2.56 -60.55,53.57 -124.3,103.54 -190.94,149.31 -8.97,6.16 -18.32,11.78 -28.02,16.81 -148.93,98.1 -310.46,175.21 -480.97,227.64 -4.36,1.42 -9.03,3.54 -13.3,5.27 -31.9,12.77 -63.2,23.85 -97.03,30.61 -7.52,1.49 -15.07,2.72 -22.68,3.63 -6.41,1.99 -12.92,3.7 -19.46,5.18 -24.92,5.6 -49.94,10.71 -75.05,15.32 -12.85,2.34 -25.71,4.58 -38.6,6.7 -26.31,8.28 -53.57,13.36 -81.11,15.07 -10.61,0.63 -21.26,0.79 -31.9,0.44 -0.92,0.16 -1.87,0.25 -2.81,0.32 -35.54,12 -73.35,16.36 -110.84,12.66l-22.49 -2.24c-141.26,6.51 -283.71,-1.23 -420.8,-24.23 -33.16,-4.86 -65.95,-11.62 -98.67,-18.76 -327.21,-71.51 -631.01,-225.28 -882.85,-445.21 -79.09,0.41 -158.22,0.6 -237.31,-1.05 -106.86,-2.21 -182.1,11.22 -290.88,-19.2 -132.66,-37.08 -245.52,-116.84 -323.57,-227.2 -44.6,-5.91 -87.12,-23.88 -123.76,-53.16 -61.12,-48.77 -95.08,-119.34 -95.08,-197.51l0 -38.82c0,-110.87 71.01,-206.45 173.45,-240.03 -7.52,-50.29 0.63,-100.64 21.51,-144.98 -9.26,-5.88 -18.26,-12.42 -26.88,-19.62 -59.86,-49.68 -92.49,-120.6 -91.29,-198.39l2.56 -162.36c0.13,-7.33 0.57,-14.65 1.29,-21.89 -52.11,-48.17 -80.64,-113.39 -80.64,-185.1l0 -38.22c0,-84.96 41.6,-160.93 107.49,-206.95l0.07 -254.75c-1.68,-79.25 -1.65,-158.53 0,-237.75 1.48,-70.97 4.26,-141.92 8.33,-212.77 6.07,-106.32 44.13,-211.22 109.36,-295.55 73.09,-94.45 163.9,-166.37 276.89,-207.02 132.91,-47.82 225.75,-30.83 359.2,-31.84 71.51,-0.54 143.05,-0.82 214.57,-0.92 60.64,-52.75 124.57,-101.67 191.32,-146.46 5.08,-3.41 10.26,-6.67 15.57,-9.73 286.74,-190.56 627.59,-309.68 968.03,-327.05 47,-3.95 94.1,-6.73 141.23,-8.75 37.05,-4.96 74.86,-1.93 110.64,8.75 15.64,2.05 32.54,2.46 47.92,3.29 80.58,4.29 152.72,12.35 225.78,41.53 26.54,-0.72 52.88,2.24 79.19,9.07 35.44,9.22 70.75,19.01 105.88,29.34 17.15,2.4 34.02,6.44 50.38,12.13 251.43,87.5 481.25,213.49 679.27,390.51 62.26,0.09 124.54,-0.29 186.8,-1.46 78.75,-1.51 152.28,-4.74 229.32,12.26 55.44,4.14 102.18,10.26 149.78,35.41 36.71,7.07 69.18,18.85 103.39,39.73 102.72,62.61 182.32,148.43 230.67,254.91 25.43,9.31 49.44,22.87 71.3,40.27 61.24,48.77 95.26,119.4 95.26,197.67l0 38.98c0,76.85 -34.11,146.34 -89.2,192.96 0.09,0.38 0.16,0.76 0.25,1.14l5.06 24.85c15.41,75.88 -5.44,153.58 -53.16,211.45l-3.13 315.42c17.75,8.94 34.65,20.09 50.41,33.39 57.93,48.86 89.77,117.37 89.77,193.15l0 38.19c0,87.46 -44.09,165.57 -113.43,211.09 0.48,7.14 0.67,14.28 0.54,21.42 -0.79,49.14 -2.59,98.29 -6.19,147.32 -0.13,1.99 -0.25,3.94 -0.38,5.93l0 122.97c1.96,47.63 5.15,95.17 7.23,142.8 1.87,25.18 1.27,50.57 -2.18,75.59z"/>
   <path class="fil1" d="M2595.22 455.65c-0.06,5.59 3.57,10.68 9.06,12.29 34.18,9.98 68.64,19.33 103.1,28.65 76.92,20.81 156.42,42.32 231.19,71.41 73.56,28.69 145.42,66.27 214.94,102.6 31.34,16.36 62.67,32.69 94.26,48.39 3,1.48 6.47,1.7 9.63,0.63 3.16,-1.07 5.78,-3.35 7.23,-6.35l7.46 -15.07c2.81,-5.68 0.91,-12.63 -4.46,-16.14 -232,-150 -440.31,-225.84 -655.2,-238.54 -1.35,-0.57 -2.87,-0.88 -4.42,-0.88 -7.04,-0.13 -12.76,5.24 -12.76,12.7 -0.03,0.09 -0.03,0.18 -0.03,0.31zm-2024.07 1426.48c1.42,-178.9 -6.25,-357.94 -1.14,-536.94 2.18,-76.28 -2.21,-152.78 -0.25,-229.13 2.62,-102.4 75.11,-166.17 176.66,-168.29 160.5,-3.32 320.96,-0.22 481.38,0.85 8.56,-9.41 17.22,-18.7 26,-27.86 -95.74,-0.22 -191.51,-0.22 -287.25,0.19 -68.73,0.32 -137.4,-0.09 -206.1,-0.82 -116.24,-1.2 -215.36,76.38 -215.14,207.72 0.35,209.35 -6.69,418.74 -2.34,627.97 0.89,44 1.27,88.03 1.33,132.03l-113.84 24.2 0 -397.14 2.47 -3.73c0.88,-36.45 1.42,-72.93 0.76,-109.42 -1.96,-106.66 -2.15,-213.43 -2.56,-320.16 -0.13,-33.73 3.53,-72.17 16.64,-98.23 36.83,-73.35 104.33,-120.85 174.36,-161.54 16.05,-9.31 36.77,7.3 57.2,3.57 18.86,-3.41 36.42,-3.57 41.13,-26.66 13.96,10.27 22.96,24.2 45.71,24.2 124.32,0.03 248.68,3.29 373.03,4.14l3.51 -3.73 50.16 0c231.34,-229.41 480.56,-372.53 760.07,-436.91 98.96,-22.74 202.75,-33.73 303.13,-44.34 48.36,-5.15 96.75,-10.27 144.83,-16.62 13.83,-1.86 27.54,-4.58 41.25,-7.42 2.78,2.02 5.84,3.44 9.35,4.01 61.63,9.98 124.55,17.63 185.45,25.02l58.78 7.23c6.28,0.79 12.06,-3.63 13.01,-9.82l3.54 -23.12c0.73,-4.9 -1.64,-9.76 -6.03,-12.07 -53.67,-28.84 -112.55,-32 -169.53,-35.06 -34.18,-1.83 -69.49,-3.7 -102.56,-11.31 -3.32,-2.78 -8.06,-3.57 -12.26,-1.7 0,0 -0.03,0.03 -0.06,0.03l-0.54 0.28c-46.18,1.83 -96.56,4.46 -149.72,8.91 -290.47,14.94 -596.07,113.65 -863.64,295.37l-0.25 -0.61c-83.48,56.04 -161.44,119.15 -233.77,189.27 -103.67,0.03 -207.34,0.22 -311,1.01 -92.08,0.7 -184.82,-15.73 -275.6,16.93 -68.04,24.48 -119.58,68.36 -162.57,123.89 -35.16,45.45 -53.92,102.08 -56.95,155.31 -3.89,67.75 -6.54,135.66 -7.96,203.6l0 0 0 0.16c-1.58,75.65 -1.62,151.37 0,226.98l0 444.62 -107.49 22.45 0 38.22c9.28,-1.61 18.54,-3.38 27.76,-5.37l79.73 -17.34 0 0.51 70.62 -14.56 0 -1.42c201.84,-44.32 403.49,-89.27 606.06,-129.67 160.64,-32.09 321.36,-63.9 482.32,-94.19 190.53,-35.82 378.98,-81.97 569.35,-118.42l36.33 -6.82c44.25,-8.15 88.6,-15.73 133.1,-22.46 14.66,-2.21 31.78,-3.16 44.41,-10.89l658.08 -123.73c6.09,-0.63 12.6,-2.02 18.92,-3.54l92.39 -17.37 5.05 -0.95 4.33 -0.82c197.2,-37.4 160.74,-51.96 413.72,-86.07 6.38,-1.55 26.44,-16.46 36.36,-20.66 18.32,-7.71 21.1,16.36 16.01,-12.51 -6.69,-37.62 -14.56,-16.49 -34.46,-12.44 -306.2,62.48 -195.46,43.4 -403.61,88.41l-129.98 25.77c-17.56,-0.22 -38.54,-3.44 -45.17,8.94l-101.01 20.06c-104.08,9.92 -215.01,36.2 -317.35,62.95l-196.54 38.98c-22.27,-9 -42.92,-1.01 -63.86,3.22 -306.14,61.91 -610.89,130.2 -918.07,187.85 -256.01,48.04 -510.79,102.68 -765.69,157.01zm3642.91 640.3c-3.69,90.71 -7.58,180.04 -10.89,269.43 -1.3,35.09 -1.61,70.18 -1.74,105.28 0,9.19 -6.1,23.78 12.29,22.77 12.32,-0.66 12.82,-11.62 12.82,-20.56 0,-31.94 -1.26,-63.9 -1.1,-95.84 0.44,-85.37 1.45,-170.78 1.99,-256.19 0.03,-10.52 0.31,-21.99 -13.37,-24.89zm-3117.28 547.17c-144.1,-5.88 -288.19,-11.75 -432.26,-17.63 98.87,53.58 205.34,32.07 308.89,33.52 40.55,0.57 83.26,6.38 123.66,-4.49 -0.13,-3.82 -0.22,-7.61 -0.29,-11.4zm128.31 19.93c10.01,-0.66 19.99,-1.23 30,-1.77 -8.52,-8.87 -16.93,-17.88 -25.23,-26.94l-23.38 -0.03c-14.21,0.03 -39.86,-11.85 -39.2,14.87 0.54,20.47 24.45,10.14 38.07,12.86 7.39,1.48 15.16,0.85 19.74,1.01zm2975.87 -806.53c-0.23,46.56 0.25,93.12 2.02,139.64 0.44,10.55 -6.45,29.6 12.98,27.2 16.8,-2.05 3.06,-17.31 3.6,-26.34 2.46,-41.16 4.67,-82.44 5.24,-123.7l0.29 -21.7 -24.13 4.9zm18.06 -1137.88c12.29,-33.42 2.28,-68.19 -8.71,-99.72 -29.7,-85.15 -125.31,-136.51 -214.95,-126.47 -34.81,3.92 -70.12,5.25 -105.12,4.3 -124.48,-3.41 -248.97,-4.93 -373.42,-4.14 8.12,8.46 16.14,17.02 24.07,25.68 162.58,-0.03 325.18,0.38 487.79,0.6 74.8,0.13 128.34,36.2 159.42,102.12 14.59,30.95 14.06,66.08 17.03,100.54l13.89 -2.91zm-47 1863.83c-42.89,24.8 -85.12,47.57 -135.98,52.94 -19.93,2.09 -39.26,-0.25 -58.34,-0.28 -144.38,-0.06 -288.79,-1.9 -433.18,-3.1 -7.36,8.09 -14.81,16.08 -22.33,24.01 125.65,1.2 251.3,3.79 376.99,5.34 56.13,0.69 111.62,-9.61 167.85,-11.44 36.73,-1.2 84.81,-20.28 104.99,-67.47zm332.58 -1925.64l0 38.98c-41.13,6.85 -82.35,13.23 -122.72,22.04 -56.69,12.35 -525.91,121.86 -585.64,118.17 -0.95,-5.37 -1.9,-10.71 -2.88,-16.05l542.72 -124.48c1.61,-30.07 -1.96,-66.84 -12.06,-90.05 -26.25,-60.14 -56.32,-123.13 -117.25,-161.47 -45.71,-28.78 -94.45,-45.08 -147.99,-44.13 -137.62,2.43 -275.15,-8.81 -412.77,-0.7 -7.55,0.45 -16.08,2.03 -22.58,-2.27l-63.78 0c-73.4,-66.39 -148.96,-132.95 -227.17,-193.28l-8.53 -6.47c-2.49,1.42 -4.96,3.09 -7.45,4.92l0 0 0 0c6.95,9.13 14.06,14.6 21.64,16.56 -7.58,-1.96 -14.69,-7.43 -21.64,-16.56 2.49,-1.83 4.96,-3.5 7.45,-4.92 -56.25,-41.79 -121,-74.93 -183.77,-107.02 -33.64,-17.24 -68.45,-35.03 -101.77,-54.07 -3.98,-2.28 -7.8,-4.77 -11.5,-7.4 -24.41,-10.39 -49.27,-20.4 -74.6,-30.03 -6.86,-2.59 -13.08,-6.26 -18.96,-10.4 -13.2,-1.04 -26.43,-2.68 -39.42,-5.9 -35.4,-8.78 -70.59,-20.28 -104.58,-31.4 -14.43,-4.71 -28.84,-9.44 -43.3,-13.96 -5.37,-1.68 -8.72,-6.89 -8.15,-12.42l1.83 -16.86c0.44,-4.14 3.09,-7.65 6.76,-9.32 0.79,-0.38 1.64,-0.66 2.49,-0.85 3.64,-0.73 7.33,-1.9 11.06,-3.1 9.76,-3.06 20.81,-6.54 31.65,-3.76 43.84,11.44 86.67,23.53 127.8,36.07 2.75,-1.32 5.97,-1.54 8.97,-0.5 267.13,92.93 484.03,225.43 661.14,404.09 97.6,0.69 195.17,0.79 292.77,-1.08 59.67,-1.13 120.98,-5.81 182.61,8.91 30.51,7.3 62.51,-7.42 90.93,25.14 6.57,7.55 48.43,1.68 72.62,16.46 106.26,64.75 159.23,159.57 162.07,283.02l0.48 20.12 113.52 -26.03zm0 1049.53c-335.77,69.93 -532.46,119.11 -894.79,187.12 -307.18,57.64 -6.47,-0.13 -312.61,61.81 -14.47,2.94 -28.78,7.64 -43.62,7.33l-211.51 39.92 -0.25 -0.12c-118.92,28.84 -245.08,53.06 -356.99,50.19 20.25,-14.94 167.91,-47.67 309.11,-73.03l250.6 -49.87c12.77,-11.66 33.01,-12.51 49.94,-15.07 55.34,-8.37 80.36,-11.78 88.64,-12.54l-43.44 8.65c-9.66,1.3 3.04,-1.77 88.13,-17.78l21.42 -4.04 0 0 0.06 0c136.99,-25.78 115.99,-21.99 269.09,-52.56 252.85,-50.42 504.31,-107.97 756.37,-162.48 9.92,-2.15 19.87,-4.02 29.85,-5.72l0 38.19zm-3965.76 771.06l111.88 -22.68c8.97,-10.39 32.91,-7.52 46.65,-13.3 9.92,-4.2 21.04,-5.5 27.39,-7.04 283.33,-38.22 965.91,-204.84 1243.21,-250.55 22.81,-3.76 64.88,-21.57 69.21,6.48 5.81,37.43 -37.87,21.29 -60.43,26.02 -106.51,22.49 -625.66,129.07 -732.27,151.27 -179.25,37.34 -358.25,75.81 -537.63,112.39 -15.96,3.22 -40.09,19.26 -52.47,6.06l-185.03 36.86 0 0 -217 49.44 0 -38.82c40.43,-6.73 80.95,-13.02 120.66,-21.67 34.3,-7.49 103.38,-23.66 165.83,-34.46l0 0zm1076.15 -2032.98l115.29 0 0 9.29 -24.57 0 -0.03 328.88 9.85 0c16.21,0 29.85,-7.55 40.78,-22.65 10.93,-15.23 17.59,-36.61 19.87,-64.22l9.82 0 -1.64 96.15 -169.37 0 0 -9.25 23.5 -0.03 0 -328.88 -23.5 0 0 -9.29zm323.48 0l114.19 0 0 9.29 -24.58 0 -0.03 328.91 24.61 0 0 9.28 -114.19 -0.03 0 -9.25 22.4 -0.03 0 -328.88 -22.4 0 0 -9.29zm113.62 -114.75l-78.65 92.36 -9.29 -0.04 28.4 -92.32 59.54 0zm143.75 114.75l96.68 0 92.33 285.26 1.11 0 0 -252.47c0,-15.67 -7.65,-23.5 -22.97,-23.5l-9.82 0 0 -9.29 72.65 0 0 9.29 -9.82 0c-12.04,0 -18.04,4.83 -18.04,14.37l0 323.79 -60.46 0 -99.05 -302.66 -1.11 0 0 262.17c0,20.85 6.92,31.24 20.76,31.24l12.03 0 0 9.25 -68.29 0 0 -9.25c8.91,0 15,-1.68 18.38,-4.93 3.38,-3.28 5.12,-9.48 5.12,-18.57l0 -305.41 -29.53 0 0.03 -9.29zm385.2 0l177.01 0 0 83.58 -9.29 0c-7.29,-49.53 -26.22,-74.29 -56.82,-74.29l-20.22 0 0 149.15 11.94 0c12,0 21.48,-3.57 28.4,-10.58 7.01,-7.02 10.48,-16.55 10.48,-28.68l0 -9.92 9.83 0 0 111.47 -9.83 0 0 -8.75c0,-29.5 -12.28,-44.26 -36.79,-44.26l-14.03 0 0 170.48 17.41 -0.03c31.93,0 53.16,-28.94 63.45,-86.87l8.75 0 0 96.18 -180.29 -0.03 0 -9.28 23.5 0 0 -328.88 -23.5 0 0 -9.29zm427.55 -4.93l19.49 0 89.42 343.1 22.37 0.03 0.03 9.25 -112.01 0.03 0 -9.31 21.23 0 -22.96 -87.97 -65.48 0.03 -13.74 60.74c-0.73,2.81 -1.11,5.18 -1.11,7.27 0,13.29 6.57,19.93 19.77,19.93l9.29 0.03 0 9.28 -71.01 -0.03 -0.03 -9.28 8.75 0c12.13,0 19.96,-8 23.41,-24.04l72.58 -319.06zm-17.4 121.01l-28.43 124.86 61.03 0 -31.5 -124.86 -1.1 0zm-574.5 2079.38c-8.37,9.44 -19.01,13.99 -32.34,13.93 -13.17,-0.07 -25.37,-6.57 -36.61,-19.71 -11.21,-13.24 -18.23,-29.63 -20.98,-49.09 -3.19,-22.39 -1.76,-43.78 4.05,-64.31 5.94,-20.47 14.62,-36.73 26.06,-48.96 11.56,-12.13 25.3,-18.16 41.34,-17.97 8.47,0.06 15.07,3.6 19.81,10.58 0.76,-2.24 1.55,-4.58 2.3,-6.85 15.92,0.16 31.88,0.44 47.83,0.94 0.09,34.34 0.22,67.16 0.22,99.94 0,32.82 0.09,65.67 0.22,99.94 0.09,42.74 -9.13,71.33 -51.8,70.7 -0.1,-29.73 -0.1,-59.45 -0.1,-89.14zm44.48 -210.43c-10.71,-0.32 -20.28,-4.01 -28.78,-11.34 -8.56,-7.27 -13.71,-16.96 -15.41,-29.22 -0.48,-3.44 -0.73,-7.3 -0.73,-11.4 0,-32.98 0.09,-65.99 0.13,-98.96 0.03,-32.98 0.09,-65.96 0.15,-98.93 -6.22,-0.06 -12.44,-0.1 -18.63,-0.13 0.03,-2.53 0.09,-5.05 0.16,-7.58 9.47,0.06 18.92,0.1 28.39,0.19 16.49,0.16 30.26,-0.85 41.54,-3.13 0.03,36.45 0.09,72.94 0.09,109.39 0.03,36.48 0.13,72.96 0.16,109.41 0,6.23 0.19,10.71 0.6,13.59 0.44,3.03 1.52,5.65 3.22,7.7 1.77,2.06 3.64,3.13 5.69,3.19 3.98,0.13 7.64,-2.11 10.74,-6.66 3.19,-4.61 5.37,-11.06 6.5,-19.4 2.5,0.1 5.03,0.19 7.55,0.29 -4.35,29.41 -18.16,43.65 -41.37,42.99zm-220.51 -259.96c23.97,-0.41 47.95,-0.82 71.95,-1.04 23.98,-0.19 47.98,-0.25 71.99,-0.19 0.03,11.28 0.09,22.58 0.13,33.86 0.03,11.24 0.12,22.55 0.15,33.83 -2.49,0 -5.02,0 -7.55,0 -5.68,-40.08 -21.09,-60.21 -46.21,-60.08 -5.4,0.03 -10.83,0.06 -16.26,0.1 0.03,18.16 0.09,36.35 0.12,54.48 0,18.13 0.07,36.3 0.13,54.43 3.22,0 6.44,-0.07 9.66,-0.1 23.13,-0.16 33.71,-13.45 31.62,-39.86 2.53,0 5.09,0 7.62,0 -0.04,15.1 -0.07,30.2 -0.1,45.23 -0.03,15.1 -0.03,30.2 -0.06,45.26 -2.53,0 -5.06,0 -7.52,0 0.38,-8.18 0.38,-13.92 -0.09,-17.21 -2.41,-17.12 -12.36,-25.55 -29.89,-25.46 -3.82,0.03 -7.64,0.06 -11.46,0.13 -0.03,20.97 -0.03,41.94 -0.03,62.89 0,20.97 0,41.91 0,62.85 4.7,-0.12 9.41,-0.19 14.12,-0.22 12.95,-0.12 23.78,-6.06 32.4,-17.75 8.63,-11.62 15.1,-29.18 19.37,-52.53 2.37,0 4.73,0 7.1,0 -0.06,12.95 -0.09,25.9 -0.12,38.82 -0.03,12.92 -0.1,25.84 -0.13,38.76 -24.38,0.03 -48.77,0.09 -73.15,0.54 -24.39,0.41 -48.77,1.17 -73.16,2.02 -0.03,-2.56 -0.03,-5.09 -0.03,-7.68 6.32,-0.19 12.7,-0.41 19.05,-0.63 0,-40.56 0,-81.08 0,-121.64 0,-40.49 0,-81.08 0,-121.61 -6.51,0.13 -13.02,0.22 -19.49,0.35 -0.07,-2.5 -0.13,-4.99 -0.16,-7.55zm565.15 341.36c10.86,-18.92 25.49,-27.17 43.52,-24.77 11.12,1.46 20.66,6.64 28.72,15.01 8.02,8.46 12.73,18.41 14.27,29.81 0.22,1.52 0.32,12.1 0.32,31.88 0,19.8 0,48.77 -0.1,86.95 0,4.49 -0.12,8.91 0.57,13.81 0.41,3.12 1.52,5.87 3.38,8.21 1.77,2.24 3.76,3.6 5.85,3.92 3.85,0.56 7.45,-1.27 10.64,-5.56 3.19,-4.27 5.4,-10.49 6.51,-18.77 2.52,0.38 5.05,0.73 7.7,1.14 -4.29,29.25 -18.16,42.07 -41.56,38.63 -11,-1.61 -20.69,-6.66 -29.25,-15.16 -8.47,-8.31 -13.68,-18.76 -15.39,-31.4 -0.28,-1.86 -0.44,-13.17 -0.56,-33.92 -0.1,-20.72 -0.1,-50.98 -0.1,-90.69 0.1,-2.27 0.03,-4.42 -0.22,-6.41 -0.95,-7.29 -4.64,-11.24 -10.68,-12.03 -5.18,-0.67 -10.55,2.59 -16.17,10.14 -5.59,7.36 -8.34,18.51 -8.02,33.54 0,22.05 0,44.19 0,66.21 0,22.04 0.12,44.16 0.22,66.27 -17.25,-2.22 -34.52,-4.11 -51.77,-5.94 0,-5.72 0,-11.41 0,-17.12 -8.15,12.22 -21.01,17.4 -38.6,15.6 -10.9,-0.98 -20.56,-5.37 -29.15,-13.49 -5.5,-5.08 -9.54,-11.05 -12.2,-18 -7.7,16.46 -22.2,25.84 -42.32,24.45 -9.45,-0.67 -18.26,-4.24 -26.38,-10.58 -8.15,-6.38 -13.64,-15.13 -16.83,-26 -10.24,21.19 -25.18,31.37 -44.98,30.39 -11.53,-0.57 -21.2,-4.52 -28.9,-11.85 -7.71,-7.2 -12.42,-16.61 -14.09,-28.17 -0.19,-1.33 -0.54,-14.34 -0.54,-39.01 0,-24.67 -0.12,-61.06 -0.12,-109.07 -6.26,-0.19 -12.51,-0.38 -18.8,-0.6 0,-2.43 0.13,-4.96 0.22,-7.49 9.48,0.29 19.05,0.54 28.59,0.92 16.83,0.63 30.79,0.25 42.1,-1.68 -0.09,24.55 -0.22,49.09 -0.22,73.6 0,24.51 0,49.02 0,73.53 -0.09,10.62 -0.03,16.9 0.22,18.8 1.17,7.86 5.63,12 13.43,12.38 4.74,0.22 9.44,-3.82 14.4,-12.22 4.96,-8.25 7.36,-17.82 7.14,-28.87 0,-21.92 0.22,-43.91 0.22,-65.83 0,-21.89 0.22,-43.91 0.35,-65.83 17.24,1.2 34.52,2.4 51.77,3.67 -0.1,20.94 -0.32,41.88 -0.32,62.82 0,20.95 -0.12,41.92 -0.12,62.83 0,0 0,0 0,0 0,0.13 0,0.22 0,0.31 0,2.12 0,4.24 0,6.32 0,6.51 0,13.08 0,19.59 0,0.41 0,0.82 0,1.23 0,-6.92 0,-13.81 0,-20.75 -0.1,6.5 -0.1,13.01 -0.1,19.52 -0.13,2.52 -0.13,5.11 0.1,7.86 0,-1.45 0,-2.87 0,-4.29 0,6.19 0.44,13.83 4.39,18.25 6.28,6.7 15.06,3.29 19.71,-2.49 3.6,-4.39 6.03,-10.55 7.36,-18.61 -0.22,-3.25 -0.35,-7.04 -0.22,-11.4 0,-21.86 0,-43.75 0,-65.54 0,-21.86 0.09,-43.78 0.22,-65.64 -6.29,-0.57 -12.54,-1.14 -18.83,-1.71 0,-2.43 0.13,-4.95 0.25,-7.39 9.54,0.82 19.11,1.71 28.81,2.59 16.58,1.52 30.54,1.61 41.98,0.19 0,25.9 0,51.84 0,77.74 0,25.87 0,51.8 0,77.67 0,6.44 -0.32,16.49 4.29,21.98 6.26,6.92 15.17,3.79 19.81,-1.89 3.51,-4.33 6.03,-10.39 7.36,-18.42 -0.13,-23.75 -0.13,-47.5 -0.13,-71.22 0,-23.73 0,-47.45 0,-71.23 -6.25,-0.7 -12.54,-1.39 -18.79,-2.06 0,-2.49 0.13,-4.99 0.22,-7.51 9.57,1.1 19.14,2.14 28.81,3.22 16.71,1.86 30.57,2.34 42.01,1.39 0,9.44 0,18.86 0,28.24zm-903.7 -104.71c-0.09,20.02 -0.09,40.05 -0.09,59.95 0,19.93 0,39.92 0,59.86 5.94,-0.83 11.88,-1.62 17.91,-2.41 5.18,-0.66 9.7,-3.09 13.55,-7.23 3.73,-4.1 6.03,-8.46 7.01,-12.82 0.89,-4.49 1.46,-18.32 1.46,-41.63 0.09,-23.25 0.03,-35.82 -0.23,-37.5 -2.27,-15.32 -9.79,-22.2 -22.77,-20.47 -5.59,0.76 -11.21,1.52 -16.84,2.25zm-74.41 3.72c35.72,-5.52 71.48,-10.99 107.2,-15.73 16.49,-2.21 31.02,1.11 43.75,10.08 12.67,9.1 20.15,21.1 22.33,36.23 2.53,17.66 -1.2,34.34 -11.12,49.75 -9.98,15.51 -25.27,26.5 -45.96,33.29 0,0.35 0,0.7 0.13,1.01 15.92,-1.17 28.4,1.61 37.37,8.18 9.03,6.6 14.24,15.29 15.73,25.9 0.38,2.69 0.66,30.8 0.76,84.28 0,1.8 0.25,4.2 0.66,7.17 0.69,4.92 3.09,7.17 7.36,6.69 5.53,-0.6 8.91,-7.26 10.23,-19.96 2.75,0.35 5.5,0.7 8.37,1.01 -2.65,22.68 -15.63,35.25 -38.82,37.78 -10.77,1.17 -20.24,-1.55 -28.49,-8.02 -8.12,-6.48 -13.04,-15.67 -14.84,-27.61 -0.64,-4.23 -0.86,-33.04 -0.86,-86.36 0.1,-1.26 -0.03,-3.09 -0.34,-5.4 -1.77,-12.92 -9.8,-18.51 -23.98,-16.61 -5.05,0.66 -10.11,1.32 -15.07,1.99 0,23.78 0,47.5 0,71.22 0,23.76 0,47.51 0,71.23 6.73,-0.85 13.43,-1.7 20.16,-2.62 0,2.62 0.09,5.18 0.19,7.71 -31.53,4.2 -63.08,8.9 -94.67,13.58 0,-2.59 0,-5.15 0,-7.71 6.51,-0.95 13.11,-1.92 19.68,-2.9 0,-44.89 0,-89.87 0,-134.75 0,-44.92 0,-89.9 0,-134.81 -6.57,1.01 -13.17,2.05 -19.68,3 -0.09,-2.47 -0.09,-4.99 -0.09,-7.62zm299.72 97.67c0.1,-6.47 -0.09,-11.75 -0.66,-15.79 -0.85,-6.19 -3.1,-11.09 -6.6,-14.6 -3.54,-3.5 -7.81,-4.99 -12.86,-4.64 -7.14,0.51 -12.89,4.93 -16.83,13.24 -4.08,8.27 -5.94,19.67 -5.6,34.11 0.32,14.4 0.32,36.01 0,64.47 -0.34,28.58 0,46.37 0.98,53.47 0.89,6.42 3.07,11.25 6.61,14.53 3.5,3.35 7.8,4.84 12.85,4.49 6.92,-0.51 12.23,-4.52 16.27,-12 3.85,-7.55 5.84,-17.28 6.06,-29.16 -0.12,-18.03 -0.22,-36.01 -0.22,-54.04 0,-18.04 0,-36.04 0,-54.08zm-99.27 83.99c-4.3,-29.94 1.51,-58.12 17.68,-84.4 16.18,-26.28 36.39,-40.78 60.71,-42.74 17.88,-1.45 34.62,5.25 50,19.62 15.42,14.37 24.74,33.07 27.93,55.72 4.29,30.29 -1.65,58.18 -17.91,83.8 -16.05,25.83 -36.3,39.45 -60.49,41.31 -18.13,1.39 -34.75,-4.67 -50.13,-18.76 -15.29,-14.06 -24.6,-32.25 -27.79,-54.55zm225.14 65c-14.94,0.45 -27.92,-2.59 -38.69,-9.44 -10.87,-6.92 -16.87,-15 -18.26,-24.45 -1.13,-8.02 0.13,-14.78 3.64,-20.21 3.63,-5.4 8.37,-8.28 14.4,-8.56 5.5,-0.29 10.23,1.26 14.09,4.64 3.82,3.35 6.06,7.64 6.82,12.76 1.11,7.49 -0.25,13.8 -3.85,18.7 -3.64,4.99 -5.4,7.83 -5.31,8.75 0.32,2.15 3.1,4.52 8.28,6.95 5.14,2.43 11.87,3.57 20.12,3.32 7.13,-0.19 13.39,-3.26 18.57,-9.2 5.18,-5.93 7.23,-12.63 6.16,-20.09 -1.23,-8.59 -4.17,-16.14 -9.13,-22.45 -4.74,-6.42 -14.62,-14.31 -29.34,-23.6 -14.09,-8.53 -24.42,-17.09 -31.02,-25.58 -6.38,-8.56 -10.49,-18.77 -12.19,-30.77 -2.37,-16.33 1.73,-30.51 12.28,-42.45 10.46,-11.82 23.66,-18.26 39.49,-18.8 15.6,-0.53 28.8,2.63 39.57,9.23 10.68,6.63 16.84,14.69 18.17,24.19 1.1,7.99 -0.13,14.69 -3.76,20.12 -3.51,5.37 -8.25,8.15 -14.18,8.31 -5.6,0.16 -10.37,-1.48 -14.19,-4.96 -3.85,-3.47 -6.06,-7.77 -6.82,-12.82 -1.14,-7.8 0.22,-13.93 3.98,-18.51 3.73,-4.55 5.46,-7.49 5.27,-8.75 -0.37,-2.4 -2.65,-4.52 -7.04,-6.35 -4.52,-1.8 -10.77,-2.59 -18.92,-2.34 -7.8,0.25 -13.96,2.91 -18.26,8.25 -4.26,5.24 -6,11.68 -4.92,19.2 0.91,6.57 3.5,12.13 7.58,16.58 4.07,4.62 12.54,11.03 25.39,19.11 16.71,10.49 28.84,20.63 36.39,30.58 7.52,9.85 12.32,22.14 14.4,36.77 2.44,17.15 -2.52,31.52 -14.4,43.3 -12.1,11.85 -26.82,18.04 -44.32,18.57zm163.72 -49.87c-0.1,-22.52 -0.1,-45.07 -0.1,-67.63 0.22,-35.03 0,-54.83 -0.66,-59.35 -0.54,-3.82 -2.34,-7.14 -5.18,-9.95 -2.75,-2.78 -6.25,-4.23 -10.33,-4.29 -4.39,-0.04 -8.12,2.11 -11.09,6.6 -3.09,4.45 -5.08,10.23 -6.06,17.43 -1.11,7.11 -1.52,29.54 -1.52,67.19 0.1,37.65 0.32,58.09 0.76,61.12 1.99,14.21 6.82,21.38 14.5,21.44 5.4,0.07 10.14,-2.84 14.09,-8.59 4.07,-5.68 5.94,-13.71 5.59,-23.97zm322.15 -222.18c-20.56,21.98 -41.13,44.35 -61.56,66.74 -2.66,-0.22 -5.18,-0.47 -7.71,-0.73 7.39,-23.56 14.75,-47.12 22.11,-70.75 15.73,1.45 31.43,2.97 47.16,4.74zm-2250.92 -141.73l4.48 -479.07c-37.05,8.08 -66.81,25.58 -89.11,52.49 -22.26,26.95 -38.5,64.63 -48.7,113.08l-25.78 5.25 2.56 -162.36 437.41 -88.98 19.46 157.87 -25.02 5.09c-13.96,-44.1 -32.12,-75.05 -54.23,-92.93 -22.24,-17.88 -49.43,-23.53 -81.53,-16.99l-5.3 1.07 -3.7 478.92 66.02 -13.43 5.08 24.86 -261.85 53.25 -5.02 -24.85 65.23 -13.27zm488.26 -370.38l50.35 -10.24c16.46,-3.35 30.48,-8.08 41.63,-14.15 11.31,-6.06 19.52,-13.39 24.7,-21.73 6.86,-10.84 11.25,-31.02 13.43,-60.58 2.24,-29.6 1.01,-55.5 -3.54,-77.9 -3.29,-16.04 -9.38,-26.81 -18.42,-32.12 -9.03,-5.31 -22.58,-6.19 -40.59,-2.53l-66.01 13.43 -1.55 205.82zm-128.34 297.13l4.02 -477.34 -55.82 11.34 -5.05 -24.86 232.19 -47.22c71.45,-14.56 123.98,-16.2 157.68,-4.99 33.58,11.25 54.43,36.8 62.58,76.82 7.45,36.64 -2.37,68.58 -29.66,95.55 -27.26,27.01 -71.99,49.18 -134.06,66.24l1.61 7.93c44.03,1.01 76.76,8.78 98.14,23.02 21.42,14.41 37.72,39.55 48.93,75.4 3.57,10.9 7.64,25.58 12,43.81 11.15,44.13 27.45,64.03 48.84,59.67 5.3,-1.08 10.74,-2.88 16.42,-5.37 5.69,-2.53 11.25,-5.66 16.84,-9.51l5.05 24.86c-11.34,10.67 -23.88,19.3 -37.62,25.99 -13.74,6.73 -29.53,11.98 -47.13,15.54 -39.73,8.09 -72.49,2.34 -98.07,-17.4 -25.56,-19.61 -43.02,-52.46 -52.37,-98.42 -1.77,-8.69 -3.73,-18.96 -5.91,-31.05 -2.21,-12.07 -3.6,-19.62 -4.2,-22.59 -5.47,-26.81 -14.59,-45.2 -27.26,-55.15 -12.7,-9.95 -30.48,-12.54 -53.51,-7.86l-25.77 5.24 -1.99 244.77 60.71 -12.35 5.08 24.85 -247.86 50.42 -5.05 -24.86 61.24 -12.48zm562.75 -267.38l120.28 -24.48 -50.41 -171.51 -69.87 195.99zm-129.12 205.06l-5.06 -24.86c15.7,-4.26 28.59,-11.88 38.57,-23.09 10.01,-11.05 19.49,-28.9 28.46,-53.66l177.04 -485.87 30.29 -6.16 146.12 482.83 58 -11.81 5.14 25.27 -240.18 48.86 -5.15 -25.23 56.98 -11.63 -34.49 -117.15 -136.61 27.79 -37.87 103.58c-1.11,2.52 -1.77,5.08 -2.18,7.74 -0.45,2.49 -0.38,4.77 0.03,6.85 0.82,4.01 3.16,6.92 7.07,8.81 3.98,1.74 8.53,2.18 13.59,1.14l31.84 -6.48 5.14 25.24 -136.73 27.83zm655.1 -159.16l74.36 -15.13c35.85,-7.3 62.41,-19.84 79.85,-37.69 17.28,-17.81 28.74,-44.16 34.62,-78.93 3.66,-19.87 5.4,-60.27 5.4,-121.23 -0.16,-10.74 -0.16,-18.86 -0.22,-24.36 -0.32,-37.3 -1.17,-67.34 -2.56,-90.11 -1.52,-22.74 -3.79,-41.82 -6.92,-57.24 -6.16,-30.29 -18.79,-50.54 -37.84,-60.67 -19.05,-10.14 -47.22,-11.44 -84.65,-3.83l-57.36 11.69 -4.68 477.5zm-184.62 63.45l-5.06 -24.86 62.29 -12.66 4.65 -477.53 -56.83 11.59 -5.05 -24.85 243.81 -49.63c36.39,-7.39 66.53,-10.42 90.37,-9.09 23.88,1.35 46.15,6.82 66.78,16.64 29.5,13.81 54.71,34.97 75.84,63.84 21.07,28.77 35.41,61.43 42.86,98.11 16.46,80.92 1.07,155.66 -46.37,224.07 -47.44,68.32 -114.88,111.44 -202.15,129.19l-271.14 55.18zm563.72 -114.69l-5.05 -24.86 62.29 -12.69 4.14 -477.37 -56.99 11.59 -5.05 -24.86 247.07 -50.29 5.05 24.86 -60.33 12.29 -4.8 477.53 55.82 -11.37 5.05 24.85 -247.2 50.32zm691.78 -298.52l29.12 1.23 -6 156.7 -18.66 3.79 -29.98 -28.71c-14.78,17.47 -32.5,31.84 -53,43.02 -20.5,11.31 -44.16,19.65 -70.95,25.08 -60.2,12.25 -112.25,4.39 -155.88,-23.82 -43.62,-28.08 -71.35,-71.13 -83.13,-129 -9.41,-46.24 -8.5,-93.46 2.71,-141.6 11.41,-48.04 32.1,-93.5 62.14,-136.17 22.96,-32.85 48.54,-59.64 76.34,-79.98 27.83,-20.37 56.54,-33.61 86.2,-39.64 21.76,-4.42 41.28,-5.18 58.75,-2.11 17.5,3.03 33.42,9.79 47.67,20.08l33.73 -37.62 18.54 -3.75 3.13 154.71 -28.49 5.81c-12.51,-43.72 -29.76,-75.4 -51.39,-95.01 -21.83,-19.68 -47.48,-26.47 -76.73,-20.53 -23.31,4.77 -41.5,15.47 -54.52,32.28 -13.07,16.67 -22.27,41.06 -27.63,72.9 -3.32,22.77 -5.85,48.93 -7.81,78.43 -1.8,29.53 -2.87,60.74 -3.03,93.68 -0.38,34.59 0.35,65.45 2.28,92.71 1.89,27.26 4.58,49.78 8.21,67.5 6,29.53 16.08,49.34 30.32,58.97 14.25,9.76 35.06,11.88 62.35,6.32 36.93,-7.52 67.25,-25.52 90.85,-53.95 23.5,-28.36 41.82,-68.79 54.86,-121.32zm73.91 142.74l-5.05 -24.86 62.26 -12.67 4.17 -477.4 -56.98 11.59 -5.06 -24.85 247.04 -50.26 5.05 24.86 -60.33 12.26 -4.77 477.52 55.79 -11.34 5.08 24.86 -247.2 50.29zm303.36 -261.7c-7.67,-37.68 -7.04,-77.73 1.9,-120 8.87,-42.38 25.11,-82.66 48.61,-120.88 24.79,-39.83 54.8,-72.62 90.12,-98.55 35.18,-25.9 73.5,-43.02 114.69,-51.39 61.12,-12.44 113.55,-4.48 157.08,23.88 43.55,28.49 71.48,72.84 83.76,133.3 8.91,43.77 8.15,88.41 -2.08,134.21 -10.39,45.64 -29.53,88.79 -57.52,129.53 -24.26,35.16 -53.38,64.41 -87.65,87.56 -34.24,23.15 -71.26,38.76 -110.87,46.81 -60.21,12.26 -111.72,3.6 -154.55,-25.83 -42.8,-29.47 -70.7,-75.72 -83.49,-138.64zm257.4 -368.58c-35.34,7.2 -60.58,20.4 -75.81,39.54 -15.13,19.15 -25.9,54.36 -32.06,105.66 -2.46,20.31 -4.26,42.64 -5.49,67.06 -1.2,24.51 -1.96,55.94 -2.21,94.57 -0.13,38.44 0.44,70.28 1.42,95.71 1.1,25.27 2.75,43.4 4.96,54.26 5.15,25.27 15,41.86 29.66,49.66 14.68,7.8 36.83,8.72 66.61,2.65 31.72,-6.47 54.77,-18.41 69.52,-36.13 14.76,-17.57 25.34,-47.76 31.91,-90.37 3.25,-20.47 5.52,-43.06 6.85,-67.73 1.3,-24.82 1.83,-59.19 1.93,-103.16 0,-45.04 -0.67,-80.23 -1.9,-105.46 -1.39,-25.34 -3.63,-45.65 -6.76,-61.06 -4.32,-21.23 -13.42,-35.44 -27.41,-42.68 -14,-7.13 -34.4,-7.99 -61.22,-2.52zm-30.57 -60.14l-42.08 8.59 99.91 -149.25c7.46,-10.96 14.34,-18.98 20.47,-24 5.97,-5.12 12.85,-8.41 20.34,-9.92 8.94,-1.83 17.59,0.19 25.96,6.16 8.47,5.97 13.68,13.67 15.64,23.24 1.52,7.4 0.57,14.72 -2.81,22.02 -3.38,7.17 -9.22,14.28 -17.66,21.26l-119.77 101.9zm326.25 516.15l-5.05 -24.86c1.55,-0.28 3.85,-0.91 6.92,-1.8 3.19,-0.91 5.46,-1.51 6.91,-1.8 16.18,-3.31 27.61,-9.41 33.99,-18.38 6.57,-8.91 9.95,-28.05 10.3,-57.52l4.45 -364.44c-0.09,-0.54 -0.12,-1.33 -0.06,-2.41 -0.16,-4.7 -0.44,-8.14 -0.92,-10.36 -2.3,-11.4 -8.21,-18.54 -17.43,-21.51 -9.26,-3 -24.73,-2.27 -46.25,2.12l-5.05 -24.86 174.55 -35.5 235.86 291.01 2.08 -263.53c-0.03,-4.17 -0.28,-8.02 -0.63,-11.72 -0.35,-3.57 -0.7,-6.73 -1.3,-9.6 -2.05,-10.11 -6.95,-16.24 -14.56,-18.61 -7.52,-2.49 -22.46,-1.64 -44.57,2.34l-5.05 -24.86 148.39 -30.2 5.06 24.86 -10.99 2.25c-15.96,3.22 -27.58,10.33 -34.81,21.1 -7.27,10.77 -11.15,26.81 -11.53,48.2l-4.52 455.6 -28.11 5.72 -311.86 -388.96 -4.13 358.19c-0.22,4.24 -0.13,8.66 0.44,13.4 0.44,4.77 1.14,9.6 2.11,14.4 2.06,10.11 6.61,16.58 13.81,19.46 7.17,2.84 18.6,2.68 34.27,-0.54l10.23 -2.05 5.06 24.86 -147.61 30zm-647.21 -1362.45l0 0 -0.03 0c6.41,3.35 12.42,2.81 18.26,0.47 -5.84,2.34 -11.85,2.88 -18.23,-0.47 7.62,-5.09 15.1,-11.69 24.01,-2.31 -8.91,-9.38 -16.39,-2.78 -24.01,2.31zm25.02 -2.85l0 0 -0.25 1.08 0.25 -1.04 0 -0.04zm-2848.67 2413.38c47.38,77.07 141.57,135.95 224.42,131.02 35.95,-2.15 76.25,-9.48 111.13,15.73 13.67,9.82 16.2,-16.08 34.05,-16.2 75.84,-0.45 151.9,-1.99 226.98,6.79 13.42,1.58 26.63,0.22 39.95,-0.86l-2.33 -2.49 89.36 0c93.05,93.37 199.37,177.86 319.43,254.11 6.92,4.39 13.49,9.57 19.58,15.45 33.42,19.2 67.95,37.56 103.61,55.02 17.47,7.2 34.87,14.53 52.31,21.89 67.09,28.27 136.51,57.49 206.79,78.34 98.65,29.25 205.25,51.04 316.72,64.78 65.89,8.15 133.77,10.11 199.98,11.53 98.8,-2.94 200.51,-14.53 305.72,-34.78 13.4,-2.59 26.73,-5.3 39.99,-8.24l4.8 10.93 0 0 4.81 10.9 1.48 3.38c0.98,-2.97 3.19,-5.6 6.19,-6.95 48.61,-22.52 97.48,-44.22 146.21,-65.89 112.01,-49.85 227.87,-101.36 336.4,-160.68 64.5,-35.26 123.85,-83.65 181.25,-130.46 18.22,-14.87 36.89,-30.07 55.78,-44.91 27.1,-24.29 53.19,-49.12 78.3,-74.42l39.55 0 0.31 -0.35c146.47,-0.06 292.91,1.68 439.4,-0.54 127.08,-1.92 222.66,-73.34 259.87,-182.44 12.06,-35.47 7.23,-70.25 8.97,-105.4 0.6,-12.48 -0.82,-26 13.17,-31.84 14.31,-6.04 19.74,5.84 23.37,15.73 10.4,28.58 25.18,-8.09 35.7,2.46 7.07,116.14 -26.47,214.88 -116.68,292.52 -65.01,56.04 -140.06,83.04 -224.02,82.89 -153.54,-0.26 -307.05,-2.91 -460.56,-2.85 -0.66,0.76 -1.36,1.46 -2.09,2.15 -9.85,9.45 -19.8,18.73 -29.78,27.86 -63.46,59.54 -131.5,114.47 -203.58,163.97l-0.66 -1.55c-137.65,93.94 -284.72,165.2 -439.65,212.83 -11.15,3.44 -22.08,7.87 -32.98,12.19 -16.77,6.76 -34.15,13.71 -52.43,17.34 -15.42,3.1 -31.37,-1.1 -43.03,-4.17 -3.69,-0.97 -7.01,-1.89 -9.76,-2.33 -1.07,-0.16 -2.05,-0.45 -3,-0.89l7.68 17.47c-21.64,4.86 -43.37,9.32 -65.2,13.3 -19.04,3.5 -37.99,6.66 -56.88,9.54 -10.68,4.99 -21.67,7.89 -32.79,8.59 -6.85,0.41 -13.61,0 -20.31,-1.26 -24.35,3.03 -48.55,5.52 -72.59,7.58 -0.69,2.02 -1.89,3.82 -3.53,5.21 -2.44,1.99 -5.53,2.97 -8.69,2.65l-30.2 -3 -11.12 -1.11c-135.28,7.55 -265.7,-0.09 -390.12,-20.87 -27.7,-4.08 -54.9,-9.42 -81.49,-15.67 -332.49,-72.21 -619.04,-237.97 -838.82,-451.5 -110.01,0.41 -220.06,1.77 -330.05,-0.51 -75.9,-1.57 -151.61,11.5 -228.08,-9.91 -99.85,-27.89 -172.75,-94.26 -213.72,-177.68l70.88 -14.4zm3917.88 -795.7l0 129.35c2.24,-4.58 4.45,-9.16 6.63,-13.74 -0.73,44.25 -2.31,88.6 -5.56,133.01 -0.41,5.72 -0.76,11.43 -1.07,17.15l0 135.25c1.99,50.73 5.46,101.71 7.64,152.28 0.73,16.96 8.72,45.33 -16.49,44.48 -14.27,-0.54 -36.04,-12.8 -45.36,-40.72 -11.81,-35.31 -4.39,-69.17 -12.72,-109.35 1.45,-15.42 2.65,-30.99 3.69,-46.69l-8.4 0 0 -386.49 71.64 -14.53zm-3244.64 970.63c-0.38,1.29 -0.66,2.62 -0.76,3.94 -0.16,2.34 2.62,4.9 4.08,7.36l2.36 -5.56 -5.68 -5.74zm1545.03 316.27c0,0.82 0.06,1.61 0.18,2.43l4.02 22.56c0.63,3.34 2.55,6.28 5.37,8.21 2.81,1.89 6.28,2.59 9.6,1.86l145.04 -30.19c3.29,-0.7 6.16,-2.66 8,-5.47 1.8,-2.81 2.43,-6.22 1.73,-9.54l-5.87 -26.78c-0.73,-3.29 -2.75,-6.16 -5.62,-7.96 -2.85,-1.77 -6.32,-2.34 -9.64,-1.58l-143.18 34.43c-5.65,1.39 -9.57,6.41 -9.63,12.03zm326.82 -104.61c-0.03,2.52 0.67,5.02 2.09,7.17l16.26 24.57c3.67,5.56 11.06,7.3 16.81,3.95l179.82 -103.95c2.91,-1.68 5.02,-4.46 5.84,-7.68 0.92,-3.28 0.38,-6.73 -1.32,-9.6l-12.07 -20.44c-3.41,-5.81 -10.86,-7.89 -16.8,-4.67l-184.06 99.78c-3.09,1.68 -5.34,4.61 -6.22,8.02 -0.19,0.95 -0.35,1.9 -0.35,2.85zm-1529.11 -129.41c-0.03,1.35 0.16,2.71 0.6,4.07 18.83,58.25 138.61,128.18 208.29,133.83 0.91,0.57 1.92,1.01 2.93,1.3l6.86 2.4c5.81,3.82 11.59,7.77 17.37,11.72 18.83,12.85 38.32,26.18 59.67,35.72 144.79,64.6 303.45,100.67 485.07,110.37 23.19,1.26 46.47,-1.2 63.49,-3.04 6.19,-0.66 11.66,-1.23 16.08,-1.51 6.32,-0.41 11.34,-5.47 11.75,-11.75 0.38,-7.02 -3.92,-11.97 -10.14,-13.17 -40.24,-7.84 -81.37,-15.64 -123.12,-23.54 -104.71,-19.8 -212.99,-40.3 -320.51,-64.34 -46.12,-10.33 -92.01,-27.51 -136.36,-44.12 -17.34,-6.48 -34.72,-12.99 -52.12,-19.11l-6.03 -3.86c-2.21,-1.42 -4.74,-2.05 -7.2,-1.96l-194.55 -121.73c-2.27,-2.59 -5.59,-4.23 -9.28,-4.3 -7.05,-0.12 -13.27,4.8 -12.8,12.7 0,0.1 0,0.19 0,0.32zm39.9 -2615.56c-0.03,3.06 1.01,6.16 3.22,8.56 3.95,4.48 10.55,5.56 15.73,2.46 300.55,-175.84 608.52,-250.51 941.47,-228.18 5.78,0.38 11.06,-3.22 12.79,-8.69 1.84,-5.53 -0.38,-11.5 -5.27,-14.56 -155.63,-97.38 -841.34,68.16 -965.41,233.05 -1.65,2.18 -2.47,4.8 -2.53,7.36z"/>
  </g>
 </g>
</svg>
